%TF.GenerationSoftware,KiCad,Pcbnew,8.0.7*%
%TF.CreationDate,2025-01-03T10:46:17+01:00*%
%TF.ProjectId,A5256,41353235-362e-46b6-9963-61645f706362,rev?*%
%TF.SameCoordinates,Original*%
%TF.FileFunction,Copper,L3,Inr*%
%TF.FilePolarity,Positive*%
%FSLAX46Y46*%
G04 Gerber Fmt 4.6, Leading zero omitted, Abs format (unit mm)*
G04 Created by KiCad (PCBNEW 8.0.7) date 2025-01-03 10:46:17*
%MOMM*%
%LPD*%
G01*
G04 APERTURE LIST*
%ADD10C,0.010000*%
%TA.AperFunction,NonConductor*%
%ADD11C,0.010000*%
%TD*%
%TA.AperFunction,ComponentPad*%
%ADD12C,3.400000*%
%TD*%
%TA.AperFunction,ComponentPad*%
%ADD13R,1.500000X1.500000*%
%TD*%
%TA.AperFunction,ComponentPad*%
%ADD14C,1.500000*%
%TD*%
%TA.AperFunction,ComponentPad*%
%ADD15C,1.297940*%
%TD*%
%TA.AperFunction,ViaPad*%
%ADD16C,0.600000*%
%TD*%
%TA.AperFunction,ViaPad*%
%ADD17C,1.000000*%
%TD*%
%TA.AperFunction,ViaPad*%
%ADD18C,0.550000*%
%TD*%
%TA.AperFunction,Conductor*%
%ADD19C,0.300000*%
%TD*%
%TA.AperFunction,Conductor*%
%ADD20C,0.500000*%
%TD*%
%TA.AperFunction,Conductor*%
%ADD21C,0.230000*%
%TD*%
%TA.AperFunction,Conductor*%
%ADD22C,0.200000*%
%TD*%
G04 APERTURE END LIST*
D10*
D11*
X222283408Y-102972855D02*
X222283408Y-103687141D01*
X222283408Y-103687141D02*
X222997694Y-103758569D01*
X222997694Y-103758569D02*
X222926265Y-103687141D01*
X222926265Y-103687141D02*
X222854837Y-103544284D01*
X222854837Y-103544284D02*
X222854837Y-103187141D01*
X222854837Y-103187141D02*
X222926265Y-103044284D01*
X222926265Y-103044284D02*
X222997694Y-102972855D01*
X222997694Y-102972855D02*
X223140551Y-102901426D01*
X223140551Y-102901426D02*
X223497694Y-102901426D01*
X223497694Y-102901426D02*
X223640551Y-102972855D01*
X223640551Y-102972855D02*
X223711980Y-103044284D01*
X223711980Y-103044284D02*
X223783408Y-103187141D01*
X223783408Y-103187141D02*
X223783408Y-103544284D01*
X223783408Y-103544284D02*
X223711980Y-103687141D01*
X223711980Y-103687141D02*
X223640551Y-103758569D01*
X222283408Y-101972855D02*
X222283408Y-101829998D01*
X222283408Y-101829998D02*
X222354837Y-101687141D01*
X222354837Y-101687141D02*
X222426265Y-101615713D01*
X222426265Y-101615713D02*
X222569122Y-101544284D01*
X222569122Y-101544284D02*
X222854837Y-101472855D01*
X222854837Y-101472855D02*
X223211980Y-101472855D01*
X223211980Y-101472855D02*
X223497694Y-101544284D01*
X223497694Y-101544284D02*
X223640551Y-101615713D01*
X223640551Y-101615713D02*
X223711980Y-101687141D01*
X223711980Y-101687141D02*
X223783408Y-101829998D01*
X223783408Y-101829998D02*
X223783408Y-101972855D01*
X223783408Y-101972855D02*
X223711980Y-102115713D01*
X223711980Y-102115713D02*
X223640551Y-102187141D01*
X223640551Y-102187141D02*
X223497694Y-102258570D01*
X223497694Y-102258570D02*
X223211980Y-102329998D01*
X223211980Y-102329998D02*
X222854837Y-102329998D01*
X222854837Y-102329998D02*
X222569122Y-102258570D01*
X222569122Y-102258570D02*
X222426265Y-102187141D01*
X222426265Y-102187141D02*
X222354837Y-102115713D01*
X222354837Y-102115713D02*
X222283408Y-101972855D01*
X223640551Y-100829999D02*
X223711980Y-100758570D01*
X223711980Y-100758570D02*
X223783408Y-100829999D01*
X223783408Y-100829999D02*
X223711980Y-100901427D01*
X223711980Y-100901427D02*
X223640551Y-100829999D01*
X223640551Y-100829999D02*
X223783408Y-100829999D01*
X223783408Y-99329998D02*
X223783408Y-100187141D01*
X223783408Y-99758570D02*
X222283408Y-99758570D01*
X222283408Y-99758570D02*
X222497694Y-99901427D01*
X222497694Y-99901427D02*
X222640551Y-100044284D01*
X222640551Y-100044284D02*
X222711980Y-100187141D01*
X222783408Y-98044285D02*
X223783408Y-98044285D01*
X222211980Y-98401427D02*
X223283408Y-98758570D01*
X223283408Y-98758570D02*
X223283408Y-97829999D01*
X222283408Y-96972856D02*
X222283408Y-96829999D01*
X222283408Y-96829999D02*
X222354837Y-96687142D01*
X222354837Y-96687142D02*
X222426265Y-96615714D01*
X222426265Y-96615714D02*
X222569122Y-96544285D01*
X222569122Y-96544285D02*
X222854837Y-96472856D01*
X222854837Y-96472856D02*
X223211980Y-96472856D01*
X223211980Y-96472856D02*
X223497694Y-96544285D01*
X223497694Y-96544285D02*
X223640551Y-96615714D01*
X223640551Y-96615714D02*
X223711980Y-96687142D01*
X223711980Y-96687142D02*
X223783408Y-96829999D01*
X223783408Y-96829999D02*
X223783408Y-96972856D01*
X223783408Y-96972856D02*
X223711980Y-97115714D01*
X223711980Y-97115714D02*
X223640551Y-97187142D01*
X223640551Y-97187142D02*
X223497694Y-97258571D01*
X223497694Y-97258571D02*
X223211980Y-97329999D01*
X223211980Y-97329999D02*
X222854837Y-97329999D01*
X222854837Y-97329999D02*
X222569122Y-97258571D01*
X222569122Y-97258571D02*
X222426265Y-97187142D01*
X222426265Y-97187142D02*
X222354837Y-97115714D01*
X222354837Y-97115714D02*
X222283408Y-96972856D01*
X222283408Y-95544285D02*
X222283408Y-95401428D01*
X222283408Y-95401428D02*
X222354837Y-95258571D01*
X222354837Y-95258571D02*
X222426265Y-95187143D01*
X222426265Y-95187143D02*
X222569122Y-95115714D01*
X222569122Y-95115714D02*
X222854837Y-95044285D01*
X222854837Y-95044285D02*
X223211980Y-95044285D01*
X223211980Y-95044285D02*
X223497694Y-95115714D01*
X223497694Y-95115714D02*
X223640551Y-95187143D01*
X223640551Y-95187143D02*
X223711980Y-95258571D01*
X223711980Y-95258571D02*
X223783408Y-95401428D01*
X223783408Y-95401428D02*
X223783408Y-95544285D01*
X223783408Y-95544285D02*
X223711980Y-95687143D01*
X223711980Y-95687143D02*
X223640551Y-95758571D01*
X223640551Y-95758571D02*
X223497694Y-95830000D01*
X223497694Y-95830000D02*
X223211980Y-95901428D01*
X223211980Y-95901428D02*
X222854837Y-95901428D01*
X222854837Y-95901428D02*
X222569122Y-95830000D01*
X222569122Y-95830000D02*
X222426265Y-95758571D01*
X222426265Y-95758571D02*
X222354837Y-95687143D01*
X222354837Y-95687143D02*
X222283408Y-95544285D01*
X223783408Y-93258572D02*
X222783408Y-93258572D01*
X222926265Y-93258572D02*
X222854837Y-93187143D01*
X222854837Y-93187143D02*
X222783408Y-93044286D01*
X222783408Y-93044286D02*
X222783408Y-92830000D01*
X222783408Y-92830000D02*
X222854837Y-92687143D01*
X222854837Y-92687143D02*
X222997694Y-92615715D01*
X222997694Y-92615715D02*
X223783408Y-92615715D01*
X222997694Y-92615715D02*
X222854837Y-92544286D01*
X222854837Y-92544286D02*
X222783408Y-92401429D01*
X222783408Y-92401429D02*
X222783408Y-92187143D01*
X222783408Y-92187143D02*
X222854837Y-92044286D01*
X222854837Y-92044286D02*
X222997694Y-91972857D01*
X222997694Y-91972857D02*
X223783408Y-91972857D01*
X223783408Y-91258572D02*
X222783408Y-91258572D01*
X222926265Y-91258572D02*
X222854837Y-91187143D01*
X222854837Y-91187143D02*
X222783408Y-91044286D01*
X222783408Y-91044286D02*
X222783408Y-90830000D01*
X222783408Y-90830000D02*
X222854837Y-90687143D01*
X222854837Y-90687143D02*
X222997694Y-90615715D01*
X222997694Y-90615715D02*
X223783408Y-90615715D01*
X222997694Y-90615715D02*
X222854837Y-90544286D01*
X222854837Y-90544286D02*
X222783408Y-90401429D01*
X222783408Y-90401429D02*
X222783408Y-90187143D01*
X222783408Y-90187143D02*
X222854837Y-90044286D01*
X222854837Y-90044286D02*
X222997694Y-89972857D01*
X222997694Y-89972857D02*
X223783408Y-89972857D01*
X216600000Y-71760000D02*
X225186420Y-71760000D01*
X216600000Y-121900000D02*
X225186420Y-121900000D01*
X224600000Y-71760000D02*
X224600000Y-121900000D01*
X224600000Y-71760000D02*
X224600000Y-121900000D01*
X224600000Y-71760000D02*
X225186421Y-72886504D01*
X224600000Y-71760000D02*
X224013579Y-72886504D01*
X224600000Y-121900000D02*
X224013579Y-120773496D01*
X224600000Y-121900000D02*
X225186421Y-120773496D01*
D12*
%TO.N,GND*%
%TO.C,H2*%
X114150000Y-75600000D03*
%TD*%
D13*
%TO.N,unconnected-(J2-Pad1)*%
%TO.C,J2*%
X101090000Y-117140000D03*
D14*
%TO.N,unconnected-(J2-Pad2)*%
X98550000Y-117140000D03*
%TO.N,unconnected-(J2-Pad3)*%
X101090000Y-114600000D03*
%TO.N,unconnected-(J2-Pad4)*%
X98550000Y-114600000D03*
%TO.N,/IN 14*%
X101090000Y-112060000D03*
%TO.N,GND*%
X98550000Y-112060000D03*
%TO.N,/IN 13*%
X101090000Y-109520000D03*
%TO.N,GND*%
X98550000Y-109520000D03*
%TO.N,/IN 12*%
X101090000Y-106980000D03*
%TO.N,GND*%
X98550000Y-106980000D03*
%TO.N,/IN 11*%
X101090000Y-104440000D03*
%TO.N,GND*%
X98550000Y-104440000D03*
%TO.N,/IN 10*%
X101090000Y-101900000D03*
%TO.N,GND*%
X98550000Y-101900000D03*
%TO.N,/IN 9*%
X101090000Y-99360000D03*
%TO.N,GND*%
X98550000Y-99360000D03*
%TO.N,/IN 8*%
X101090000Y-96820000D03*
%TO.N,GND*%
X98550000Y-96820000D03*
%TO.N,/IN 7*%
X101090000Y-94280000D03*
%TO.N,GND*%
X98550000Y-94280000D03*
%TO.N,/IN 6*%
X101090000Y-91740000D03*
%TO.N,GND*%
X98550000Y-91740000D03*
%TO.N,/IN 5*%
X101090000Y-89200000D03*
%TO.N,GND*%
X98550000Y-89200000D03*
%TO.N,/IN 4*%
X101090000Y-86660000D03*
%TO.N,GND*%
X98550000Y-86660000D03*
%TO.N,/IN 3*%
X101090000Y-84120000D03*
%TO.N,GND*%
X98550000Y-84120000D03*
%TO.N,/IN 2*%
X101090000Y-81580000D03*
%TO.N,GND*%
X98550000Y-81580000D03*
%TO.N,/IN 1*%
X101090000Y-79040000D03*
%TO.N,GND*%
X98550000Y-79040000D03*
%TO.N,/IN 0*%
X101090000Y-76500000D03*
%TO.N,GND*%
X98550000Y-76500000D03*
%TD*%
D12*
%TO.N,GND*%
%TO.C,H1*%
X114190000Y-118060000D03*
%TD*%
D15*
%TO.N,GND*%
%TO.C,J3*%
X134270000Y-98250000D03*
X139350000Y-98250000D03*
X139350000Y-93170000D03*
X134270000Y-93170000D03*
%TO.N,/IN 0*%
X136810000Y-95710000D03*
%TD*%
D16*
%TO.N,GND*%
X155430000Y-87360000D03*
X153350000Y-85920000D03*
D17*
%TO.N,/Power Supply/-5V*%
X176370000Y-89610000D03*
X169110000Y-89590000D03*
D16*
%TO.N,GND*%
X196420000Y-79620000D03*
X135290000Y-113850000D03*
X178740000Y-84990000D03*
X200100000Y-85040000D03*
D18*
X187310000Y-114950000D03*
D16*
X136980000Y-113850000D03*
X100680000Y-72990000D03*
X92970000Y-117150000D03*
X187020000Y-97680000D03*
X160710000Y-104990000D03*
X157980000Y-114140000D03*
X179800000Y-113240000D03*
X89530000Y-107590000D03*
X168720000Y-113950000D03*
X91700000Y-74120000D03*
X193910000Y-109410000D03*
X135290000Y-112170000D03*
X92690000Y-95980000D03*
X199260000Y-84160000D03*
X91590000Y-95980000D03*
X92800000Y-106190000D03*
D18*
X189280000Y-115600000D03*
D16*
X122680000Y-74170000D03*
X157970000Y-85440000D03*
X148640000Y-111940000D03*
X178950000Y-112360000D03*
X164360000Y-96190000D03*
X90640000Y-106190000D03*
X207230000Y-81730000D03*
X158470000Y-73650000D03*
X192990000Y-88170000D03*
X178110000Y-112360000D03*
X150800000Y-111940000D03*
X209430000Y-74340000D03*
X90590000Y-79260000D03*
X200950000Y-85840000D03*
X148960000Y-88590000D03*
X169220000Y-73810000D03*
X162760000Y-96190000D03*
X192970000Y-97700000D03*
X92860000Y-85750000D03*
X90810000Y-118550000D03*
X146970000Y-73750000D03*
X149070000Y-90220000D03*
X91590000Y-94580000D03*
X191750000Y-112000000D03*
X178930000Y-73830000D03*
X91700000Y-75520000D03*
X157130000Y-85440000D03*
X188920000Y-80760000D03*
X196080000Y-82260000D03*
X92800000Y-75520000D03*
X89590000Y-84350000D03*
X164360000Y-96970000D03*
X136130000Y-113850000D03*
X211600000Y-72940000D03*
X162740000Y-95330000D03*
X92860000Y-112160000D03*
X149330000Y-97200000D03*
X206180000Y-95640000D03*
X148080000Y-73750000D03*
X161700000Y-80050000D03*
X184750000Y-117880000D03*
X173200000Y-96140000D03*
X179780000Y-96950000D03*
X101790000Y-74390000D03*
X89700000Y-118550000D03*
X156290000Y-113340000D03*
X178950000Y-114040000D03*
X100680000Y-74390000D03*
X170580000Y-96710000D03*
X125780000Y-83520000D03*
X90640000Y-107590000D03*
X92690000Y-101560000D03*
X90530000Y-94580000D03*
X199910000Y-113330000D03*
X90590000Y-80660000D03*
X157980000Y-113340000D03*
X135990000Y-73700000D03*
X200560000Y-74110000D03*
X206200000Y-94380000D03*
X105230000Y-120300000D03*
X157970000Y-84640000D03*
X91700000Y-90830000D03*
X92860000Y-113560000D03*
X169630000Y-96690000D03*
D18*
X168060000Y-83840000D03*
D16*
X157130000Y-113340000D03*
X147530000Y-111940000D03*
X136980000Y-112170000D03*
X179780000Y-97740000D03*
X148060000Y-83300000D03*
X121580000Y-75570000D03*
X89530000Y-89430000D03*
X191660000Y-97700000D03*
X132210000Y-88150000D03*
X185860000Y-117880000D03*
X199910000Y-114130000D03*
X199070000Y-112450000D03*
X126890000Y-83520000D03*
D18*
X194160000Y-105160000D03*
D16*
X91590000Y-100160000D03*
X89420000Y-101560000D03*
X137440000Y-83830000D03*
X180430000Y-85790000D03*
X89420000Y-95980000D03*
X90700000Y-113560000D03*
X92970000Y-118550000D03*
X191130000Y-84300000D03*
X130050000Y-88150000D03*
X179800000Y-114040000D03*
X192230000Y-84300000D03*
X192300000Y-118850000D03*
X164240000Y-95400000D03*
X179780000Y-95440000D03*
X119410000Y-75570000D03*
X150710000Y-95240000D03*
X180430000Y-84990000D03*
X148640000Y-110540000D03*
X102850000Y-74390000D03*
D18*
X187980000Y-114950000D03*
D16*
X200760000Y-113330000D03*
X92800000Y-89430000D03*
X169940000Y-113950000D03*
X157970000Y-83760000D03*
X150240000Y-73750000D03*
X135750000Y-83830000D03*
X90700000Y-85750000D03*
X195570000Y-118850000D03*
X92800000Y-90830000D03*
X199070000Y-114130000D03*
X104130000Y-118900000D03*
X89480000Y-80660000D03*
D18*
X167410000Y-83830000D03*
D16*
X209620000Y-119220000D03*
X199450000Y-74110000D03*
X199260000Y-85040000D03*
X150800000Y-110540000D03*
X89590000Y-85750000D03*
D18*
X187300000Y-114290000D03*
D16*
X192410000Y-86440000D03*
D18*
X168710000Y-82510000D03*
D16*
X199260000Y-85840000D03*
X89590000Y-113560000D03*
X149160000Y-83300000D03*
X102850000Y-72990000D03*
X90700000Y-112160000D03*
X136980000Y-113050000D03*
X103950000Y-72990000D03*
X137100000Y-73700000D03*
X103950000Y-74390000D03*
X149700000Y-111940000D03*
D18*
X168710000Y-81850000D03*
D16*
X89420000Y-94580000D03*
X207450000Y-120620000D03*
D18*
X192870000Y-105180000D03*
D16*
X141040000Y-93160000D03*
X179500000Y-102700000D03*
X179580000Y-85790000D03*
X91760000Y-85750000D03*
X158820000Y-83760000D03*
X190710000Y-109410000D03*
D18*
X168060000Y-83160000D03*
D16*
X157130000Y-83760000D03*
X186920000Y-117880000D03*
X104130000Y-120300000D03*
X179780000Y-96180000D03*
X212700000Y-74340000D03*
X127810000Y-81510000D03*
X190650000Y-112000000D03*
X208560000Y-120620000D03*
X149700000Y-110540000D03*
X193410000Y-118850000D03*
D18*
X166420000Y-97150000D03*
D16*
X161920000Y-89750000D03*
X174310000Y-96140000D03*
X91590000Y-101560000D03*
X171430000Y-96690000D03*
X210720000Y-120620000D03*
X192410000Y-87680000D03*
X158820000Y-85440000D03*
X163540000Y-96950000D03*
X171240000Y-113360000D03*
X105230000Y-118900000D03*
X90640000Y-89430000D03*
X90530000Y-101560000D03*
D18*
X188624600Y-115600000D03*
D16*
X89700000Y-117150000D03*
X178740000Y-85790000D03*
X92690000Y-94580000D03*
X157130000Y-84640000D03*
X187020000Y-96700000D03*
X91700000Y-89430000D03*
X89530000Y-90830000D03*
X199070000Y-113330000D03*
X145860000Y-81930000D03*
X156290000Y-114140000D03*
X91700000Y-106190000D03*
X149330000Y-95040000D03*
X187710000Y-80750000D03*
X207250000Y-80750000D03*
X178110000Y-113240000D03*
X89480000Y-79260000D03*
X122680000Y-75570000D03*
X136200000Y-102160000D03*
X119410000Y-74170000D03*
D18*
X189284600Y-114950000D03*
D16*
X212700000Y-72940000D03*
X135750000Y-85510000D03*
X170620000Y-95770000D03*
X158820000Y-84640000D03*
X142820000Y-93210000D03*
X172140000Y-87970000D03*
X179060000Y-95430000D03*
X179580000Y-84110000D03*
D18*
X188630000Y-114960000D03*
D16*
X157980000Y-112460000D03*
X193530000Y-86440000D03*
X168110000Y-73810000D03*
X178950000Y-113240000D03*
X209620000Y-120620000D03*
X135750000Y-84710000D03*
X90640000Y-75520000D03*
X147930000Y-95040000D03*
X90700000Y-84350000D03*
X120520000Y-75570000D03*
X163520000Y-95350000D03*
X101960000Y-120300000D03*
X90530000Y-95980000D03*
X89530000Y-106190000D03*
X149330000Y-96140000D03*
X92860000Y-84350000D03*
X179580000Y-84990000D03*
X120520000Y-74170000D03*
X194470000Y-118850000D03*
X92750000Y-79260000D03*
X180040000Y-73830000D03*
X147530000Y-110540000D03*
X200760000Y-114130000D03*
X179800000Y-112360000D03*
X149140000Y-73750000D03*
X180430000Y-84110000D03*
D18*
X168070000Y-81860000D03*
D16*
X150720000Y-100020000D03*
X209430000Y-72940000D03*
X137440000Y-85510000D03*
X179060000Y-96960000D03*
X90640000Y-90830000D03*
X178740000Y-84110000D03*
X92690000Y-100160000D03*
X101960000Y-118900000D03*
X200100000Y-84160000D03*
X147000000Y-83300000D03*
X200950000Y-85040000D03*
X91700000Y-107590000D03*
X137440000Y-84710000D03*
X147930000Y-97200000D03*
X211600000Y-74340000D03*
X210720000Y-119220000D03*
X91650000Y-79260000D03*
X146920000Y-81930000D03*
X91870000Y-118550000D03*
X91760000Y-112160000D03*
X210540000Y-74340000D03*
X142490000Y-100060000D03*
X101790000Y-72990000D03*
X103070000Y-120300000D03*
X171380000Y-73810000D03*
X182040000Y-87600000D03*
X135290000Y-113050000D03*
X157360000Y-73650000D03*
X136590000Y-85510000D03*
X208560000Y-119220000D03*
X147930000Y-96140000D03*
X149510000Y-91600000D03*
X191750000Y-113400000D03*
X91760000Y-113560000D03*
X89420000Y-100160000D03*
X136130000Y-112170000D03*
X200950000Y-84160000D03*
X157130000Y-114140000D03*
X92750000Y-80660000D03*
X142450000Y-95200000D03*
X136130000Y-113050000D03*
X187020000Y-95750000D03*
X162650000Y-80660000D03*
X156290000Y-112460000D03*
X159030000Y-105020000D03*
X200100000Y-85840000D03*
X207450000Y-119220000D03*
X128910000Y-81510000D03*
X189980000Y-80760000D03*
X92800000Y-74120000D03*
X136590000Y-83830000D03*
X131110000Y-88150000D03*
X136590000Y-84710000D03*
X170280000Y-73810000D03*
X157130000Y-112460000D03*
X179060000Y-96200000D03*
X90530000Y-100160000D03*
X192410000Y-109410000D03*
X164160000Y-90320000D03*
X90810000Y-117150000D03*
X91760000Y-84350000D03*
X191080000Y-80760000D03*
X193530000Y-87680000D03*
X178110000Y-114040000D03*
X169610000Y-95780000D03*
X92800000Y-107590000D03*
X128940000Y-88150000D03*
X163570000Y-96210000D03*
X89530000Y-75520000D03*
X179060000Y-97730000D03*
X90640000Y-74120000D03*
X192960000Y-87080000D03*
X89530000Y-74120000D03*
X91870000Y-117150000D03*
X199910000Y-112450000D03*
X148020000Y-81930000D03*
X89590000Y-112160000D03*
D18*
X168060000Y-82510000D03*
D16*
X173330000Y-87970000D03*
X200760000Y-112450000D03*
X210540000Y-72940000D03*
X103070000Y-118900000D03*
X121580000Y-74170000D03*
X157580000Y-102780000D03*
X190650000Y-113400000D03*
X175370000Y-96140000D03*
X91650000Y-80660000D03*
X171420000Y-95810000D03*
X162750000Y-96940000D03*
D18*
%TO.N,4V5*%
X182360000Y-97400000D03*
D16*
X178222500Y-88252500D03*
D18*
X166900000Y-95110000D03*
X160620000Y-95150000D03*
D16*
X198180000Y-110090000D03*
X161462800Y-73600000D03*
X134580000Y-110160000D03*
X183120000Y-73600000D03*
X156465000Y-88035000D03*
X155777900Y-116617900D03*
X177875000Y-116285000D03*
X138409400Y-101086400D03*
X175250000Y-117820000D03*
X175250000Y-116160000D03*
X153780000Y-89840000D03*
X134692900Y-116260000D03*
X153790000Y-88150000D03*
X174400000Y-116990000D03*
X155430000Y-110420000D03*
X135252500Y-87922500D03*
X203500000Y-73915900D03*
X175250000Y-116990000D03*
X178387250Y-81752750D03*
X198850000Y-88050000D03*
X134980000Y-81910000D03*
X174400000Y-117800000D03*
X140100000Y-73600000D03*
X156838800Y-81821300D03*
X173400000Y-117800000D03*
X181330000Y-101080000D03*
X174400000Y-116160000D03*
X173400000Y-116990000D03*
X198557900Y-116587900D03*
X175250000Y-118660000D03*
D18*
X166430000Y-96320000D03*
D16*
X202180000Y-101410000D03*
X198920000Y-82110000D03*
X125650000Y-97725000D03*
X174400000Y-118660000D03*
X159461200Y-101100000D03*
D18*
X176270000Y-96350000D03*
D16*
X177770000Y-110330000D03*
X173400000Y-116160000D03*
X173400000Y-118660000D03*
%TO.N,-4V5*%
X122700000Y-91100000D03*
X133659400Y-104586400D03*
X199520000Y-116780000D03*
X178533095Y-117300000D03*
X175800000Y-77160000D03*
X199720000Y-88140000D03*
X179180000Y-81150000D03*
X136230000Y-81230000D03*
X165810000Y-102000000D03*
X157650236Y-80790000D03*
X178491441Y-109383030D03*
X135865000Y-109160000D03*
X196450000Y-76725000D03*
X199780000Y-81570000D03*
X135861200Y-116240000D03*
X196190000Y-104330000D03*
X136102515Y-88650000D03*
X166800000Y-101020000D03*
X166800000Y-100120000D03*
X156760000Y-116950000D03*
X156695964Y-109590289D03*
X154350000Y-76325000D03*
X164890000Y-101020000D03*
X153575000Y-104836400D03*
X178983278Y-88650000D03*
X157498063Y-88560000D03*
X163830000Y-100120000D03*
X164890000Y-100120000D03*
X132710000Y-76990000D03*
X199434093Y-109669971D03*
X165810000Y-101020000D03*
X166800000Y-102000000D03*
X175400000Y-104870000D03*
X165810000Y-100120000D03*
%TO.N,+1V7*%
X138140000Y-81790000D03*
X170640000Y-85420000D03*
X169800000Y-88090000D03*
X181840000Y-116220000D03*
X139300000Y-113123400D03*
X138870000Y-116212900D03*
X202860000Y-115780000D03*
X159855050Y-81405050D03*
X181375000Y-88045900D03*
X169120000Y-84210000D03*
X201639800Y-82079800D03*
X159920000Y-115920000D03*
X159620000Y-110200000D03*
X181400000Y-110250000D03*
X139375000Y-84745900D03*
X138425000Y-87695900D03*
X170640000Y-87470000D03*
X202900000Y-85055400D03*
X160336200Y-113384600D03*
X169830000Y-84830000D03*
X138590000Y-109910000D03*
X170670000Y-86500000D03*
X201950000Y-88005400D03*
X160775000Y-84720900D03*
X159825000Y-87670900D03*
X181350000Y-81680000D03*
X202400000Y-110240000D03*
X170640000Y-84190000D03*
X181761200Y-113334600D03*
X169060000Y-87440000D03*
X202619291Y-113289172D03*
X182325000Y-85095900D03*
%TO.N,/Vb2*%
X178550000Y-100890000D03*
X125306350Y-101850000D03*
X156660000Y-100860000D03*
X135530000Y-100601000D03*
X199420000Y-101160000D03*
%TO.N,/Vb1*%
X125790000Y-76370000D03*
X160775000Y-76900000D03*
X182350000Y-77125000D03*
X139780000Y-77060000D03*
X202020000Y-77210000D03*
D18*
%TO.N,Net-(U4-INB+)*%
X197040100Y-85783300D03*
D16*
X193700000Y-76900000D03*
D18*
%TO.N,Net-(U4-INA+)*%
X197140100Y-84503303D03*
D16*
X208200000Y-75100000D03*
%TO.N,Net-(JP5-B)*%
X189265000Y-76650000D03*
%TO.N,Net-(JP8-B)*%
X169740000Y-76580000D03*
%TO.N,Net-(JP10-B)*%
X167925000Y-76449500D03*
%TO.N,Net-(JP13-B)*%
X148323300Y-76641000D03*
%TO.N,Net-(JP15-B)*%
X146425000Y-76539500D03*
%TO.N,Net-(JP18-B)*%
X124260000Y-84960000D03*
%TO.N,Net-(JP20-B)*%
X145620000Y-104280000D03*
%TO.N,Net-(JP23-B)*%
X127810000Y-103080000D03*
%TO.N,Net-(JP25-B)*%
X166910000Y-104540000D03*
%TO.N,Net-(JP28-B)*%
X147520000Y-104580000D03*
%TO.N,Net-(JP30-B)*%
X188630000Y-104510000D03*
%TO.N,Net-(JP33-B)*%
X169230000Y-104530000D03*
%TO.N,Net-(JP35-B)*%
X207230000Y-103230000D03*
%TO.N,Net-(JP38-B)*%
X190260000Y-104558100D03*
%TO.N,/VOUT1*%
X185980000Y-80360000D03*
D18*
X176210000Y-87870000D03*
%TO.N,Net-(IC6-VREF)*%
X182280000Y-96600000D03*
X166430000Y-94580000D03*
D16*
X132713850Y-90045000D03*
D18*
%TO.N,/CH0/SCL*%
X176781985Y-97001985D03*
X153840000Y-96970000D03*
X160499178Y-95830821D03*
%TO.N,/CH0/SDA*%
X155900000Y-95240000D03*
X167350000Y-95740000D03*
%TO.N,/CH0/A0*%
X160485000Y-96530822D03*
D16*
%TO.N,/VOUT4*%
X129860000Y-82210000D03*
D18*
X147310000Y-85960000D03*
%TO.N,/CH0/A1*%
X160480000Y-97250000D03*
D16*
%TO.N,/IN 0*%
X103500000Y-76500000D03*
X189310000Y-73530000D03*
D18*
X122180000Y-94290000D03*
D16*
%TO.N,/~{OUT6}*%
X209500000Y-94675000D03*
D18*
X140230000Y-86320000D03*
D16*
%TO.N,/QB_CH0*%
X209500000Y-78650000D03*
D18*
X203320000Y-85805400D03*
%TO.N,/~{OUT3}*%
X161520000Y-83330000D03*
D16*
X209500000Y-86175000D03*
D18*
%TO.N,/OUT9*%
X160463700Y-112609200D03*
D16*
X209500000Y-102275000D03*
D18*
%TO.N,/~{OUT7}*%
X139937750Y-111657750D03*
D16*
X209500000Y-96512500D03*
%TO.N,/~{OUT5}*%
X209500000Y-91387500D03*
D18*
X140227500Y-83405500D03*
D16*
%TO.N,/~{OUT13}*%
X209500000Y-111625000D03*
D18*
X203552450Y-111970850D03*
%TO.N,/OUT11*%
X182282450Y-112570850D03*
D16*
X209500000Y-107400000D03*
D18*
%TO.N,/OUT4*%
X161171250Y-85451750D03*
D16*
X209500000Y-88750000D03*
D18*
%TO.N,/OUT12*%
X182040000Y-114056700D03*
D16*
X209500000Y-109000000D03*
%TO.N,/~{OUT8}*%
X209500000Y-99750000D03*
D18*
X139832500Y-114520000D03*
D16*
%TO.N,/OUT14*%
X209500000Y-114100000D03*
D18*
X203290000Y-113856590D03*
D16*
%TO.N,/OUT1*%
X209634620Y-82190650D03*
D18*
X182821250Y-84311750D03*
D16*
%TO.N,/OUT5*%
X209500000Y-92398492D03*
D18*
X139877500Y-83990500D03*
%TO.N,/~{OUT4}*%
X161540000Y-86130000D03*
D16*
X209500000Y-89725000D03*
%TO.N,/OUT3*%
X209500000Y-87025000D03*
D18*
X161191250Y-83961750D03*
%TO.N,/~{OUT14}*%
X203594550Y-114685450D03*
D16*
X209500000Y-114950000D03*
D18*
%TO.N,/OUT13*%
X203163700Y-112743350D03*
D16*
X209500000Y-112375000D03*
D18*
%TO.N,/~{OUT9}*%
X160813700Y-111859600D03*
D16*
X209500000Y-101425000D03*
%TO.N,/OUT7*%
X209500000Y-97362500D03*
D18*
X139352450Y-112350850D03*
D16*
%TO.N,/~{OUT12}*%
X209500000Y-109850000D03*
D18*
X182662450Y-114660850D03*
D16*
%TO.N,/~{QA}_CH0*%
X209500000Y-76100000D03*
D18*
X203685050Y-83470000D03*
%TO.N,/OUT10*%
X160422450Y-114130850D03*
D16*
X209500000Y-104079997D03*
D18*
%TO.N,/~{OUT1}*%
X183429250Y-83529250D03*
D16*
X209500000Y-81175000D03*
D18*
%TO.N,/QA_CH0*%
X203163800Y-84301650D03*
D16*
X209500000Y-76950000D03*
%TO.N,/OUT2*%
X209500000Y-83675000D03*
D18*
X182801250Y-85801750D03*
%TO.N,/OUT8*%
X139332450Y-113840850D03*
D16*
X209500000Y-98800000D03*
%TO.N,/OUT6*%
X209500000Y-93825000D03*
D18*
X139857500Y-85465500D03*
%TO.N,/~{QB}_CH0*%
X203190000Y-86620000D03*
D16*
X209500000Y-79500000D03*
D18*
%TO.N,/~{OUT11}*%
X182839400Y-111829400D03*
D16*
X209500000Y-106550000D03*
D18*
%TO.N,/~{OUT10}*%
X160822450Y-114730850D03*
D16*
X209500000Y-104875000D03*
%TO.N,/~{OUT2}*%
X209500000Y-84525000D03*
D18*
X183201250Y-86401750D03*
%TO.N,/CH0/CA1*%
X176940000Y-95840000D03*
%TO.N,/CH0/CA0*%
X176940000Y-95160000D03*
%TO.N,/Signals 1-2/INA+*%
X176527500Y-84765500D03*
D16*
X109875000Y-81250000D03*
D18*
%TO.N,Net-(JP6-C)*%
X176527500Y-83865500D03*
D16*
X108875000Y-81200000D03*
%TO.N,/Signals 1-2/INB+*%
X117150000Y-81250000D03*
D18*
X176400000Y-85680000D03*
%TO.N,Net-(JP9-C)*%
X176427500Y-86385503D03*
D16*
X118075000Y-81200000D03*
%TO.N,/Signals 3-4/INA+*%
X109825000Y-86450000D03*
D18*
X154850000Y-83910000D03*
D16*
%TO.N,Net-(JP11-C)*%
X108675000Y-86475000D03*
D18*
X155050000Y-83120000D03*
%TO.N,/Signals 3-4/INB+*%
X154801000Y-85339000D03*
D16*
X117025000Y-86525000D03*
%TO.N,Net-(JP14-C)*%
X118100000Y-86525000D03*
D18*
X155170000Y-86120153D03*
D16*
%TO.N,Net-(JP16-C)*%
X108875000Y-91700000D03*
D18*
X133527500Y-83465500D03*
D16*
%TO.N,/Signals 5-6/INB+*%
X117250000Y-91775000D03*
D18*
X133527500Y-85465500D03*
%TO.N,Net-(JP19-C)*%
X132340000Y-86190000D03*
D16*
X118100000Y-91700000D03*
D18*
%TO.N,/Signals 7-8/INA+*%
X132988700Y-113034600D03*
D16*
X109725000Y-96850000D03*
D18*
%TO.N,Net-(JP21-C)*%
X133137500Y-111912500D03*
D16*
X108775000Y-96900000D03*
D18*
%TO.N,/Signals 7-8/INB+*%
X131588700Y-110334600D03*
D16*
X117050000Y-96925000D03*
%TO.N,Net-(JP24-C)*%
X118100000Y-96900000D03*
D18*
X131057053Y-110934600D03*
%TO.N,/Signals 9-10/INA+*%
X154080000Y-113120000D03*
D16*
X109700000Y-102100000D03*
%TO.N,Net-(JP26-C)*%
X108700000Y-102175000D03*
D18*
X154137500Y-112212500D03*
%TO.N,/Signals 9-10/INB+*%
X150408703Y-114134600D03*
D16*
X116900000Y-102100000D03*
%TO.N,Net-(JP29-C)*%
X117791551Y-102128449D03*
D18*
X150350000Y-115030000D03*
%TO.N,/Signals 11-12/INA+*%
X176150000Y-112560000D03*
D16*
X109675000Y-107325000D03*
%TO.N,Net-(JP31-C)*%
X108625000Y-107375000D03*
D18*
X175617500Y-112112500D03*
D16*
%TO.N,/Signals 11-12/INB+*%
X117225000Y-107275000D03*
D18*
X172375714Y-114034600D03*
D16*
%TO.N,Net-(JP34-C)*%
X118075000Y-107250000D03*
D18*
X172065400Y-114755400D03*
%TO.N,/Signals 13-14/INA+*%
X196888700Y-113334600D03*
D16*
X109725000Y-112475000D03*
%TO.N,Net-(JP36-C)*%
X108775000Y-112525000D03*
D18*
X196937500Y-112112500D03*
D16*
%TO.N,/Signals 13-14/INB+*%
X117150000Y-112525000D03*
D18*
X193820000Y-113460000D03*
%TO.N,Net-(JP39-C)*%
X193750000Y-114500000D03*
D16*
X118100000Y-112450000D03*
D18*
%TO.N,Net-(U1-VOUTA)*%
X193400000Y-80200000D03*
X182600000Y-95400000D03*
%TO.N,Net-(U1-VOUTB)*%
X181900000Y-98000000D03*
X205400000Y-80000000D03*
%TO.N,/Signals 5-6/INA+*%
X133500000Y-84150000D03*
D16*
X109750000Y-91600000D03*
D18*
%TO.N,/Power Supply/GND_out*%
X184990000Y-89880000D03*
X184300000Y-89860000D03*
X185960000Y-89880000D03*
X184300000Y-89210000D03*
X185538016Y-89381984D03*
X184990000Y-88930000D03*
X184320000Y-88530000D03*
%TO.N,/Power Supply/GND_in*%
X203220000Y-95260000D03*
X204750000Y-94420000D03*
X202470000Y-95260000D03*
X204750000Y-95260000D03*
X202470000Y-94420000D03*
X204010000Y-94420000D03*
X203220000Y-94420000D03*
X204010000Y-95260000D03*
%TO.N,/Power Supply/GND_diode*%
X206000000Y-98660000D03*
X206000000Y-97300000D03*
X205340000Y-97300000D03*
X205340000Y-98660000D03*
X205350000Y-98010000D03*
X204700000Y-97300000D03*
X206000000Y-98010000D03*
X204700000Y-98660000D03*
X204700000Y-98010000D03*
%TD*%
D19*
%TO.N,/Signals 3-4/INB+*%
X123330000Y-80220000D02*
X117025000Y-86525000D01*
X151870000Y-82400000D02*
X149451888Y-82400000D01*
X154801000Y-85331000D02*
X151870000Y-82400000D01*
X149451888Y-82400000D02*
X147271888Y-80220000D01*
X147271888Y-80220000D02*
X123330000Y-80220000D01*
X154801000Y-85339000D02*
X154801000Y-85331000D01*
D20*
%TO.N,/Power Supply/-5V*%
X176350000Y-89590000D02*
X176370000Y-89610000D01*
X169110000Y-89590000D02*
X176350000Y-89590000D01*
D19*
%TO.N,/Vb2*%
X158730000Y-102930000D02*
X156660000Y-100860000D01*
X199420000Y-101160000D02*
X198900000Y-101680000D01*
X198900000Y-101680000D02*
X179340000Y-101680000D01*
X176510000Y-102930000D02*
X158730000Y-102930000D01*
X178550000Y-100890000D02*
X176510000Y-102930000D01*
X125306350Y-101850000D02*
X134281000Y-101850000D01*
X179340000Y-101680000D02*
X178550000Y-100890000D01*
X134281000Y-101850000D02*
X135530000Y-100601000D01*
%TO.N,/Vb1*%
X138400000Y-75680000D02*
X126480000Y-75680000D01*
X160775000Y-76900000D02*
X162015000Y-75660000D01*
X162015000Y-75660000D02*
X180885000Y-75660000D01*
X141160000Y-75680000D02*
X159555000Y-75680000D01*
X159555000Y-75680000D02*
X160775000Y-76900000D01*
X126480000Y-75680000D02*
X125790000Y-76370000D01*
X202020000Y-77210000D02*
X200791800Y-75981800D01*
X139780000Y-77060000D02*
X141160000Y-75680000D01*
X183493200Y-75981800D02*
X182350000Y-77125000D01*
X180885000Y-75660000D02*
X182350000Y-77125000D01*
X139780000Y-77060000D02*
X138400000Y-75680000D01*
X200791800Y-75981800D02*
X183493200Y-75981800D01*
D21*
%TO.N,Net-(U4-INB+)*%
X193700000Y-76900000D02*
X194400000Y-77600000D01*
X194400000Y-83143200D02*
X197040100Y-85783300D01*
X194400000Y-77600000D02*
X194400000Y-83143200D01*
%TO.N,Net-(U4-INA+)*%
X208200000Y-75100000D02*
X205000000Y-75100000D01*
X205000000Y-75100000D02*
X196500000Y-83600000D01*
X196903303Y-84503303D02*
X197140100Y-84503303D01*
X196500000Y-83600000D02*
X196500000Y-84100000D01*
X196500000Y-84100000D02*
X196903303Y-84503303D01*
%TO.N,/VOUT1*%
X177580000Y-86500000D02*
X176210000Y-87870000D01*
X185980000Y-80360000D02*
X185400000Y-79780000D01*
X177580000Y-81130000D02*
X177580000Y-86500000D01*
X178930000Y-79780000D02*
X177580000Y-81130000D01*
X185400000Y-79780000D02*
X178930000Y-79780000D01*
D22*
%TO.N,Net-(IC6-VREF)*%
X147440000Y-94150000D02*
X143335000Y-90045000D01*
X164340000Y-94150000D02*
X147440000Y-94150000D01*
X182280000Y-96600000D02*
X182280000Y-95820000D01*
X182280000Y-95820000D02*
X181040000Y-94580000D01*
X181040000Y-94580000D02*
X166430000Y-94580000D01*
X166430000Y-94580000D02*
X164770000Y-94580000D01*
X143335000Y-90045000D02*
X132713850Y-90045000D01*
X164770000Y-94580000D02*
X164340000Y-94150000D01*
%TO.N,/CH0/SCL*%
X161330000Y-96661643D02*
X160499178Y-95830821D01*
X156380000Y-95540000D02*
X154950000Y-96970000D01*
X160208357Y-95540000D02*
X156380000Y-95540000D01*
X176781985Y-97001985D02*
X175713970Y-98070000D01*
X154950000Y-96970000D02*
X153840000Y-96970000D01*
X161500000Y-98070000D02*
X161330000Y-97900000D01*
X161330000Y-97900000D02*
X161330000Y-96661643D01*
X160499178Y-95830821D02*
X160208357Y-95540000D01*
X175713970Y-98070000D02*
X161500000Y-98070000D01*
%TO.N,/CH0/SDA*%
X164100000Y-94500000D02*
X156640000Y-94500000D01*
X165340000Y-95740000D02*
X164100000Y-94500000D01*
X167350000Y-95740000D02*
X165340000Y-95740000D01*
X156640000Y-94500000D02*
X155900000Y-95240000D01*
D21*
%TO.N,/VOUT4*%
X130310000Y-82660000D02*
X129860000Y-82210000D01*
X147310000Y-85960000D02*
X147260000Y-85960000D01*
X147260000Y-85960000D02*
X143960000Y-82660000D01*
X143960000Y-82660000D02*
X130310000Y-82660000D01*
D19*
%TO.N,/IN 0*%
X189310000Y-73530000D02*
X188710000Y-72930000D01*
X107070000Y-72930000D02*
X103500000Y-76500000D01*
X188710000Y-72930000D02*
X107070000Y-72930000D01*
%TO.N,/~{OUT6}*%
X140270000Y-86320000D02*
X147700000Y-93750000D01*
X147700000Y-93750000D02*
X208575000Y-93750000D01*
X140230000Y-86320000D02*
X140270000Y-86320000D01*
X208575000Y-93750000D02*
X209500000Y-94675000D01*
%TO.N,/QB_CH0*%
X203384600Y-85805400D02*
X205563800Y-83626200D01*
X209500000Y-78650000D02*
X209356030Y-78650000D01*
X205569600Y-80705400D02*
X207625000Y-78650000D01*
X205563800Y-83626200D02*
X205563800Y-80705400D01*
X203320000Y-85805400D02*
X203384600Y-85805400D01*
X205563800Y-80705400D02*
X205569600Y-80705400D01*
X207625000Y-78650000D02*
X209500000Y-78650000D01*
%TO.N,/~{OUT3}*%
X168749500Y-90600000D02*
X205075000Y-90600000D01*
X161520000Y-83330000D02*
X161520000Y-83370500D01*
X205075000Y-90600000D02*
X209500000Y-86175000D01*
X161520000Y-83370500D02*
X168749500Y-90600000D01*
%TO.N,/OUT9*%
X209500000Y-102275000D02*
X205105000Y-106670000D01*
X161030800Y-112609200D02*
X160463700Y-112609200D01*
X166970000Y-106670000D02*
X161030800Y-112609200D01*
X205105000Y-106670000D02*
X166970000Y-106670000D01*
%TO.N,/~{OUT7}*%
X209500000Y-96512500D02*
X209497500Y-96510000D01*
X150360000Y-98620000D02*
X139937750Y-109042250D01*
X139937750Y-109042250D02*
X139937750Y-111657750D01*
X202230000Y-98620000D02*
X150360000Y-98620000D01*
X204340000Y-96510000D02*
X202230000Y-98620000D01*
X209497500Y-96510000D02*
X204340000Y-96510000D01*
%TO.N,/~{OUT5}*%
X208487500Y-92400000D02*
X149222000Y-92400000D01*
X149222000Y-92400000D02*
X140227500Y-83405500D01*
X209500000Y-91387500D02*
X208487500Y-92400000D01*
%TO.N,/~{OUT13}*%
X203898300Y-111625000D02*
X209525000Y-111625000D01*
X203552450Y-111970850D02*
X203898300Y-111625000D01*
%TO.N,/OUT11*%
X182889150Y-112570850D02*
X182282450Y-112570850D01*
X186990000Y-108470000D02*
X182889150Y-112570850D01*
X209500000Y-107400000D02*
X208430000Y-108470000D01*
X208430000Y-108470000D02*
X186990000Y-108470000D01*
%TO.N,/OUT4*%
X161881750Y-85451750D02*
X161171250Y-85451750D01*
X167930000Y-91500000D02*
X161881750Y-85451750D01*
X206750000Y-91500000D02*
X167930000Y-91500000D01*
X209500000Y-88750000D02*
X206750000Y-91500000D01*
%TO.N,/OUT12*%
X209500000Y-109000000D02*
X205250508Y-109000000D01*
X205250508Y-109000000D02*
X203300508Y-110950000D01*
X203300508Y-110950000D02*
X185380000Y-110950000D01*
X185380000Y-110950000D02*
X182273300Y-114056700D01*
X182273300Y-114056700D02*
X182040000Y-114056700D01*
%TO.N,/~{OUT8}*%
X209113604Y-99750000D02*
X209500000Y-99750000D01*
X148563300Y-105770000D02*
X203093604Y-105770000D01*
X139832500Y-114520000D02*
X139832500Y-114500800D01*
X139832500Y-114500800D02*
X148563300Y-105770000D01*
X209512500Y-99687500D02*
X209326470Y-99687500D01*
X203093604Y-105770000D02*
X209113604Y-99750000D01*
%TO.N,/OUT14*%
X203290000Y-113856590D02*
X203348604Y-113797986D01*
X209197986Y-113797986D02*
X209500000Y-114100000D01*
X203348604Y-113797986D02*
X209197986Y-113797986D01*
%TO.N,/OUT1*%
X209609350Y-82190650D02*
X202550000Y-89250000D01*
X202550000Y-89250000D02*
X187770000Y-89250000D01*
X182831750Y-84311750D02*
X182821250Y-84311750D01*
X209634620Y-82190650D02*
X209609350Y-82190650D01*
X187770000Y-89250000D02*
X182831750Y-84311750D01*
%TO.N,/OUT5*%
X209048492Y-92850000D02*
X148737000Y-92850000D01*
X148737000Y-92850000D02*
X139877500Y-83990500D01*
X139877500Y-83990500D02*
X139877500Y-83975500D01*
X209500000Y-92398492D02*
X209048492Y-92850000D01*
%TO.N,/~{OUT4}*%
X167469500Y-91950000D02*
X207275000Y-91950000D01*
X161649500Y-86130000D02*
X167469500Y-91950000D01*
X207275000Y-91950000D02*
X209500000Y-89725000D01*
X161540000Y-86130000D02*
X161649500Y-86130000D01*
%TO.N,/OUT3*%
X168279500Y-91050000D02*
X161191250Y-83961750D01*
X209500000Y-87025000D02*
X205475000Y-91050000D01*
X205475000Y-91050000D02*
X168279500Y-91050000D01*
%TO.N,/~{OUT14}*%
X203884100Y-114975000D02*
X209475000Y-114975000D01*
X209475000Y-114975000D02*
X209500000Y-114950000D01*
X203594550Y-114685450D02*
X203884100Y-114975000D01*
%TO.N,/OUT13*%
X203163700Y-112743350D02*
X209131650Y-112743350D01*
X209131650Y-112743350D02*
X209500000Y-112375000D01*
%TO.N,/~{OUT9}*%
X209465000Y-101460000D02*
X208040000Y-101460000D01*
X166453300Y-106220000D02*
X160813700Y-111859600D01*
X208040000Y-101460000D02*
X203280000Y-106220000D01*
X209500000Y-101425000D02*
X209465000Y-101460000D01*
X203280000Y-106220000D02*
X166453300Y-106220000D01*
%TO.N,/OUT7*%
X153830000Y-99230000D02*
X140709150Y-112350850D01*
X140709150Y-112350850D02*
X139352450Y-112350850D01*
X209500000Y-97362500D02*
X207632500Y-99230000D01*
X207632500Y-99230000D02*
X153830000Y-99230000D01*
%TO.N,/~{OUT12}*%
X205036904Y-109850000D02*
X203486904Y-111400000D01*
X209525000Y-109850000D02*
X209501471Y-109850000D01*
X203486904Y-111400000D02*
X185923300Y-111400000D01*
X185923300Y-111400000D02*
X182662450Y-114660850D01*
X209500000Y-109850000D02*
X205036904Y-109850000D01*
%TO.N,/~{QA}_CH0*%
X203685050Y-80039950D02*
X207625000Y-76100000D01*
X203685050Y-83470000D02*
X203685050Y-80039950D01*
X207625000Y-76100000D02*
X209500000Y-76100000D01*
%TO.N,/OUT10*%
X206406471Y-107120000D02*
X167449329Y-107120000D01*
X209446474Y-104079997D02*
X206406471Y-107120000D01*
X209500000Y-104079997D02*
X209446474Y-104079997D01*
X160438479Y-114130850D02*
X160422450Y-114130850D01*
X167449329Y-107120000D02*
X160438479Y-114130850D01*
%TO.N,/~{OUT1}*%
X183429250Y-83529250D02*
X183429250Y-83999750D01*
X202030000Y-88800000D02*
X209034620Y-81795380D01*
X209034620Y-81640380D02*
X209500000Y-81175000D01*
X209034620Y-81795380D02*
X209034620Y-81640380D01*
X183429250Y-83999750D02*
X188229500Y-88800000D01*
X188229500Y-88800000D02*
X202030000Y-88800000D01*
%TO.N,/QA_CH0*%
X204263800Y-80236200D02*
X207550000Y-76950000D01*
X207550000Y-76950000D02*
X209500000Y-76950000D01*
X204263800Y-84111430D02*
X204263800Y-80236200D01*
X204073580Y-84301650D02*
X204263800Y-84111430D01*
X203163800Y-84301650D02*
X204073580Y-84301650D01*
%TO.N,/OUT2*%
X203475000Y-89700000D02*
X187400000Y-89700000D01*
X187400000Y-89700000D02*
X183501750Y-85801750D01*
X183501750Y-85801750D02*
X182801250Y-85801750D01*
X209500000Y-83675000D02*
X203475000Y-89700000D01*
%TO.N,/OUT8*%
X139332450Y-113840850D02*
X139856054Y-113840850D01*
X207640000Y-100560000D02*
X209400000Y-98800000D01*
X209400000Y-98800000D02*
X209500000Y-98800000D01*
X201950000Y-100560000D02*
X207640000Y-100560000D01*
X198880000Y-103630000D02*
X201950000Y-100560000D01*
X150066904Y-103630000D02*
X198880000Y-103630000D01*
X139856054Y-113840850D02*
X150066904Y-103630000D01*
%TO.N,/OUT6*%
X209500000Y-93825000D02*
X208975000Y-93300000D01*
X140585500Y-85465500D02*
X139857500Y-85465500D01*
X208975000Y-93300000D02*
X148420000Y-93300000D01*
X148420000Y-93300000D02*
X140585500Y-85465500D01*
%TO.N,/~{QB}_CH0*%
X207600000Y-79500000D02*
X209500000Y-79500000D01*
X203190000Y-86620000D02*
X203349200Y-86620000D01*
X206163800Y-80936200D02*
X207600000Y-79500000D01*
X206163800Y-83805400D02*
X206163800Y-80936200D01*
X203349200Y-86620000D02*
X206163800Y-83805400D01*
%TO.N,/~{OUT11}*%
X182839400Y-111829400D02*
X182839400Y-111793900D01*
X208030000Y-108020000D02*
X209500000Y-106550000D01*
X182839400Y-111793900D02*
X186613300Y-108020000D01*
X186613300Y-108020000D02*
X208030000Y-108020000D01*
%TO.N,/~{OUT10}*%
X206805000Y-107570000D02*
X167983300Y-107570000D01*
X167983300Y-107570000D02*
X160822450Y-114730850D01*
X209500000Y-104875000D02*
X206805000Y-107570000D01*
%TO.N,/~{OUT2}*%
X209500000Y-84525000D02*
X203875000Y-90150000D01*
X183342672Y-86401750D02*
X183201250Y-86401750D01*
X187090922Y-90150000D02*
X183342672Y-86401750D01*
X203875000Y-90150000D02*
X187090922Y-90150000D01*
X209475000Y-84525000D02*
X209475000Y-84575000D01*
%TO.N,/Signals 1-2/INA+*%
X113055000Y-78070000D02*
X109875000Y-81250000D01*
X169832000Y-78070000D02*
X113055000Y-78070000D01*
X176527500Y-84765500D02*
X169832000Y-78070000D01*
%TO.N,Net-(JP6-C)*%
X112435000Y-77640000D02*
X108875000Y-81200000D01*
X170302000Y-77640000D02*
X112435000Y-77640000D01*
X176527500Y-83865500D02*
X170302000Y-77640000D01*
%TO.N,/Signals 1-2/INB+*%
X169220000Y-78500000D02*
X119900000Y-78500000D01*
X119900000Y-78500000D02*
X117150000Y-81250000D01*
X176400000Y-85680000D02*
X169220000Y-78500000D01*
%TO.N,Net-(JP9-C)*%
X120345000Y-78930000D02*
X118075000Y-81200000D01*
X167013604Y-78930000D02*
X120345000Y-78930000D01*
X174469107Y-86385503D02*
X167013604Y-78930000D01*
X176427500Y-86385503D02*
X174469107Y-86385503D01*
%TO.N,/Signals 3-4/INA+*%
X109825000Y-86450000D02*
X109825000Y-86425000D01*
%TO.N,Net-(JP14-C)*%
X118100000Y-86525000D02*
X118100000Y-86500000D01*
%TO.N,Net-(JP16-C)*%
X133527500Y-83465500D02*
X127963179Y-83465500D01*
X121468679Y-89960000D02*
X110541471Y-89960000D01*
X108875000Y-91626471D02*
X108875000Y-91700000D01*
X127963179Y-83465500D02*
X121468679Y-89960000D01*
X110541471Y-89960000D02*
X108875000Y-91626471D01*
%TO.N,/Signals 5-6/INB+*%
X127235971Y-85465500D02*
X121841471Y-90860000D01*
X117250000Y-91270000D02*
X117250000Y-91775000D01*
X117660000Y-90860000D02*
X117250000Y-91270000D01*
X133527500Y-85465500D02*
X127235971Y-85465500D01*
X121841471Y-90860000D02*
X117660000Y-90860000D01*
%TO.N,Net-(JP19-C)*%
X128650000Y-86190000D02*
X123140000Y-91700000D01*
X132340000Y-86190000D02*
X128650000Y-86190000D01*
X123140000Y-91700000D02*
X118100000Y-91700000D01*
%TO.N,/Signals 7-8/INA+*%
X109725000Y-96850000D02*
X113998027Y-96850000D01*
X130182627Y-113034600D02*
X132988700Y-113034600D01*
X132988700Y-113034600D02*
X132984100Y-113030000D01*
X113998027Y-96850000D02*
X130182627Y-113034600D01*
%TO.N,Net-(JP21-C)*%
X109425000Y-96250000D02*
X108775000Y-96900000D01*
X114034423Y-96250000D02*
X109425000Y-96250000D01*
X129696923Y-111912500D02*
X114034423Y-96250000D01*
X133105000Y-111880000D02*
X133137500Y-111912500D01*
X133137500Y-111912500D02*
X129696923Y-111912500D01*
%TO.N,/Signals 7-8/INB+*%
X131588700Y-110334600D02*
X118700000Y-97445900D01*
X131588700Y-110334600D02*
X131588700Y-110308700D01*
X118308529Y-96260000D02*
X117715000Y-96260000D01*
X117715000Y-96260000D02*
X117050000Y-96925000D01*
X118700000Y-96651471D02*
X118308529Y-96260000D01*
X118700000Y-97445900D02*
X118700000Y-96651471D01*
%TO.N,Net-(JP24-C)*%
X131057053Y-110934600D02*
X131034600Y-110934600D01*
X131057053Y-110934600D02*
X118100000Y-97977547D01*
X118100000Y-97977547D02*
X118100000Y-96900000D01*
%TO.N,/Signals 9-10/INA+*%
X149890000Y-117310000D02*
X129619925Y-117310000D01*
X154107497Y-113092503D02*
X154080000Y-113120000D01*
X114409925Y-102100000D02*
X109700000Y-102100000D01*
X129619925Y-117310000D02*
X114409925Y-102100000D01*
X154080000Y-113120000D02*
X149890000Y-117310000D01*
%TO.N,Net-(JP26-C)*%
X129806321Y-116860000D02*
X114446321Y-101500000D01*
X149332185Y-116860000D02*
X129806321Y-116860000D01*
X109375000Y-101500000D02*
X108700000Y-102175000D01*
X153979685Y-112212500D02*
X149332185Y-116860000D01*
X114446321Y-101500000D02*
X109375000Y-101500000D01*
X154137500Y-112212500D02*
X153979685Y-112212500D01*
%TO.N,/Signals 9-10/INB+*%
X117901631Y-101390000D02*
X117610000Y-101390000D01*
X117610000Y-101390000D02*
X116900000Y-102100000D01*
X148460331Y-115150000D02*
X131661631Y-115150000D01*
X131661631Y-115150000D02*
X117901631Y-101390000D01*
X149475731Y-114134600D02*
X148460331Y-115150000D01*
X150408703Y-114134600D02*
X149475731Y-114134600D01*
%TO.N,Net-(JP29-C)*%
X131253102Y-115590000D02*
X149790000Y-115590000D01*
X149790000Y-115590000D02*
X150350000Y-115030000D01*
X117791551Y-102128449D02*
X131253102Y-115590000D01*
X150288700Y-114968700D02*
X150350000Y-115030000D01*
%TO.N,/Signals 11-12/INA+*%
X176110003Y-112560000D02*
X169560003Y-119110000D01*
X114459925Y-107325000D02*
X109675000Y-107325000D01*
X126244925Y-119110000D02*
X114459925Y-107325000D01*
X176150000Y-112560000D02*
X176110003Y-112560000D01*
X169560003Y-119110000D02*
X126244925Y-119110000D01*
%TO.N,Net-(JP31-C)*%
X126431321Y-118660000D02*
X114496321Y-106725000D01*
X169070000Y-118660000D02*
X126431321Y-118660000D01*
X109275000Y-106725000D02*
X108625000Y-107375000D01*
X114496321Y-106725000D02*
X109275000Y-106725000D01*
X175617500Y-112112500D02*
X169070000Y-118660000D01*
%TO.N,/Signals 11-12/INB+*%
X129433529Y-117760000D02*
X118323529Y-106650000D01*
X118323529Y-106650000D02*
X117826471Y-106650000D01*
X168216491Y-117760000D02*
X129433529Y-117760000D01*
X171941891Y-114034600D02*
X168216491Y-117760000D01*
X117225000Y-107251471D02*
X117225000Y-107275000D01*
X172375714Y-114034600D02*
X171941891Y-114034600D01*
X117826471Y-106650000D02*
X117225000Y-107251471D01*
%TO.N,Net-(JP34-C)*%
X168610800Y-118210000D02*
X129035000Y-118210000D01*
X129035000Y-118210000D02*
X118075000Y-107250000D01*
X172065400Y-114755400D02*
X168610800Y-118210000D01*
%TO.N,/Signals 13-14/INA+*%
X115375000Y-112475000D02*
X109725000Y-112475000D01*
X196888700Y-113334600D02*
X196888700Y-113341300D01*
X196888700Y-113341300D02*
X189300000Y-120930000D01*
X189300000Y-120930000D02*
X123830000Y-120930000D01*
X123830000Y-120930000D02*
X115375000Y-112475000D01*
%TO.N,Net-(JP36-C)*%
X109425000Y-111875000D02*
X108775000Y-112525000D01*
X115411396Y-111875000D02*
X109425000Y-111875000D01*
X196937500Y-112414925D02*
X188892425Y-120460000D01*
X123996396Y-120460000D02*
X115411396Y-111875000D01*
X188892425Y-120460000D02*
X123996396Y-120460000D01*
X196937500Y-112112500D02*
X196937500Y-112414925D01*
%TO.N,/Signals 13-14/INB+*%
X125846396Y-119560000D02*
X118700000Y-112413604D01*
X193820000Y-113460000D02*
X193800000Y-113460000D01*
X118700000Y-112413604D02*
X118700000Y-112201471D01*
X117825000Y-111850000D02*
X117150000Y-112525000D01*
X118348529Y-111850000D02*
X117825000Y-111850000D01*
X187700000Y-119560000D02*
X125846396Y-119560000D01*
X193800000Y-113460000D02*
X187700000Y-119560000D01*
X118700000Y-112201471D02*
X118348529Y-111850000D01*
%TO.N,Net-(JP39-C)*%
X125660000Y-120010000D02*
X118100000Y-112450000D01*
X188230000Y-120010000D02*
X125660000Y-120010000D01*
X193750000Y-114500000D02*
X193740000Y-114500000D01*
X193740000Y-114500000D02*
X188230000Y-120010000D01*
%TO.N,/Signals 5-6/INA+*%
X121655075Y-90410000D02*
X110940000Y-90410000D01*
X127915075Y-84150000D02*
X121655075Y-90410000D01*
X110940000Y-90410000D02*
X109750000Y-91600000D01*
X133500000Y-84150000D02*
X127915075Y-84150000D01*
X133500000Y-84072997D02*
X133500000Y-84150000D01*
X133507497Y-84065500D02*
X133500000Y-84072997D01*
%TO.N,/Signals 3-4/INA+*%
X121111346Y-79790000D02*
X118501346Y-82400000D01*
X118501346Y-82400000D02*
X113875000Y-82400000D01*
X147450000Y-79790000D02*
X121111346Y-79790000D01*
X152910000Y-81970000D02*
X149630000Y-81970000D01*
X154850000Y-83910000D02*
X152910000Y-81970000D01*
X149630000Y-81970000D02*
X147450000Y-79790000D01*
X113875000Y-82400000D02*
X109825000Y-86450000D01*
%TO.N,Net-(JP11-C)*%
X113250000Y-81900000D02*
X108675000Y-86475000D01*
X120834239Y-79360000D02*
X118294239Y-81900000D01*
X118294239Y-81900000D02*
X113250000Y-81900000D01*
X149940000Y-81540000D02*
X147760000Y-79360000D01*
X147760000Y-79360000D02*
X120834239Y-79360000D01*
X153470000Y-81540000D02*
X149940000Y-81540000D01*
X155050000Y-83120000D02*
X153470000Y-81540000D01*
%TO.N,Net-(JP14-C)*%
X123975000Y-80650000D02*
X118100000Y-86525000D01*
X153890000Y-85320000D02*
X147178614Y-85320000D01*
X147178614Y-85320000D02*
X142508614Y-80650000D01*
X142508614Y-80650000D02*
X123975000Y-80650000D01*
X155170000Y-86120153D02*
X154690153Y-86120153D01*
X154690153Y-86120153D02*
X153890000Y-85320000D01*
%TD*%
M02*
