M48
; DRILL file {KiCad 8.0.7} date 2025-02-17T23:40:56+0100
; FORMAT={-:-/ absolute / inch / decimal}
; #@! TF.CreationDate,2025-02-17T23:40:56+01:00
; #@! TF.GenerationSoftware,Kicad,Pcbnew,8.0.7
; #@! TF.FileFunction,Plated,1,6,PTH
FMAT,2
INCH
; #@! TA.AperFunction,Plated,PTH,ViaDrill
T1C0.0079
; #@! TA.AperFunction,Plated,PTH,ViaDrill
T2C0.0098
; #@! TA.AperFunction,Plated,PTH,ViaDrill
T3C0.0118
; #@! TA.AperFunction,Plated,PTH,ViaDrill
T4C0.0157
; #@! TA.AperFunction,Plated,PTH,ViaDrill
T5C0.0197
; #@! TA.AperFunction,Plated,PTH,ComponentDrill
T6C0.0354
; #@! TA.AperFunction,Plated,PTH,ComponentDrill
T7C0.0472
; #@! TA.AperFunction,Plated,PTH,ComponentDrill
T8C0.1181
%
G90
G05
T1
X4.8102Y-3.7122
X5.1597Y-4.3675
X5.1807Y-4.3439
X5.2102Y-3.3933
X5.2358Y-4.4502
X5.2416Y-4.406
X5.2559Y-3.313
X5.257Y-3.286
X5.257Y-3.3648
X5.4855Y-4.4819
X5.4863Y-4.4233
X5.5052Y-4.5087
X5.5062Y-3.3648
X5.507Y-3.3067
X5.5094Y-4.396
X5.5208Y-3.2837
X5.5209Y-3.3984
X5.7996Y-3.3843
X5.9193Y-4.5287
X5.9216Y-4.4935
X6.0567Y-3.8177
X6.0661Y-4.4535
X6.0684Y-4.4178
X6.0945Y-3.3598
X6.0965Y-3.3035
X6.1043Y-3.2724
X6.1091Y-3.3906
X6.1378Y-3.7496
X6.3158Y-4.4933
X6.3175Y-4.4334
X6.3181Y-3.8287
X6.3183Y-3.8004
X6.3189Y-3.7729
X6.3236Y-3.7461
X6.3312Y-4.4039
X6.3316Y-4.517
X6.3453Y-3.3642
X6.3461Y-3.3056
X6.3591Y-3.2807
X6.3598Y-3.3909
X6.552Y-3.8248
X6.5524Y-3.7236
X6.5524Y-3.7921
X6.5709Y-3.7445
X6.5886Y-3.7693
X6.5909Y-3.3004
X6.6165Y-3.2484
X6.6165Y-3.274
X6.6165Y-3.3008
X6.6169Y-3.2228
X6.6421Y-3.2224
X6.6421Y-3.2484
X6.7742Y-4.5179
X6.7864Y-4.4896
X6.9141Y-4.4139
X6.935Y-4.4315
X6.9374Y-3.4594
X6.9398Y-3.7933
X6.9449Y-3.3732
X6.946Y-3.401
X6.9499Y-3.3018
X6.9499Y-3.3372
X6.9599Y-3.819
X6.9661Y-3.7465
X6.9661Y-3.7732
X7.1614Y-3.8583
X7.1669Y-4.4904
X7.1764Y-3.8031
X7.1765Y-4.4319
X7.1795Y-3.8346
X7.189Y-3.7559
X7.1914Y-4.5142
X7.1969Y-3.378
X7.1977Y-3.3194
X7.1984Y-4.4027
X7.2126Y-3.4016
X7.2216Y-3.2886
X7.2559Y-3.5122
X7.2559Y-3.5378
X7.2567Y-3.4854
X7.2831Y-3.5012
X7.2831Y-3.5386
X7.3046Y-3.519
X7.3213Y-3.5386
X7.374Y-4.4996
X7.3744Y-4.5256
X7.4008Y-4.5256
X7.4262Y-4.5512
X7.4264Y-4.526
X7.452Y-4.5512
X7.4521Y-4.5256
X7.5933Y-4.1409
X7.6142Y-3.1575
X7.628Y-4.5079
X7.6307Y-4.4669
X7.6441Y-4.1402
X7.7515Y-4.462
X7.7534Y-4.4139
X7.7575Y-3.3773
X7.7614Y-3.3269
X7.9713Y-3.7173
X7.9713Y-3.7504
X7.9986Y-4.4387
X7.9986Y-3.319
X7.9996Y-3.4102
X8.0008Y-3.7173
X8.0008Y-3.7504
X8.0035Y-4.4825
X8.0047Y-3.3782
X8.0139Y-4.4083
X8.0155Y-4.5152
X8.0191Y-3.2862
X8.0319Y-3.7173
X8.0319Y-3.7504
X8.0591Y-3.8307
X8.0591Y-3.8587
X8.0591Y-3.8843
X8.061Y-3.7173
X8.061Y-3.7504
X8.0843Y-3.8307
X8.0843Y-3.8843
X8.0846Y-3.8587
X8.0866Y-3.1496
X8.1102Y-3.8307
X8.1102Y-3.8587
X8.1102Y-3.8843
T2
X3.5205Y-3.7236
X3.5205Y-3.7787
X3.5205Y-3.9433
X3.5205Y-3.9984
X3.9638Y-2.8736
X3.9638Y-2.9287
X4.0075Y-2.8736
X4.0075Y-2.9287
X4.0492Y-2.8736
X4.0492Y-2.9287
X4.0748Y-3.0118
X4.0925Y-2.8736
X4.0925Y-2.9287
X4.2766Y-4.2274
X4.2785Y-3.4045
X4.2795Y-4.0226
X4.2825Y-3.815
X4.2825Y-4.4301
X4.2864Y-3.1969
X4.2864Y-3.6102
X4.3179Y-4.2254
X4.3189Y-4.0197
X4.3199Y-3.813
X4.3199Y-4.4281
X4.3209Y-3.6063
X4.3238Y-3.4035
X4.3258Y-3.1988
X4.6024Y-4.0197
X4.6073Y-3.4065
X4.6083Y-3.8159
X4.6122Y-3.1988
X4.6126Y-4.4299
X4.6152Y-4.2234
X4.6161Y-3.6132
X4.6375Y-4.0208
X4.6486Y-3.1969
X4.6486Y-4.2224
X4.6496Y-3.4065
X4.6496Y-3.6102
X4.6496Y-3.815
X4.6496Y-4.4272
X4.7012Y-2.9201
X4.7012Y-2.9752
X4.7449Y-2.9201
X4.7449Y-2.9752
X4.7866Y-2.9201
X4.7866Y-2.9752
X4.8299Y-2.9201
X4.8299Y-2.9752
X4.8921Y-3.3449
X4.9333Y-4.0098
X4.952Y-3.2882
X4.9524Y-3.0067
X4.9957Y-3.2882
X5.0319Y-3.2091
X5.0319Y-4.0583
X5.0752Y-3.2091
X5.0764Y-3.4705
X5.1126Y-3.2366
X5.1201Y-3.4705
X5.1618Y-3.4705
X5.2051Y-3.4705
X5.225Y-3.5451
X5.3539Y-2.9016
X5.3976Y-2.9016
X5.5528Y-3.6677
X5.6083Y-3.748
X5.6098Y-3.9394
X5.6228Y-3.6697
X5.7331Y-4.1055
X5.7425Y-3.2256
X5.7648Y-3.0134
X5.7843Y-3.2256
X5.7862Y-2.9035
X5.7874Y-3.2795
X5.8079Y-4.1173
X5.8083Y-4.352
X5.8083Y-4.4071
X5.824Y-3.7417
X5.824Y-3.8268
X5.8276Y-3.2256
X5.8291Y-3.2795
X5.8299Y-2.9035
X5.8395Y-3.0174
X5.852Y-4.352
X5.852Y-4.4071
X5.8646Y-3.4878
X5.8689Y-3.552
X5.8717Y-2.9035
X5.8724Y-3.2795
X5.8791Y-3.7417
X5.8791Y-3.785
X5.8791Y-3.8268
X5.8862Y-3.6063
X5.8937Y-4.352
X5.8937Y-4.4071
X5.915Y-2.9035
X5.9335Y-3.7496
X5.9339Y-3.9378
X5.937Y-4.352
X5.937Y-4.4071
X6.0374Y-3.3827
X6.1193Y-3.4394
X6.1953Y-2.8996
X6.2039Y-4.0465
X6.239Y-2.8996
X6.261Y-4.1346
X6.3272Y-4.1335
X6.3661Y-3.1516
X6.3748Y-3.5335
X6.4035Y-3.1756
X6.463Y-3.5559
X6.5713Y-4.1157
X6.6112Y-3.0098
X6.6185Y-2.9059
X6.6425Y-4.4862
X6.6622Y-2.9059
X6.6626Y-4.1154
X6.6827Y-3.015
X6.6906Y-4.4862
X6.7039Y-2.9059
X6.7417Y-4.463
X6.7472Y-2.9059
X6.7772Y-3.4634
X6.824Y-3.4634
X6.8626Y-3.785
X6.9043Y-3.785
X7.0445Y-2.9067
X7.0669Y-4.0433
X7.0882Y-2.9067
X7.1669Y-3.4488
X7.2736Y-4.6409
X7.3173Y-4.6409
X7.322Y-3.1638
X7.3591Y-4.6409
X7.363Y-3.7697
X7.363Y-3.8071
X7.363Y-3.8457
X7.3902Y-3.1791
X7.4264Y-4.1146
X7.4378Y-3.1795
X7.4514Y-3.0177
X7.4531Y-2.8949
X7.4795Y-3.1795
X7.4906Y-4.1165
X7.5059Y-4.4094
X7.5059Y-4.4646
X7.5083Y-4.3075
X7.5228Y-3.1795
X7.5248Y-3.3189
X7.5457Y-3.8465
X7.5492Y-4.4094
X7.5492Y-4.4646
X7.5681Y-3.3189
X7.5709Y-4.6791
X7.5752Y-4.3075
X7.5972Y-3.8465
X7.6146Y-4.6791
X7.626Y-3.0276
X7.6343Y-4.3075
X7.6563Y-4.6791
X7.6996Y-4.6791
X7.7197Y-3.2386
X7.7331Y-3.1346
X7.8524Y-2.9177
X7.8961Y-2.9177
X8.1173Y-3.7654
X8.1181Y-3.7157
X8.1587Y-3.2177
X8.1587Y-4.0642
X8.1594Y-3.1791
X8.1673Y-4.6937
X8.1673Y-4.7488
X8.1969Y-2.9567
X8.211Y-4.6937
X8.211Y-4.7488
X8.2453Y-2.8717
X8.2453Y-2.9268
X8.2528Y-4.6937
X8.2528Y-4.7488
X8.289Y-2.8717
X8.289Y-2.9268
X8.2961Y-4.6937
X8.2961Y-4.7488
X8.3307Y-2.8717
X8.3307Y-2.9268
X8.374Y-2.8717
X8.374Y-2.9268
T3
X3.5228Y-3.1205
X3.5228Y-3.1756
X3.5248Y-2.9181
X3.5248Y-2.9732
X3.5248Y-3.5209
X3.5248Y-3.576
X3.5248Y-4.1807
X3.5248Y-4.2358
X3.5272Y-3.3209
X3.5272Y-3.376
X3.5272Y-4.4157
X3.5272Y-4.4709
X3.5315Y-4.6122
X3.5315Y-4.6673
X3.5642Y-3.7236
X3.5642Y-3.7787
X3.5642Y-3.9433
X3.5642Y-3.9984
X3.5665Y-3.1205
X3.5665Y-3.1756
X3.5685Y-2.9181
X3.5685Y-2.9732
X3.5685Y-3.5209
X3.5685Y-3.576
X3.5685Y-4.1807
X3.5685Y-4.2358
X3.5709Y-3.3209
X3.5709Y-3.376
X3.5709Y-4.4157
X3.5709Y-4.4709
X3.5752Y-4.6122
X3.5752Y-4.6673
X3.6059Y-3.7236
X3.6059Y-3.7787
X3.6059Y-3.9433
X3.6059Y-3.9984
X3.6083Y-3.1205
X3.6083Y-3.1756
X3.6102Y-2.9181
X3.6102Y-2.9732
X3.6102Y-3.5209
X3.6102Y-3.576
X3.6102Y-4.1807
X3.6102Y-4.2358
X3.6126Y-3.3209
X3.6126Y-3.376
X3.6126Y-4.4157
X3.6126Y-4.4709
X3.6169Y-4.6122
X3.6169Y-4.6673
X3.6492Y-3.7236
X3.6492Y-3.7787
X3.6492Y-3.9433
X3.6492Y-3.9984
X3.6516Y-3.1205
X3.6516Y-3.1756
X3.6535Y-2.9181
X3.6535Y-2.9732
X3.6535Y-3.5209
X3.6535Y-3.576
X3.6535Y-4.1807
X3.6535Y-4.2358
X3.6559Y-3.3209
X3.6559Y-3.376
X3.6559Y-4.4157
X3.6559Y-4.4709
X3.6602Y-4.6122
X3.6602Y-4.6673
X4.0142Y-4.6811
X4.0142Y-4.7362
X4.0579Y-4.6811
X4.0579Y-4.7362
X4.0996Y-4.6811
X4.0996Y-4.7362
X4.1429Y-4.6811
X4.1429Y-4.7362
X4.8307Y-3.5866
X4.9469Y-3.8474
X5.2248Y-3.0311
X5.2622Y-4.1176
X5.2984Y-4.337
X5.3029Y-4.5772
X5.3142Y-3.2248
X5.3249Y-3.4615
X5.3264Y-4.4161
X5.3264Y-4.4508
X5.3264Y-4.4823
X5.3358Y-3.9607
X5.3445Y-3.3004
X5.3445Y-3.335
X5.3445Y-3.3665
X5.3584Y-3.4902
X5.3594Y-4.4161
X5.3594Y-4.4508
X5.3594Y-4.4823
X5.3622Y-4.022
X5.3634Y-3.198
X5.3776Y-3.3004
X5.3776Y-3.335
X5.3776Y-3.3665
X5.3929Y-4.4161
X5.3929Y-4.4508
X5.3929Y-4.4823
X5.411Y-3.3004
X5.411Y-3.335
X5.411Y-3.3665
X5.4386Y-3.2201
X5.4492Y-3.9798
X5.4498Y-3.4526
X5.4563Y-4.3272
X5.4673Y-4.5753
X5.4843Y-4.4537
X5.4872Y-3.3365
X5.5031Y-3.0339
X5.5157Y-2.8976
X5.824Y-3.785
X6.0463Y-4.1274
X6.0543Y-3.537
X6.0547Y-3.4705
X6.0768Y-3.0049
X6.1193Y-4.3472
X6.133Y-4.5913
X6.1531Y-4.4276
X6.1531Y-4.4622
X6.1531Y-4.4937
X6.16Y-3.4659
X6.1677Y-3.9709
X6.1748Y-3.2213
X6.1862Y-3.2976
X6.1862Y-3.3323
X6.1862Y-3.3638
X6.1862Y-4.4276
X6.1862Y-4.4622
X6.1862Y-4.4937
X6.2193Y-3.2976
X6.2193Y-3.3323
X6.2193Y-3.3638
X6.2197Y-4.4276
X6.2197Y-4.4622
X6.2197Y-4.4937
X6.2528Y-3.2976
X6.2528Y-3.3323
X6.2528Y-3.3638
X6.278Y-3.9803
X6.2843Y-4.3386
X6.2923Y-3.4516
X6.2935Y-3.2049
X6.2961Y-4.5638
X6.3124Y-4.464
X6.3297Y-3.0276
X6.3297Y-3.3355
X6.3568Y-2.8976
X6.4071Y-3.7531
X6.4075Y-3.8165
X6.4079Y-3.787
X6.4378Y-3.7539
X6.4386Y-3.8169
X6.4398Y-3.7878
X6.45Y-3.9417
X6.4661Y-3.7559
X6.4709Y-3.787
X6.4709Y-3.8177
X6.4917Y-3.9417
X6.4917Y-3.9772
X6.528Y-3.9417
X6.528Y-3.9772
X6.528Y-4.0157
X6.5669Y-3.9417
X6.5669Y-3.9772
X6.5669Y-4.0157
X6.6559Y-3.4425
X6.6583Y-3.3154
X6.685Y-3.4681
X6.6862Y-3.3398
X6.7181Y-3.3146
X6.7181Y-3.363
X6.7181Y-3.4437
X6.7193Y-3.4055
X6.8268Y-4.5732
X6.8268Y-4.6059
X6.8268Y-4.6378
X6.8268Y-4.6717
X6.8661Y-4.5732
X6.8661Y-4.6059
X6.8661Y-4.6378
X6.8661Y-4.6717
X6.8996Y-4.5732
X6.8996Y-4.6059
X6.8996Y-4.6386
X6.8996Y-4.6717
X6.9055Y-4.1287
X6.9213Y-3.0378
X6.9988Y-4.3437
X7.003Y-4.5781
X7.0122Y-4.4236
X7.0122Y-4.4583
X7.0122Y-4.4898
X7.0166Y-3.4745
X7.0231Y-3.2186
X7.0295Y-3.972
X7.037Y-3.3114
X7.037Y-3.3461
X7.037Y-3.3776
X7.0453Y-4.4236
X7.0453Y-4.4583
X7.0453Y-4.4898
X7.0496Y-3.7571
X7.0496Y-3.7874
X7.0496Y-3.8173
X7.0496Y-3.8476
X7.0701Y-3.3114
X7.0701Y-3.3461
X7.0701Y-3.3776
X7.078Y-3.7575
X7.078Y-3.7866
X7.078Y-3.8169
X7.078Y-3.848
X7.0787Y-4.4236
X7.0787Y-4.4583
X7.0787Y-4.4898
X7.1035Y-3.3114
X7.1035Y-3.3461
X7.1035Y-3.3776
X7.139Y-3.9795
X7.1398Y-3.2157
X7.1407Y-3.4664
X7.1417Y-4.3406
X7.156Y-4.462
X7.1591Y-4.5756
X7.1781Y-3.3502
X7.1791Y-3.0364
X7.2094Y-2.8976
X7.5752Y-3.4031
X7.5752Y-3.452
X7.5969Y-3.4283
X7.598Y-3.4713
X7.6193Y-3.4031
X7.6193Y-3.452
X7.724Y-4.1075
X7.7343Y-3.0207
X7.8024Y-4.3343
X7.8172Y-4.5901
X7.8287Y-3.4665
X7.8315Y-3.2327
X7.8374Y-4.4272
X7.8374Y-4.4618
X7.8374Y-4.4933
X7.8449Y-3.3134
X7.8449Y-3.348
X7.8449Y-3.3795
X7.8512Y-3.9827
X7.8705Y-4.4272
X7.8705Y-4.4618
X7.8705Y-4.4933
X7.878Y-3.3134
X7.878Y-3.348
X7.878Y-3.3795
X7.9039Y-4.4272
X7.9039Y-4.4618
X7.9039Y-4.4933
X7.9114Y-3.3134
X7.9114Y-3.348
X7.9114Y-3.3795
X7.9386Y-3.2315
X7.9508Y-3.4648
X7.9535Y-3.0398
X7.9598Y-3.9925
X7.9685Y-4.3402
X7.9771Y-4.4602
X7.9866Y-4.5583
X7.9882Y-3.3486
X8.0118Y-2.9101
X8.248Y-2.9961
X8.248Y-3.0295
X8.248Y-3.0965
X8.248Y-3.1299
X8.248Y-3.1959
X8.248Y-3.2943
X8.248Y-3.3278
X8.248Y-3.3927
X8.248Y-3.4262
X8.248Y-3.4941
X8.248Y-3.5325
X8.248Y-3.5979
X8.248Y-3.6377
X8.248Y-3.6939
X8.248Y-3.7274
X8.248Y-3.7997
X8.248Y-3.8332
X8.248Y-3.8898
X8.248Y-3.9272
X8.248Y-3.9931
X8.248Y-4.0266
X8.248Y-4.0976
X8.248Y-4.1289
X8.248Y-4.1949
X8.248Y-4.2283
X8.248Y-4.2913
X8.248Y-4.3248
X8.248Y-4.3947
X8.248Y-4.4242
X8.248Y-4.4921
X8.248Y-4.5256
X8.2533Y-3.2359
T4
X5.3402Y-4.2927
X5.3476Y-4.5787
X6.1691Y-4.3146
X6.1751Y-4.5989
X6.1969Y-3.485
X6.2058Y-3.1823
X7.0295Y-4.615
X7.0307Y-4.3122
X7.0478Y-3.4925
X7.0543Y-3.1949
X7.8543Y-4.3213
X7.8551Y-4.5976
X7.863Y-3.4701
X7.8642Y-3.213
T5
X6.6579Y-3.5272
X6.9437Y-3.528
T6
X5.2862Y-3.6681
X5.2862Y-3.8681
X5.4862Y-3.6681
X5.4862Y-3.8681
T7
X3.8799Y-3.0118
X3.8799Y-3.1118
X3.8799Y-3.2118
X3.8799Y-3.3118
X3.8799Y-3.4118
X3.8799Y-3.5118
X3.8799Y-3.6118
X3.8799Y-3.7118
X3.8799Y-3.8118
X3.8799Y-3.9118
X3.8799Y-4.0118
X3.8799Y-4.1118
X3.8799Y-4.2118
X3.8799Y-4.3118
X3.8799Y-4.4118
X3.8799Y-4.5118
X3.8799Y-4.6118
X3.9799Y-3.0118
X3.9799Y-3.1118
X3.9799Y-3.2118
X3.9799Y-3.3118
X3.9799Y-3.4118
X3.9799Y-3.5118
X3.9799Y-3.6118
X3.9799Y-3.7118
X3.9799Y-3.8118
X3.9799Y-3.9118
X3.9799Y-4.0118
X3.9799Y-4.1118
X3.9799Y-4.2118
X3.9799Y-4.3118
X3.9799Y-4.4118
X3.9799Y-4.5118
X3.9799Y-4.6118
X5.3862Y-3.7681
T8
X4.4941Y-2.9764
X4.4957Y-4.648
M30
