%TF.GenerationSoftware,KiCad,Pcbnew,8.0.7*%
%TF.CreationDate,2024-12-28T14:56:54+01:00*%
%TF.ProjectId,A5256,41353235-362e-46b6-9963-61645f706362,rev?*%
%TF.SameCoordinates,Original*%
%TF.FileFunction,Legend,Bot*%
%TF.FilePolarity,Positive*%
%FSLAX46Y46*%
G04 Gerber Fmt 4.6, Leading zero omitted, Abs format (unit mm)*
G04 Created by KiCad (PCBNEW 8.0.7) date 2024-12-28 14:56:54*
%MOMM*%
%LPD*%
G01*
G04 APERTURE LIST*
%ADD10C,0.150000*%
%ADD11C,0.254000*%
%ADD12C,0.125000*%
%ADD13C,0.100000*%
%ADD14C,0.101600*%
%ADD15C,0.120000*%
%ADD16C,0.200000*%
%ADD17C,0.250000*%
%ADD18C,0.198120*%
G04 APERTURE END LIST*
D10*
X124006077Y-81969931D02*
X123434649Y-81969931D01*
X123720363Y-82969931D02*
X123720363Y-81969931D01*
X123148934Y-82065169D02*
X123101315Y-82017550D01*
X123101315Y-82017550D02*
X123006077Y-81969931D01*
X123006077Y-81969931D02*
X122767982Y-81969931D01*
X122767982Y-81969931D02*
X122672744Y-82017550D01*
X122672744Y-82017550D02*
X122625125Y-82065169D01*
X122625125Y-82065169D02*
X122577506Y-82160407D01*
X122577506Y-82160407D02*
X122577506Y-82255645D01*
X122577506Y-82255645D02*
X122625125Y-82398502D01*
X122625125Y-82398502D02*
X123196553Y-82969931D01*
X123196553Y-82969931D02*
X122577506Y-82969931D01*
X97023220Y-97129819D02*
X97023220Y-96129819D01*
X96547030Y-97129819D02*
X96547030Y-96129819D01*
X96547030Y-96129819D02*
X95975602Y-97129819D01*
X95975602Y-97129819D02*
X95975602Y-96129819D01*
X94594649Y-96558390D02*
X94689887Y-96510771D01*
X94689887Y-96510771D02*
X94737506Y-96463152D01*
X94737506Y-96463152D02*
X94785125Y-96367914D01*
X94785125Y-96367914D02*
X94785125Y-96320295D01*
X94785125Y-96320295D02*
X94737506Y-96225057D01*
X94737506Y-96225057D02*
X94689887Y-96177438D01*
X94689887Y-96177438D02*
X94594649Y-96129819D01*
X94594649Y-96129819D02*
X94404173Y-96129819D01*
X94404173Y-96129819D02*
X94308935Y-96177438D01*
X94308935Y-96177438D02*
X94261316Y-96225057D01*
X94261316Y-96225057D02*
X94213697Y-96320295D01*
X94213697Y-96320295D02*
X94213697Y-96367914D01*
X94213697Y-96367914D02*
X94261316Y-96463152D01*
X94261316Y-96463152D02*
X94308935Y-96510771D01*
X94308935Y-96510771D02*
X94404173Y-96558390D01*
X94404173Y-96558390D02*
X94594649Y-96558390D01*
X94594649Y-96558390D02*
X94689887Y-96606009D01*
X94689887Y-96606009D02*
X94737506Y-96653628D01*
X94737506Y-96653628D02*
X94785125Y-96748866D01*
X94785125Y-96748866D02*
X94785125Y-96939342D01*
X94785125Y-96939342D02*
X94737506Y-97034580D01*
X94737506Y-97034580D02*
X94689887Y-97082200D01*
X94689887Y-97082200D02*
X94594649Y-97129819D01*
X94594649Y-97129819D02*
X94404173Y-97129819D01*
X94404173Y-97129819D02*
X94308935Y-97082200D01*
X94308935Y-97082200D02*
X94261316Y-97034580D01*
X94261316Y-97034580D02*
X94213697Y-96939342D01*
X94213697Y-96939342D02*
X94213697Y-96748866D01*
X94213697Y-96748866D02*
X94261316Y-96653628D01*
X94261316Y-96653628D02*
X94308935Y-96606009D01*
X94308935Y-96606009D02*
X94404173Y-96558390D01*
X152140839Y-86294104D02*
X151664649Y-86294104D01*
X152236077Y-86579819D02*
X151902744Y-85579819D01*
X151902744Y-85579819D02*
X151569411Y-86579819D01*
X151045601Y-85579819D02*
X150950363Y-85579819D01*
X150950363Y-85579819D02*
X150855125Y-85627438D01*
X150855125Y-85627438D02*
X150807506Y-85675057D01*
X150807506Y-85675057D02*
X150759887Y-85770295D01*
X150759887Y-85770295D02*
X150712268Y-85960771D01*
X150712268Y-85960771D02*
X150712268Y-86198866D01*
X150712268Y-86198866D02*
X150759887Y-86389342D01*
X150759887Y-86389342D02*
X150807506Y-86484580D01*
X150807506Y-86484580D02*
X150855125Y-86532200D01*
X150855125Y-86532200D02*
X150950363Y-86579819D01*
X150950363Y-86579819D02*
X151045601Y-86579819D01*
X151045601Y-86579819D02*
X151140839Y-86532200D01*
X151140839Y-86532200D02*
X151188458Y-86484580D01*
X151188458Y-86484580D02*
X151236077Y-86389342D01*
X151236077Y-86389342D02*
X151283696Y-86198866D01*
X151283696Y-86198866D02*
X151283696Y-85960771D01*
X151283696Y-85960771D02*
X151236077Y-85770295D01*
X151236077Y-85770295D02*
X151188458Y-85675057D01*
X151188458Y-85675057D02*
X151140839Y-85627438D01*
X151140839Y-85627438D02*
X151045601Y-85579819D01*
X97023220Y-109849819D02*
X97023220Y-108849819D01*
X96547030Y-109849819D02*
X96547030Y-108849819D01*
X96547030Y-108849819D02*
X95975602Y-109849819D01*
X95975602Y-109849819D02*
X95975602Y-108849819D01*
X94213697Y-109849819D02*
X94785125Y-109849819D01*
X94499411Y-109849819D02*
X94499411Y-108849819D01*
X94499411Y-108849819D02*
X94594649Y-108992676D01*
X94594649Y-108992676D02*
X94689887Y-109087914D01*
X94689887Y-109087914D02*
X94785125Y-109135533D01*
X93880363Y-108849819D02*
X93261316Y-108849819D01*
X93261316Y-108849819D02*
X93594649Y-109230771D01*
X93594649Y-109230771D02*
X93451792Y-109230771D01*
X93451792Y-109230771D02*
X93356554Y-109278390D01*
X93356554Y-109278390D02*
X93308935Y-109326009D01*
X93308935Y-109326009D02*
X93261316Y-109421247D01*
X93261316Y-109421247D02*
X93261316Y-109659342D01*
X93261316Y-109659342D02*
X93308935Y-109754580D01*
X93308935Y-109754580D02*
X93356554Y-109802200D01*
X93356554Y-109802200D02*
X93451792Y-109849819D01*
X93451792Y-109849819D02*
X93737506Y-109849819D01*
X93737506Y-109849819D02*
X93832744Y-109802200D01*
X93832744Y-109802200D02*
X93880363Y-109754580D01*
X147191792Y-92694636D02*
X147239411Y-92742256D01*
X147239411Y-92742256D02*
X147382268Y-92789875D01*
X147382268Y-92789875D02*
X147477506Y-92789875D01*
X147477506Y-92789875D02*
X147620363Y-92742256D01*
X147620363Y-92742256D02*
X147715601Y-92647017D01*
X147715601Y-92647017D02*
X147763220Y-92551779D01*
X147763220Y-92551779D02*
X147810839Y-92361303D01*
X147810839Y-92361303D02*
X147810839Y-92218446D01*
X147810839Y-92218446D02*
X147763220Y-92027970D01*
X147763220Y-92027970D02*
X147715601Y-91932732D01*
X147715601Y-91932732D02*
X147620363Y-91837494D01*
X147620363Y-91837494D02*
X147477506Y-91789875D01*
X147477506Y-91789875D02*
X147382268Y-91789875D01*
X147382268Y-91789875D02*
X147239411Y-91837494D01*
X147239411Y-91837494D02*
X147191792Y-91885113D01*
X146810839Y-92504160D02*
X146334649Y-92504160D01*
X146906077Y-92789875D02*
X146572744Y-91789875D01*
X146572744Y-91789875D02*
X146239411Y-92789875D01*
X145382268Y-92789875D02*
X145953696Y-92789875D01*
X145667982Y-92789875D02*
X145667982Y-91789875D01*
X145667982Y-91789875D02*
X145763220Y-91932732D01*
X145763220Y-91932732D02*
X145858458Y-92027970D01*
X145858458Y-92027970D02*
X145953696Y-92075589D01*
X124816077Y-105410043D02*
X124244649Y-105410043D01*
X124530363Y-106410043D02*
X124530363Y-105410043D01*
X123387506Y-106410043D02*
X123958934Y-106410043D01*
X123673220Y-106410043D02*
X123673220Y-105410043D01*
X123673220Y-105410043D02*
X123768458Y-105552900D01*
X123768458Y-105552900D02*
X123863696Y-105648138D01*
X123863696Y-105648138D02*
X123958934Y-105695757D01*
X122435125Y-106410043D02*
X123006553Y-106410043D01*
X122720839Y-106410043D02*
X122720839Y-105410043D01*
X122720839Y-105410043D02*
X122816077Y-105552900D01*
X122816077Y-105552900D02*
X122911315Y-105648138D01*
X122911315Y-105648138D02*
X123006553Y-105695757D01*
X124966077Y-110570043D02*
X124394649Y-110570043D01*
X124680363Y-111570043D02*
X124680363Y-110570043D01*
X123537506Y-111570043D02*
X124108934Y-111570043D01*
X123823220Y-111570043D02*
X123823220Y-110570043D01*
X123823220Y-110570043D02*
X123918458Y-110712900D01*
X123918458Y-110712900D02*
X124013696Y-110808138D01*
X124013696Y-110808138D02*
X124108934Y-110855757D01*
X123204172Y-110570043D02*
X122585125Y-110570043D01*
X122585125Y-110570043D02*
X122918458Y-110950995D01*
X122918458Y-110950995D02*
X122775601Y-110950995D01*
X122775601Y-110950995D02*
X122680363Y-110998614D01*
X122680363Y-110998614D02*
X122632744Y-111046233D01*
X122632744Y-111046233D02*
X122585125Y-111141471D01*
X122585125Y-111141471D02*
X122585125Y-111379566D01*
X122585125Y-111379566D02*
X122632744Y-111474804D01*
X122632744Y-111474804D02*
X122680363Y-111522424D01*
X122680363Y-111522424D02*
X122775601Y-111570043D01*
X122775601Y-111570043D02*
X123061315Y-111570043D01*
X123061315Y-111570043D02*
X123156553Y-111522424D01*
X123156553Y-111522424D02*
X123204172Y-111474804D01*
X123856077Y-84519987D02*
X123284649Y-84519987D01*
X123570363Y-85519987D02*
X123570363Y-84519987D01*
X123046553Y-84519987D02*
X122427506Y-84519987D01*
X122427506Y-84519987D02*
X122760839Y-84900939D01*
X122760839Y-84900939D02*
X122617982Y-84900939D01*
X122617982Y-84900939D02*
X122522744Y-84948558D01*
X122522744Y-84948558D02*
X122475125Y-84996177D01*
X122475125Y-84996177D02*
X122427506Y-85091415D01*
X122427506Y-85091415D02*
X122427506Y-85329510D01*
X122427506Y-85329510D02*
X122475125Y-85424748D01*
X122475125Y-85424748D02*
X122522744Y-85472368D01*
X122522744Y-85472368D02*
X122617982Y-85519987D01*
X122617982Y-85519987D02*
X122903696Y-85519987D01*
X122903696Y-85519987D02*
X122998934Y-85472368D01*
X122998934Y-85472368D02*
X123046553Y-85424748D01*
X97023220Y-76869819D02*
X97023220Y-75869819D01*
X96547030Y-76869819D02*
X96547030Y-75869819D01*
X96547030Y-75869819D02*
X95975602Y-76869819D01*
X95975602Y-76869819D02*
X95975602Y-75869819D01*
X94547030Y-75869819D02*
X94451792Y-75869819D01*
X94451792Y-75869819D02*
X94356554Y-75917438D01*
X94356554Y-75917438D02*
X94308935Y-75965057D01*
X94308935Y-75965057D02*
X94261316Y-76060295D01*
X94261316Y-76060295D02*
X94213697Y-76250771D01*
X94213697Y-76250771D02*
X94213697Y-76488866D01*
X94213697Y-76488866D02*
X94261316Y-76679342D01*
X94261316Y-76679342D02*
X94308935Y-76774580D01*
X94308935Y-76774580D02*
X94356554Y-76822200D01*
X94356554Y-76822200D02*
X94451792Y-76869819D01*
X94451792Y-76869819D02*
X94547030Y-76869819D01*
X94547030Y-76869819D02*
X94642268Y-76822200D01*
X94642268Y-76822200D02*
X94689887Y-76774580D01*
X94689887Y-76774580D02*
X94737506Y-76679342D01*
X94737506Y-76679342D02*
X94785125Y-76488866D01*
X94785125Y-76488866D02*
X94785125Y-76250771D01*
X94785125Y-76250771D02*
X94737506Y-76060295D01*
X94737506Y-76060295D02*
X94689887Y-75965057D01*
X94689887Y-75965057D02*
X94642268Y-75917438D01*
X94642268Y-75917438D02*
X94547030Y-75869819D01*
X123996077Y-97559987D02*
X123424649Y-97559987D01*
X123710363Y-98559987D02*
X123710363Y-97559987D01*
X122948458Y-97988558D02*
X123043696Y-97940939D01*
X123043696Y-97940939D02*
X123091315Y-97893320D01*
X123091315Y-97893320D02*
X123138934Y-97798082D01*
X123138934Y-97798082D02*
X123138934Y-97750463D01*
X123138934Y-97750463D02*
X123091315Y-97655225D01*
X123091315Y-97655225D02*
X123043696Y-97607606D01*
X123043696Y-97607606D02*
X122948458Y-97559987D01*
X122948458Y-97559987D02*
X122757982Y-97559987D01*
X122757982Y-97559987D02*
X122662744Y-97607606D01*
X122662744Y-97607606D02*
X122615125Y-97655225D01*
X122615125Y-97655225D02*
X122567506Y-97750463D01*
X122567506Y-97750463D02*
X122567506Y-97798082D01*
X122567506Y-97798082D02*
X122615125Y-97893320D01*
X122615125Y-97893320D02*
X122662744Y-97940939D01*
X122662744Y-97940939D02*
X122757982Y-97988558D01*
X122757982Y-97988558D02*
X122948458Y-97988558D01*
X122948458Y-97988558D02*
X123043696Y-98036177D01*
X123043696Y-98036177D02*
X123091315Y-98083796D01*
X123091315Y-98083796D02*
X123138934Y-98179034D01*
X123138934Y-98179034D02*
X123138934Y-98369510D01*
X123138934Y-98369510D02*
X123091315Y-98464748D01*
X123091315Y-98464748D02*
X123043696Y-98512368D01*
X123043696Y-98512368D02*
X122948458Y-98559987D01*
X122948458Y-98559987D02*
X122757982Y-98559987D01*
X122757982Y-98559987D02*
X122662744Y-98512368D01*
X122662744Y-98512368D02*
X122615125Y-98464748D01*
X122615125Y-98464748D02*
X122567506Y-98369510D01*
X122567506Y-98369510D02*
X122567506Y-98179034D01*
X122567506Y-98179034D02*
X122615125Y-98083796D01*
X122615125Y-98083796D02*
X122662744Y-98036177D01*
X122662744Y-98036177D02*
X122757982Y-97988558D01*
X97023220Y-94639819D02*
X97023220Y-93639819D01*
X96547030Y-94639819D02*
X96547030Y-93639819D01*
X96547030Y-93639819D02*
X95975602Y-94639819D01*
X95975602Y-94639819D02*
X95975602Y-93639819D01*
X94832744Y-93639819D02*
X94166078Y-93639819D01*
X94166078Y-93639819D02*
X94594649Y-94639819D01*
X152070839Y-92564104D02*
X151594649Y-92564104D01*
X152166077Y-92849819D02*
X151832744Y-91849819D01*
X151832744Y-91849819D02*
X151499411Y-92849819D01*
X150642268Y-92849819D02*
X151213696Y-92849819D01*
X150927982Y-92849819D02*
X150927982Y-91849819D01*
X150927982Y-91849819D02*
X151023220Y-91992676D01*
X151023220Y-91992676D02*
X151118458Y-92087914D01*
X151118458Y-92087914D02*
X151213696Y-92135533D01*
X97023220Y-102129819D02*
X97023220Y-101129819D01*
X96547030Y-102129819D02*
X96547030Y-101129819D01*
X96547030Y-101129819D02*
X95975602Y-102129819D01*
X95975602Y-102129819D02*
X95975602Y-101129819D01*
X94213697Y-102129819D02*
X94785125Y-102129819D01*
X94499411Y-102129819D02*
X94499411Y-101129819D01*
X94499411Y-101129819D02*
X94594649Y-101272676D01*
X94594649Y-101272676D02*
X94689887Y-101367914D01*
X94689887Y-101367914D02*
X94785125Y-101415533D01*
X93594649Y-101129819D02*
X93499411Y-101129819D01*
X93499411Y-101129819D02*
X93404173Y-101177438D01*
X93404173Y-101177438D02*
X93356554Y-101225057D01*
X93356554Y-101225057D02*
X93308935Y-101320295D01*
X93308935Y-101320295D02*
X93261316Y-101510771D01*
X93261316Y-101510771D02*
X93261316Y-101748866D01*
X93261316Y-101748866D02*
X93308935Y-101939342D01*
X93308935Y-101939342D02*
X93356554Y-102034580D01*
X93356554Y-102034580D02*
X93404173Y-102082200D01*
X93404173Y-102082200D02*
X93499411Y-102129819D01*
X93499411Y-102129819D02*
X93594649Y-102129819D01*
X93594649Y-102129819D02*
X93689887Y-102082200D01*
X93689887Y-102082200D02*
X93737506Y-102034580D01*
X93737506Y-102034580D02*
X93785125Y-101939342D01*
X93785125Y-101939342D02*
X93832744Y-101748866D01*
X93832744Y-101748866D02*
X93832744Y-101510771D01*
X93832744Y-101510771D02*
X93785125Y-101320295D01*
X93785125Y-101320295D02*
X93737506Y-101225057D01*
X93737506Y-101225057D02*
X93689887Y-101177438D01*
X93689887Y-101177438D02*
X93594649Y-101129819D01*
X97023220Y-107259819D02*
X97023220Y-106259819D01*
X96547030Y-107259819D02*
X96547030Y-106259819D01*
X96547030Y-106259819D02*
X95975602Y-107259819D01*
X95975602Y-107259819D02*
X95975602Y-106259819D01*
X94213697Y-107259819D02*
X94785125Y-107259819D01*
X94499411Y-107259819D02*
X94499411Y-106259819D01*
X94499411Y-106259819D02*
X94594649Y-106402676D01*
X94594649Y-106402676D02*
X94689887Y-106497914D01*
X94689887Y-106497914D02*
X94785125Y-106545533D01*
X93832744Y-106355057D02*
X93785125Y-106307438D01*
X93785125Y-106307438D02*
X93689887Y-106259819D01*
X93689887Y-106259819D02*
X93451792Y-106259819D01*
X93451792Y-106259819D02*
X93356554Y-106307438D01*
X93356554Y-106307438D02*
X93308935Y-106355057D01*
X93308935Y-106355057D02*
X93261316Y-106450295D01*
X93261316Y-106450295D02*
X93261316Y-106545533D01*
X93261316Y-106545533D02*
X93308935Y-106688390D01*
X93308935Y-106688390D02*
X93880363Y-107259819D01*
X93880363Y-107259819D02*
X93261316Y-107259819D01*
X124036077Y-95070043D02*
X123464649Y-95070043D01*
X123750363Y-96070043D02*
X123750363Y-95070043D01*
X123226553Y-95070043D02*
X122559887Y-95070043D01*
X122559887Y-95070043D02*
X122988458Y-96070043D01*
X124016077Y-92339987D02*
X123444649Y-92339987D01*
X123730363Y-93339987D02*
X123730363Y-92339987D01*
X122682744Y-92339987D02*
X122873220Y-92339987D01*
X122873220Y-92339987D02*
X122968458Y-92387606D01*
X122968458Y-92387606D02*
X123016077Y-92435225D01*
X123016077Y-92435225D02*
X123111315Y-92578082D01*
X123111315Y-92578082D02*
X123158934Y-92768558D01*
X123158934Y-92768558D02*
X123158934Y-93149510D01*
X123158934Y-93149510D02*
X123111315Y-93244748D01*
X123111315Y-93244748D02*
X123063696Y-93292368D01*
X123063696Y-93292368D02*
X122968458Y-93339987D01*
X122968458Y-93339987D02*
X122777982Y-93339987D01*
X122777982Y-93339987D02*
X122682744Y-93292368D01*
X122682744Y-93292368D02*
X122635125Y-93244748D01*
X122635125Y-93244748D02*
X122587506Y-93149510D01*
X122587506Y-93149510D02*
X122587506Y-92911415D01*
X122587506Y-92911415D02*
X122635125Y-92816177D01*
X122635125Y-92816177D02*
X122682744Y-92768558D01*
X122682744Y-92768558D02*
X122777982Y-92720939D01*
X122777982Y-92720939D02*
X122968458Y-92720939D01*
X122968458Y-92720939D02*
X123063696Y-92768558D01*
X123063696Y-92768558D02*
X123111315Y-92816177D01*
X123111315Y-92816177D02*
X123158934Y-92911415D01*
X120056077Y-77099819D02*
X119484649Y-77099819D01*
X119770363Y-78099819D02*
X119770363Y-77099819D01*
X118960839Y-77099819D02*
X118865601Y-77099819D01*
X118865601Y-77099819D02*
X118770363Y-77147438D01*
X118770363Y-77147438D02*
X118722744Y-77195057D01*
X118722744Y-77195057D02*
X118675125Y-77290295D01*
X118675125Y-77290295D02*
X118627506Y-77480771D01*
X118627506Y-77480771D02*
X118627506Y-77718866D01*
X118627506Y-77718866D02*
X118675125Y-77909342D01*
X118675125Y-77909342D02*
X118722744Y-78004580D01*
X118722744Y-78004580D02*
X118770363Y-78052200D01*
X118770363Y-78052200D02*
X118865601Y-78099819D01*
X118865601Y-78099819D02*
X118960839Y-78099819D01*
X118960839Y-78099819D02*
X119056077Y-78052200D01*
X119056077Y-78052200D02*
X119103696Y-78004580D01*
X119103696Y-78004580D02*
X119151315Y-77909342D01*
X119151315Y-77909342D02*
X119198934Y-77718866D01*
X119198934Y-77718866D02*
X119198934Y-77480771D01*
X119198934Y-77480771D02*
X119151315Y-77290295D01*
X119151315Y-77290295D02*
X119103696Y-77195057D01*
X119103696Y-77195057D02*
X119056077Y-77147438D01*
X119056077Y-77147438D02*
X118960839Y-77099819D01*
X118198934Y-78004580D02*
X118151315Y-78052200D01*
X118151315Y-78052200D02*
X118198934Y-78099819D01*
X118198934Y-78099819D02*
X118246553Y-78052200D01*
X118246553Y-78052200D02*
X118198934Y-78004580D01*
X118198934Y-78004580D02*
X118198934Y-78099819D01*
X117389411Y-77576009D02*
X117246554Y-77623628D01*
X117246554Y-77623628D02*
X117198935Y-77671247D01*
X117198935Y-77671247D02*
X117151316Y-77766485D01*
X117151316Y-77766485D02*
X117151316Y-77909342D01*
X117151316Y-77909342D02*
X117198935Y-78004580D01*
X117198935Y-78004580D02*
X117246554Y-78052200D01*
X117246554Y-78052200D02*
X117341792Y-78099819D01*
X117341792Y-78099819D02*
X117722744Y-78099819D01*
X117722744Y-78099819D02*
X117722744Y-77099819D01*
X117722744Y-77099819D02*
X117389411Y-77099819D01*
X117389411Y-77099819D02*
X117294173Y-77147438D01*
X117294173Y-77147438D02*
X117246554Y-77195057D01*
X117246554Y-77195057D02*
X117198935Y-77290295D01*
X117198935Y-77290295D02*
X117198935Y-77385533D01*
X117198935Y-77385533D02*
X117246554Y-77480771D01*
X117246554Y-77480771D02*
X117294173Y-77528390D01*
X117294173Y-77528390D02*
X117389411Y-77576009D01*
X117389411Y-77576009D02*
X117722744Y-77576009D01*
X124846077Y-102730043D02*
X124274649Y-102730043D01*
X124560363Y-103730043D02*
X124560363Y-102730043D01*
X123417506Y-103730043D02*
X123988934Y-103730043D01*
X123703220Y-103730043D02*
X123703220Y-102730043D01*
X123703220Y-102730043D02*
X123798458Y-102872900D01*
X123798458Y-102872900D02*
X123893696Y-102968138D01*
X123893696Y-102968138D02*
X123988934Y-103015757D01*
X122798458Y-102730043D02*
X122703220Y-102730043D01*
X122703220Y-102730043D02*
X122607982Y-102777662D01*
X122607982Y-102777662D02*
X122560363Y-102825281D01*
X122560363Y-102825281D02*
X122512744Y-102920519D01*
X122512744Y-102920519D02*
X122465125Y-103110995D01*
X122465125Y-103110995D02*
X122465125Y-103349090D01*
X122465125Y-103349090D02*
X122512744Y-103539566D01*
X122512744Y-103539566D02*
X122560363Y-103634804D01*
X122560363Y-103634804D02*
X122607982Y-103682424D01*
X122607982Y-103682424D02*
X122703220Y-103730043D01*
X122703220Y-103730043D02*
X122798458Y-103730043D01*
X122798458Y-103730043D02*
X122893696Y-103682424D01*
X122893696Y-103682424D02*
X122941315Y-103634804D01*
X122941315Y-103634804D02*
X122988934Y-103539566D01*
X122988934Y-103539566D02*
X123036553Y-103349090D01*
X123036553Y-103349090D02*
X123036553Y-103110995D01*
X123036553Y-103110995D02*
X122988934Y-102920519D01*
X122988934Y-102920519D02*
X122941315Y-102825281D01*
X122941315Y-102825281D02*
X122893696Y-102777662D01*
X122893696Y-102777662D02*
X122798458Y-102730043D01*
X97023220Y-112469819D02*
X97023220Y-111469819D01*
X96547030Y-112469819D02*
X96547030Y-111469819D01*
X96547030Y-111469819D02*
X95975602Y-112469819D01*
X95975602Y-112469819D02*
X95975602Y-111469819D01*
X94213697Y-112469819D02*
X94785125Y-112469819D01*
X94499411Y-112469819D02*
X94499411Y-111469819D01*
X94499411Y-111469819D02*
X94594649Y-111612676D01*
X94594649Y-111612676D02*
X94689887Y-111707914D01*
X94689887Y-111707914D02*
X94785125Y-111755533D01*
X93356554Y-111803152D02*
X93356554Y-112469819D01*
X93594649Y-111422200D02*
X93832744Y-112136485D01*
X93832744Y-112136485D02*
X93213697Y-112136485D01*
X127926077Y-76939931D02*
X127354649Y-76939931D01*
X127640363Y-77939931D02*
X127640363Y-76939931D01*
X126830839Y-76939931D02*
X126735601Y-76939931D01*
X126735601Y-76939931D02*
X126640363Y-76987550D01*
X126640363Y-76987550D02*
X126592744Y-77035169D01*
X126592744Y-77035169D02*
X126545125Y-77130407D01*
X126545125Y-77130407D02*
X126497506Y-77320883D01*
X126497506Y-77320883D02*
X126497506Y-77558978D01*
X126497506Y-77558978D02*
X126545125Y-77749454D01*
X126545125Y-77749454D02*
X126592744Y-77844692D01*
X126592744Y-77844692D02*
X126640363Y-77892312D01*
X126640363Y-77892312D02*
X126735601Y-77939931D01*
X126735601Y-77939931D02*
X126830839Y-77939931D01*
X126830839Y-77939931D02*
X126926077Y-77892312D01*
X126926077Y-77892312D02*
X126973696Y-77844692D01*
X126973696Y-77844692D02*
X127021315Y-77749454D01*
X127021315Y-77749454D02*
X127068934Y-77558978D01*
X127068934Y-77558978D02*
X127068934Y-77320883D01*
X127068934Y-77320883D02*
X127021315Y-77130407D01*
X127021315Y-77130407D02*
X126973696Y-77035169D01*
X126973696Y-77035169D02*
X126926077Y-76987550D01*
X126926077Y-76987550D02*
X126830839Y-76939931D01*
X126068934Y-77844692D02*
X126021315Y-77892312D01*
X126021315Y-77892312D02*
X126068934Y-77939931D01*
X126068934Y-77939931D02*
X126116553Y-77892312D01*
X126116553Y-77892312D02*
X126068934Y-77844692D01*
X126068934Y-77844692D02*
X126068934Y-77939931D01*
X125640363Y-77654216D02*
X125164173Y-77654216D01*
X125735601Y-77939931D02*
X125402268Y-76939931D01*
X125402268Y-76939931D02*
X125068935Y-77939931D01*
X123906077Y-79279931D02*
X123334649Y-79279931D01*
X123620363Y-80279931D02*
X123620363Y-79279931D01*
X122477506Y-80279931D02*
X123048934Y-80279931D01*
X122763220Y-80279931D02*
X122763220Y-79279931D01*
X122763220Y-79279931D02*
X122858458Y-79422788D01*
X122858458Y-79422788D02*
X122953696Y-79518026D01*
X122953696Y-79518026D02*
X123048934Y-79565645D01*
X123896077Y-89489987D02*
X123324649Y-89489987D01*
X123610363Y-90489987D02*
X123610363Y-89489987D01*
X122515125Y-89489987D02*
X122991315Y-89489987D01*
X122991315Y-89489987D02*
X123038934Y-89966177D01*
X123038934Y-89966177D02*
X122991315Y-89918558D01*
X122991315Y-89918558D02*
X122896077Y-89870939D01*
X122896077Y-89870939D02*
X122657982Y-89870939D01*
X122657982Y-89870939D02*
X122562744Y-89918558D01*
X122562744Y-89918558D02*
X122515125Y-89966177D01*
X122515125Y-89966177D02*
X122467506Y-90061415D01*
X122467506Y-90061415D02*
X122467506Y-90299510D01*
X122467506Y-90299510D02*
X122515125Y-90394748D01*
X122515125Y-90394748D02*
X122562744Y-90442368D01*
X122562744Y-90442368D02*
X122657982Y-90489987D01*
X122657982Y-90489987D02*
X122896077Y-90489987D01*
X122896077Y-90489987D02*
X122991315Y-90442368D01*
X122991315Y-90442368D02*
X123038934Y-90394748D01*
X97023220Y-92049819D02*
X97023220Y-91049819D01*
X96547030Y-92049819D02*
X96547030Y-91049819D01*
X96547030Y-91049819D02*
X95975602Y-92049819D01*
X95975602Y-92049819D02*
X95975602Y-91049819D01*
X94308935Y-91049819D02*
X94499411Y-91049819D01*
X94499411Y-91049819D02*
X94594649Y-91097438D01*
X94594649Y-91097438D02*
X94642268Y-91145057D01*
X94642268Y-91145057D02*
X94737506Y-91287914D01*
X94737506Y-91287914D02*
X94785125Y-91478390D01*
X94785125Y-91478390D02*
X94785125Y-91859342D01*
X94785125Y-91859342D02*
X94737506Y-91954580D01*
X94737506Y-91954580D02*
X94689887Y-92002200D01*
X94689887Y-92002200D02*
X94594649Y-92049819D01*
X94594649Y-92049819D02*
X94404173Y-92049819D01*
X94404173Y-92049819D02*
X94308935Y-92002200D01*
X94308935Y-92002200D02*
X94261316Y-91954580D01*
X94261316Y-91954580D02*
X94213697Y-91859342D01*
X94213697Y-91859342D02*
X94213697Y-91621247D01*
X94213697Y-91621247D02*
X94261316Y-91526009D01*
X94261316Y-91526009D02*
X94308935Y-91478390D01*
X94308935Y-91478390D02*
X94404173Y-91430771D01*
X94404173Y-91430771D02*
X94594649Y-91430771D01*
X94594649Y-91430771D02*
X94689887Y-91478390D01*
X94689887Y-91478390D02*
X94737506Y-91526009D01*
X94737506Y-91526009D02*
X94785125Y-91621247D01*
X147181792Y-86434580D02*
X147229411Y-86482200D01*
X147229411Y-86482200D02*
X147372268Y-86529819D01*
X147372268Y-86529819D02*
X147467506Y-86529819D01*
X147467506Y-86529819D02*
X147610363Y-86482200D01*
X147610363Y-86482200D02*
X147705601Y-86386961D01*
X147705601Y-86386961D02*
X147753220Y-86291723D01*
X147753220Y-86291723D02*
X147800839Y-86101247D01*
X147800839Y-86101247D02*
X147800839Y-85958390D01*
X147800839Y-85958390D02*
X147753220Y-85767914D01*
X147753220Y-85767914D02*
X147705601Y-85672676D01*
X147705601Y-85672676D02*
X147610363Y-85577438D01*
X147610363Y-85577438D02*
X147467506Y-85529819D01*
X147467506Y-85529819D02*
X147372268Y-85529819D01*
X147372268Y-85529819D02*
X147229411Y-85577438D01*
X147229411Y-85577438D02*
X147181792Y-85625057D01*
X146800839Y-86244104D02*
X146324649Y-86244104D01*
X146896077Y-86529819D02*
X146562744Y-85529819D01*
X146562744Y-85529819D02*
X146229411Y-86529819D01*
X145705601Y-85529819D02*
X145610363Y-85529819D01*
X145610363Y-85529819D02*
X145515125Y-85577438D01*
X145515125Y-85577438D02*
X145467506Y-85625057D01*
X145467506Y-85625057D02*
X145419887Y-85720295D01*
X145419887Y-85720295D02*
X145372268Y-85910771D01*
X145372268Y-85910771D02*
X145372268Y-86148866D01*
X145372268Y-86148866D02*
X145419887Y-86339342D01*
X145419887Y-86339342D02*
X145467506Y-86434580D01*
X145467506Y-86434580D02*
X145515125Y-86482200D01*
X145515125Y-86482200D02*
X145610363Y-86529819D01*
X145610363Y-86529819D02*
X145705601Y-86529819D01*
X145705601Y-86529819D02*
X145800839Y-86482200D01*
X145800839Y-86482200D02*
X145848458Y-86434580D01*
X145848458Y-86434580D02*
X145896077Y-86339342D01*
X145896077Y-86339342D02*
X145943696Y-86148866D01*
X145943696Y-86148866D02*
X145943696Y-85910771D01*
X145943696Y-85910771D02*
X145896077Y-85720295D01*
X145896077Y-85720295D02*
X145848458Y-85625057D01*
X145848458Y-85625057D02*
X145800839Y-85577438D01*
X145800839Y-85577438D02*
X145705601Y-85529819D01*
X97023220Y-86999819D02*
X97023220Y-85999819D01*
X96547030Y-86999819D02*
X96547030Y-85999819D01*
X96547030Y-85999819D02*
X95975602Y-86999819D01*
X95975602Y-86999819D02*
X95975602Y-85999819D01*
X94308935Y-86333152D02*
X94308935Y-86999819D01*
X94547030Y-85952200D02*
X94785125Y-86666485D01*
X94785125Y-86666485D02*
X94166078Y-86666485D01*
X97023220Y-99739819D02*
X97023220Y-98739819D01*
X96547030Y-99739819D02*
X96547030Y-98739819D01*
X96547030Y-98739819D02*
X95975602Y-99739819D01*
X95975602Y-99739819D02*
X95975602Y-98739819D01*
X94689887Y-99739819D02*
X94499411Y-99739819D01*
X94499411Y-99739819D02*
X94404173Y-99692200D01*
X94404173Y-99692200D02*
X94356554Y-99644580D01*
X94356554Y-99644580D02*
X94261316Y-99501723D01*
X94261316Y-99501723D02*
X94213697Y-99311247D01*
X94213697Y-99311247D02*
X94213697Y-98930295D01*
X94213697Y-98930295D02*
X94261316Y-98835057D01*
X94261316Y-98835057D02*
X94308935Y-98787438D01*
X94308935Y-98787438D02*
X94404173Y-98739819D01*
X94404173Y-98739819D02*
X94594649Y-98739819D01*
X94594649Y-98739819D02*
X94689887Y-98787438D01*
X94689887Y-98787438D02*
X94737506Y-98835057D01*
X94737506Y-98835057D02*
X94785125Y-98930295D01*
X94785125Y-98930295D02*
X94785125Y-99168390D01*
X94785125Y-99168390D02*
X94737506Y-99263628D01*
X94737506Y-99263628D02*
X94689887Y-99311247D01*
X94689887Y-99311247D02*
X94594649Y-99358866D01*
X94594649Y-99358866D02*
X94404173Y-99358866D01*
X94404173Y-99358866D02*
X94308935Y-99311247D01*
X94308935Y-99311247D02*
X94261316Y-99263628D01*
X94261316Y-99263628D02*
X94213697Y-99168390D01*
X97023220Y-81899819D02*
X97023220Y-80899819D01*
X96547030Y-81899819D02*
X96547030Y-80899819D01*
X96547030Y-80899819D02*
X95975602Y-81899819D01*
X95975602Y-81899819D02*
X95975602Y-80899819D01*
X94785125Y-80995057D02*
X94737506Y-80947438D01*
X94737506Y-80947438D02*
X94642268Y-80899819D01*
X94642268Y-80899819D02*
X94404173Y-80899819D01*
X94404173Y-80899819D02*
X94308935Y-80947438D01*
X94308935Y-80947438D02*
X94261316Y-80995057D01*
X94261316Y-80995057D02*
X94213697Y-81090295D01*
X94213697Y-81090295D02*
X94213697Y-81185533D01*
X94213697Y-81185533D02*
X94261316Y-81328390D01*
X94261316Y-81328390D02*
X94832744Y-81899819D01*
X94832744Y-81899819D02*
X94213697Y-81899819D01*
X124966077Y-113230043D02*
X124394649Y-113230043D01*
X124680363Y-114230043D02*
X124680363Y-113230043D01*
X123537506Y-114230043D02*
X124108934Y-114230043D01*
X123823220Y-114230043D02*
X123823220Y-113230043D01*
X123823220Y-113230043D02*
X123918458Y-113372900D01*
X123918458Y-113372900D02*
X124013696Y-113468138D01*
X124013696Y-113468138D02*
X124108934Y-113515757D01*
X122680363Y-113563376D02*
X122680363Y-114230043D01*
X122918458Y-113182424D02*
X123156553Y-113896709D01*
X123156553Y-113896709D02*
X122537506Y-113896709D01*
X97023220Y-84439819D02*
X97023220Y-83439819D01*
X96547030Y-84439819D02*
X96547030Y-83439819D01*
X96547030Y-83439819D02*
X95975602Y-84439819D01*
X95975602Y-84439819D02*
X95975602Y-83439819D01*
X94832744Y-83439819D02*
X94213697Y-83439819D01*
X94213697Y-83439819D02*
X94547030Y-83820771D01*
X94547030Y-83820771D02*
X94404173Y-83820771D01*
X94404173Y-83820771D02*
X94308935Y-83868390D01*
X94308935Y-83868390D02*
X94261316Y-83916009D01*
X94261316Y-83916009D02*
X94213697Y-84011247D01*
X94213697Y-84011247D02*
X94213697Y-84249342D01*
X94213697Y-84249342D02*
X94261316Y-84344580D01*
X94261316Y-84344580D02*
X94308935Y-84392200D01*
X94308935Y-84392200D02*
X94404173Y-84439819D01*
X94404173Y-84439819D02*
X94689887Y-84439819D01*
X94689887Y-84439819D02*
X94785125Y-84392200D01*
X94785125Y-84392200D02*
X94832744Y-84344580D01*
X97023220Y-104819819D02*
X97023220Y-103819819D01*
X96547030Y-104819819D02*
X96547030Y-103819819D01*
X96547030Y-103819819D02*
X95975602Y-104819819D01*
X95975602Y-104819819D02*
X95975602Y-103819819D01*
X94213697Y-104819819D02*
X94785125Y-104819819D01*
X94499411Y-104819819D02*
X94499411Y-103819819D01*
X94499411Y-103819819D02*
X94594649Y-103962676D01*
X94594649Y-103962676D02*
X94689887Y-104057914D01*
X94689887Y-104057914D02*
X94785125Y-104105533D01*
X93261316Y-104819819D02*
X93832744Y-104819819D01*
X93547030Y-104819819D02*
X93547030Y-103819819D01*
X93547030Y-103819819D02*
X93642268Y-103962676D01*
X93642268Y-103962676D02*
X93737506Y-104057914D01*
X93737506Y-104057914D02*
X93832744Y-104105533D01*
X123996077Y-100220043D02*
X123424649Y-100220043D01*
X123710363Y-101220043D02*
X123710363Y-100220043D01*
X123043696Y-101220043D02*
X122853220Y-101220043D01*
X122853220Y-101220043D02*
X122757982Y-101172424D01*
X122757982Y-101172424D02*
X122710363Y-101124804D01*
X122710363Y-101124804D02*
X122615125Y-100981947D01*
X122615125Y-100981947D02*
X122567506Y-100791471D01*
X122567506Y-100791471D02*
X122567506Y-100410519D01*
X122567506Y-100410519D02*
X122615125Y-100315281D01*
X122615125Y-100315281D02*
X122662744Y-100267662D01*
X122662744Y-100267662D02*
X122757982Y-100220043D01*
X122757982Y-100220043D02*
X122948458Y-100220043D01*
X122948458Y-100220043D02*
X123043696Y-100267662D01*
X123043696Y-100267662D02*
X123091315Y-100315281D01*
X123091315Y-100315281D02*
X123138934Y-100410519D01*
X123138934Y-100410519D02*
X123138934Y-100648614D01*
X123138934Y-100648614D02*
X123091315Y-100743852D01*
X123091315Y-100743852D02*
X123043696Y-100791471D01*
X123043696Y-100791471D02*
X122948458Y-100839090D01*
X122948458Y-100839090D02*
X122757982Y-100839090D01*
X122757982Y-100839090D02*
X122662744Y-100791471D01*
X122662744Y-100791471D02*
X122615125Y-100743852D01*
X122615125Y-100743852D02*
X122567506Y-100648614D01*
X97023220Y-89539819D02*
X97023220Y-88539819D01*
X96547030Y-89539819D02*
X96547030Y-88539819D01*
X96547030Y-88539819D02*
X95975602Y-89539819D01*
X95975602Y-89539819D02*
X95975602Y-88539819D01*
X94261316Y-88539819D02*
X94737506Y-88539819D01*
X94737506Y-88539819D02*
X94785125Y-89016009D01*
X94785125Y-89016009D02*
X94737506Y-88968390D01*
X94737506Y-88968390D02*
X94642268Y-88920771D01*
X94642268Y-88920771D02*
X94404173Y-88920771D01*
X94404173Y-88920771D02*
X94308935Y-88968390D01*
X94308935Y-88968390D02*
X94261316Y-89016009D01*
X94261316Y-89016009D02*
X94213697Y-89111247D01*
X94213697Y-89111247D02*
X94213697Y-89349342D01*
X94213697Y-89349342D02*
X94261316Y-89444580D01*
X94261316Y-89444580D02*
X94308935Y-89492200D01*
X94308935Y-89492200D02*
X94404173Y-89539819D01*
X94404173Y-89539819D02*
X94642268Y-89539819D01*
X94642268Y-89539819D02*
X94737506Y-89492200D01*
X94737506Y-89492200D02*
X94785125Y-89444580D01*
X97023220Y-79359819D02*
X97023220Y-78359819D01*
X96547030Y-79359819D02*
X96547030Y-78359819D01*
X96547030Y-78359819D02*
X95975602Y-79359819D01*
X95975602Y-79359819D02*
X95975602Y-78359819D01*
X94213697Y-79359819D02*
X94785125Y-79359819D01*
X94499411Y-79359819D02*
X94499411Y-78359819D01*
X94499411Y-78359819D02*
X94594649Y-78502676D01*
X94594649Y-78502676D02*
X94689887Y-78597914D01*
X94689887Y-78597914D02*
X94785125Y-78645533D01*
X124996077Y-107870043D02*
X124424649Y-107870043D01*
X124710363Y-108870043D02*
X124710363Y-107870043D01*
X123567506Y-108870043D02*
X124138934Y-108870043D01*
X123853220Y-108870043D02*
X123853220Y-107870043D01*
X123853220Y-107870043D02*
X123948458Y-108012900D01*
X123948458Y-108012900D02*
X124043696Y-108108138D01*
X124043696Y-108108138D02*
X124138934Y-108155757D01*
X123186553Y-107965281D02*
X123138934Y-107917662D01*
X123138934Y-107917662D02*
X123043696Y-107870043D01*
X123043696Y-107870043D02*
X122805601Y-107870043D01*
X122805601Y-107870043D02*
X122710363Y-107917662D01*
X122710363Y-107917662D02*
X122662744Y-107965281D01*
X122662744Y-107965281D02*
X122615125Y-108060519D01*
X122615125Y-108060519D02*
X122615125Y-108155757D01*
X122615125Y-108155757D02*
X122662744Y-108298614D01*
X122662744Y-108298614D02*
X123234172Y-108870043D01*
X123234172Y-108870043D02*
X122615125Y-108870043D01*
X123936077Y-87149987D02*
X123364649Y-87149987D01*
X123650363Y-88149987D02*
X123650363Y-87149987D01*
X122602744Y-87483320D02*
X122602744Y-88149987D01*
X122840839Y-87102368D02*
X123078934Y-87816653D01*
X123078934Y-87816653D02*
X122459887Y-87816653D01*
X165782857Y-86659580D02*
X165830476Y-86707200D01*
X165830476Y-86707200D02*
X165973333Y-86754819D01*
X165973333Y-86754819D02*
X166068571Y-86754819D01*
X166068571Y-86754819D02*
X166211428Y-86707200D01*
X166211428Y-86707200D02*
X166306666Y-86611961D01*
X166306666Y-86611961D02*
X166354285Y-86516723D01*
X166354285Y-86516723D02*
X166401904Y-86326247D01*
X166401904Y-86326247D02*
X166401904Y-86183390D01*
X166401904Y-86183390D02*
X166354285Y-85992914D01*
X166354285Y-85992914D02*
X166306666Y-85897676D01*
X166306666Y-85897676D02*
X166211428Y-85802438D01*
X166211428Y-85802438D02*
X166068571Y-85754819D01*
X166068571Y-85754819D02*
X165973333Y-85754819D01*
X165973333Y-85754819D02*
X165830476Y-85802438D01*
X165830476Y-85802438D02*
X165782857Y-85850057D01*
X164830476Y-86754819D02*
X165401904Y-86754819D01*
X165116190Y-86754819D02*
X165116190Y-85754819D01*
X165116190Y-85754819D02*
X165211428Y-85897676D01*
X165211428Y-85897676D02*
X165306666Y-85992914D01*
X165306666Y-85992914D02*
X165401904Y-86040533D01*
X163973333Y-85754819D02*
X164163809Y-85754819D01*
X164163809Y-85754819D02*
X164259047Y-85802438D01*
X164259047Y-85802438D02*
X164306666Y-85850057D01*
X164306666Y-85850057D02*
X164401904Y-85992914D01*
X164401904Y-85992914D02*
X164449523Y-86183390D01*
X164449523Y-86183390D02*
X164449523Y-86564342D01*
X164449523Y-86564342D02*
X164401904Y-86659580D01*
X164401904Y-86659580D02*
X164354285Y-86707200D01*
X164354285Y-86707200D02*
X164259047Y-86754819D01*
X164259047Y-86754819D02*
X164068571Y-86754819D01*
X164068571Y-86754819D02*
X163973333Y-86707200D01*
X163973333Y-86707200D02*
X163925714Y-86659580D01*
X163925714Y-86659580D02*
X163878095Y-86564342D01*
X163878095Y-86564342D02*
X163878095Y-86326247D01*
X163878095Y-86326247D02*
X163925714Y-86231009D01*
X163925714Y-86231009D02*
X163973333Y-86183390D01*
X163973333Y-86183390D02*
X164068571Y-86135771D01*
X164068571Y-86135771D02*
X164259047Y-86135771D01*
X164259047Y-86135771D02*
X164354285Y-86183390D01*
X164354285Y-86183390D02*
X164401904Y-86231009D01*
X164401904Y-86231009D02*
X164449523Y-86326247D01*
D11*
X145363332Y-101634318D02*
X145363332Y-102541461D01*
X145363332Y-102541461D02*
X145423809Y-102722889D01*
X145423809Y-102722889D02*
X145544761Y-102843842D01*
X145544761Y-102843842D02*
X145726190Y-102904318D01*
X145726190Y-102904318D02*
X145847142Y-102904318D01*
X144214285Y-101634318D02*
X144456190Y-101634318D01*
X144456190Y-101634318D02*
X144577142Y-101694794D01*
X144577142Y-101694794D02*
X144637618Y-101755270D01*
X144637618Y-101755270D02*
X144758571Y-101936699D01*
X144758571Y-101936699D02*
X144819047Y-102178603D01*
X144819047Y-102178603D02*
X144819047Y-102662413D01*
X144819047Y-102662413D02*
X144758571Y-102783365D01*
X144758571Y-102783365D02*
X144698094Y-102843842D01*
X144698094Y-102843842D02*
X144577142Y-102904318D01*
X144577142Y-102904318D02*
X144335237Y-102904318D01*
X144335237Y-102904318D02*
X144214285Y-102843842D01*
X144214285Y-102843842D02*
X144153809Y-102783365D01*
X144153809Y-102783365D02*
X144093332Y-102662413D01*
X144093332Y-102662413D02*
X144093332Y-102360032D01*
X144093332Y-102360032D02*
X144153809Y-102239080D01*
X144153809Y-102239080D02*
X144214285Y-102178603D01*
X144214285Y-102178603D02*
X144335237Y-102118127D01*
X144335237Y-102118127D02*
X144577142Y-102118127D01*
X144577142Y-102118127D02*
X144698094Y-102178603D01*
X144698094Y-102178603D02*
X144758571Y-102239080D01*
X144758571Y-102239080D02*
X144819047Y-102360032D01*
D10*
X105489047Y-115374819D02*
X105822380Y-114898628D01*
X106060475Y-115374819D02*
X106060475Y-114374819D01*
X106060475Y-114374819D02*
X105679523Y-114374819D01*
X105679523Y-114374819D02*
X105584285Y-114422438D01*
X105584285Y-114422438D02*
X105536666Y-114470057D01*
X105536666Y-114470057D02*
X105489047Y-114565295D01*
X105489047Y-114565295D02*
X105489047Y-114708152D01*
X105489047Y-114708152D02*
X105536666Y-114803390D01*
X105536666Y-114803390D02*
X105584285Y-114851009D01*
X105584285Y-114851009D02*
X105679523Y-114898628D01*
X105679523Y-114898628D02*
X106060475Y-114898628D01*
X104536666Y-115374819D02*
X105108094Y-115374819D01*
X104822380Y-115374819D02*
X104822380Y-114374819D01*
X104822380Y-114374819D02*
X104917618Y-114517676D01*
X104917618Y-114517676D02*
X105012856Y-114612914D01*
X105012856Y-114612914D02*
X105108094Y-114660533D01*
X104203332Y-114374819D02*
X103584285Y-114374819D01*
X103584285Y-114374819D02*
X103917618Y-114755771D01*
X103917618Y-114755771D02*
X103774761Y-114755771D01*
X103774761Y-114755771D02*
X103679523Y-114803390D01*
X103679523Y-114803390D02*
X103631904Y-114851009D01*
X103631904Y-114851009D02*
X103584285Y-114946247D01*
X103584285Y-114946247D02*
X103584285Y-115184342D01*
X103584285Y-115184342D02*
X103631904Y-115279580D01*
X103631904Y-115279580D02*
X103679523Y-115327200D01*
X103679523Y-115327200D02*
X103774761Y-115374819D01*
X103774761Y-115374819D02*
X104060475Y-115374819D01*
X104060475Y-115374819D02*
X104155713Y-115327200D01*
X104155713Y-115327200D02*
X104203332Y-115279580D01*
X102727142Y-114374819D02*
X102917618Y-114374819D01*
X102917618Y-114374819D02*
X103012856Y-114422438D01*
X103012856Y-114422438D02*
X103060475Y-114470057D01*
X103060475Y-114470057D02*
X103155713Y-114612914D01*
X103155713Y-114612914D02*
X103203332Y-114803390D01*
X103203332Y-114803390D02*
X103203332Y-115184342D01*
X103203332Y-115184342D02*
X103155713Y-115279580D01*
X103155713Y-115279580D02*
X103108094Y-115327200D01*
X103108094Y-115327200D02*
X103012856Y-115374819D01*
X103012856Y-115374819D02*
X102822380Y-115374819D01*
X102822380Y-115374819D02*
X102727142Y-115327200D01*
X102727142Y-115327200D02*
X102679523Y-115279580D01*
X102679523Y-115279580D02*
X102631904Y-115184342D01*
X102631904Y-115184342D02*
X102631904Y-114946247D01*
X102631904Y-114946247D02*
X102679523Y-114851009D01*
X102679523Y-114851009D02*
X102727142Y-114803390D01*
X102727142Y-114803390D02*
X102822380Y-114755771D01*
X102822380Y-114755771D02*
X103012856Y-114755771D01*
X103012856Y-114755771D02*
X103108094Y-114803390D01*
X103108094Y-114803390D02*
X103155713Y-114851009D01*
X103155713Y-114851009D02*
X103203332Y-114946247D01*
X194246666Y-93869580D02*
X194294285Y-93917200D01*
X194294285Y-93917200D02*
X194437142Y-93964819D01*
X194437142Y-93964819D02*
X194532380Y-93964819D01*
X194532380Y-93964819D02*
X194675237Y-93917200D01*
X194675237Y-93917200D02*
X194770475Y-93821961D01*
X194770475Y-93821961D02*
X194818094Y-93726723D01*
X194818094Y-93726723D02*
X194865713Y-93536247D01*
X194865713Y-93536247D02*
X194865713Y-93393390D01*
X194865713Y-93393390D02*
X194818094Y-93202914D01*
X194818094Y-93202914D02*
X194770475Y-93107676D01*
X194770475Y-93107676D02*
X194675237Y-93012438D01*
X194675237Y-93012438D02*
X194532380Y-92964819D01*
X194532380Y-92964819D02*
X194437142Y-92964819D01*
X194437142Y-92964819D02*
X194294285Y-93012438D01*
X194294285Y-93012438D02*
X194246666Y-93060057D01*
X193341904Y-92964819D02*
X193818094Y-92964819D01*
X193818094Y-92964819D02*
X193865713Y-93441009D01*
X193865713Y-93441009D02*
X193818094Y-93393390D01*
X193818094Y-93393390D02*
X193722856Y-93345771D01*
X193722856Y-93345771D02*
X193484761Y-93345771D01*
X193484761Y-93345771D02*
X193389523Y-93393390D01*
X193389523Y-93393390D02*
X193341904Y-93441009D01*
X193341904Y-93441009D02*
X193294285Y-93536247D01*
X193294285Y-93536247D02*
X193294285Y-93774342D01*
X193294285Y-93774342D02*
X193341904Y-93869580D01*
X193341904Y-93869580D02*
X193389523Y-93917200D01*
X193389523Y-93917200D02*
X193484761Y-93964819D01*
X193484761Y-93964819D02*
X193722856Y-93964819D01*
X193722856Y-93964819D02*
X193818094Y-93917200D01*
X193818094Y-93917200D02*
X193865713Y-93869580D01*
X105012857Y-99804819D02*
X105346190Y-99328628D01*
X105584285Y-99804819D02*
X105584285Y-98804819D01*
X105584285Y-98804819D02*
X105203333Y-98804819D01*
X105203333Y-98804819D02*
X105108095Y-98852438D01*
X105108095Y-98852438D02*
X105060476Y-98900057D01*
X105060476Y-98900057D02*
X105012857Y-98995295D01*
X105012857Y-98995295D02*
X105012857Y-99138152D01*
X105012857Y-99138152D02*
X105060476Y-99233390D01*
X105060476Y-99233390D02*
X105108095Y-99281009D01*
X105108095Y-99281009D02*
X105203333Y-99328628D01*
X105203333Y-99328628D02*
X105584285Y-99328628D01*
X104441428Y-99233390D02*
X104536666Y-99185771D01*
X104536666Y-99185771D02*
X104584285Y-99138152D01*
X104584285Y-99138152D02*
X104631904Y-99042914D01*
X104631904Y-99042914D02*
X104631904Y-98995295D01*
X104631904Y-98995295D02*
X104584285Y-98900057D01*
X104584285Y-98900057D02*
X104536666Y-98852438D01*
X104536666Y-98852438D02*
X104441428Y-98804819D01*
X104441428Y-98804819D02*
X104250952Y-98804819D01*
X104250952Y-98804819D02*
X104155714Y-98852438D01*
X104155714Y-98852438D02*
X104108095Y-98900057D01*
X104108095Y-98900057D02*
X104060476Y-98995295D01*
X104060476Y-98995295D02*
X104060476Y-99042914D01*
X104060476Y-99042914D02*
X104108095Y-99138152D01*
X104108095Y-99138152D02*
X104155714Y-99185771D01*
X104155714Y-99185771D02*
X104250952Y-99233390D01*
X104250952Y-99233390D02*
X104441428Y-99233390D01*
X104441428Y-99233390D02*
X104536666Y-99281009D01*
X104536666Y-99281009D02*
X104584285Y-99328628D01*
X104584285Y-99328628D02*
X104631904Y-99423866D01*
X104631904Y-99423866D02*
X104631904Y-99614342D01*
X104631904Y-99614342D02*
X104584285Y-99709580D01*
X104584285Y-99709580D02*
X104536666Y-99757200D01*
X104536666Y-99757200D02*
X104441428Y-99804819D01*
X104441428Y-99804819D02*
X104250952Y-99804819D01*
X104250952Y-99804819D02*
X104155714Y-99757200D01*
X104155714Y-99757200D02*
X104108095Y-99709580D01*
X104108095Y-99709580D02*
X104060476Y-99614342D01*
X104060476Y-99614342D02*
X104060476Y-99423866D01*
X104060476Y-99423866D02*
X104108095Y-99328628D01*
X104108095Y-99328628D02*
X104155714Y-99281009D01*
X104155714Y-99281009D02*
X104250952Y-99233390D01*
X103489047Y-99233390D02*
X103584285Y-99185771D01*
X103584285Y-99185771D02*
X103631904Y-99138152D01*
X103631904Y-99138152D02*
X103679523Y-99042914D01*
X103679523Y-99042914D02*
X103679523Y-98995295D01*
X103679523Y-98995295D02*
X103631904Y-98900057D01*
X103631904Y-98900057D02*
X103584285Y-98852438D01*
X103584285Y-98852438D02*
X103489047Y-98804819D01*
X103489047Y-98804819D02*
X103298571Y-98804819D01*
X103298571Y-98804819D02*
X103203333Y-98852438D01*
X103203333Y-98852438D02*
X103155714Y-98900057D01*
X103155714Y-98900057D02*
X103108095Y-98995295D01*
X103108095Y-98995295D02*
X103108095Y-99042914D01*
X103108095Y-99042914D02*
X103155714Y-99138152D01*
X103155714Y-99138152D02*
X103203333Y-99185771D01*
X103203333Y-99185771D02*
X103298571Y-99233390D01*
X103298571Y-99233390D02*
X103489047Y-99233390D01*
X103489047Y-99233390D02*
X103584285Y-99281009D01*
X103584285Y-99281009D02*
X103631904Y-99328628D01*
X103631904Y-99328628D02*
X103679523Y-99423866D01*
X103679523Y-99423866D02*
X103679523Y-99614342D01*
X103679523Y-99614342D02*
X103631904Y-99709580D01*
X103631904Y-99709580D02*
X103584285Y-99757200D01*
X103584285Y-99757200D02*
X103489047Y-99804819D01*
X103489047Y-99804819D02*
X103298571Y-99804819D01*
X103298571Y-99804819D02*
X103203333Y-99757200D01*
X103203333Y-99757200D02*
X103155714Y-99709580D01*
X103155714Y-99709580D02*
X103108095Y-99614342D01*
X103108095Y-99614342D02*
X103108095Y-99423866D01*
X103108095Y-99423866D02*
X103155714Y-99328628D01*
X103155714Y-99328628D02*
X103203333Y-99281009D01*
X103203333Y-99281009D02*
X103298571Y-99233390D01*
X112006904Y-88333278D02*
X112006904Y-87333278D01*
X112006904Y-87333278D02*
X111625952Y-87333278D01*
X111625952Y-87333278D02*
X111530714Y-87380897D01*
X111530714Y-87380897D02*
X111483095Y-87428516D01*
X111483095Y-87428516D02*
X111435476Y-87523754D01*
X111435476Y-87523754D02*
X111435476Y-87666611D01*
X111435476Y-87666611D02*
X111483095Y-87761849D01*
X111483095Y-87761849D02*
X111530714Y-87809468D01*
X111530714Y-87809468D02*
X111625952Y-87857087D01*
X111625952Y-87857087D02*
X112006904Y-87857087D01*
X106909413Y-88326360D02*
X106909413Y-87326360D01*
X106909413Y-87326360D02*
X106337985Y-88326360D01*
X106337985Y-88326360D02*
X106337985Y-87326360D01*
X115415713Y-80407319D02*
X115415713Y-79407319D01*
X115415713Y-79407319D02*
X114844285Y-80407319D01*
X114844285Y-80407319D02*
X114844285Y-79407319D01*
X120401904Y-80374819D02*
X120401904Y-79374819D01*
X120401904Y-79374819D02*
X120020952Y-79374819D01*
X120020952Y-79374819D02*
X119925714Y-79422438D01*
X119925714Y-79422438D02*
X119878095Y-79470057D01*
X119878095Y-79470057D02*
X119830476Y-79565295D01*
X119830476Y-79565295D02*
X119830476Y-79708152D01*
X119830476Y-79708152D02*
X119878095Y-79803390D01*
X119878095Y-79803390D02*
X119925714Y-79851009D01*
X119925714Y-79851009D02*
X120020952Y-79898628D01*
X120020952Y-79898628D02*
X120401904Y-79898628D01*
X120431904Y-101324819D02*
X120431904Y-100324819D01*
X120431904Y-100324819D02*
X120050952Y-100324819D01*
X120050952Y-100324819D02*
X119955714Y-100372438D01*
X119955714Y-100372438D02*
X119908095Y-100420057D01*
X119908095Y-100420057D02*
X119860476Y-100515295D01*
X119860476Y-100515295D02*
X119860476Y-100658152D01*
X119860476Y-100658152D02*
X119908095Y-100753390D01*
X119908095Y-100753390D02*
X119955714Y-100801009D01*
X119955714Y-100801009D02*
X120050952Y-100848628D01*
X120050952Y-100848628D02*
X120431904Y-100848628D01*
X115425713Y-101274819D02*
X115425713Y-100274819D01*
X115425713Y-100274819D02*
X114854285Y-101274819D01*
X114854285Y-101274819D02*
X114854285Y-100274819D01*
D11*
X201627381Y-102244318D02*
X201627381Y-100974318D01*
X201627381Y-100974318D02*
X201325000Y-100974318D01*
X201325000Y-100974318D02*
X201143571Y-101034794D01*
X201143571Y-101034794D02*
X201022619Y-101155746D01*
X201022619Y-101155746D02*
X200962142Y-101276699D01*
X200962142Y-101276699D02*
X200901666Y-101518603D01*
X200901666Y-101518603D02*
X200901666Y-101700032D01*
X200901666Y-101700032D02*
X200962142Y-101941937D01*
X200962142Y-101941937D02*
X201022619Y-102062889D01*
X201022619Y-102062889D02*
X201143571Y-102183842D01*
X201143571Y-102183842D02*
X201325000Y-102244318D01*
X201325000Y-102244318D02*
X201627381Y-102244318D01*
X199692142Y-102244318D02*
X200417857Y-102244318D01*
X200055000Y-102244318D02*
X200055000Y-100974318D01*
X200055000Y-100974318D02*
X200175952Y-101155746D01*
X200175952Y-101155746D02*
X200296904Y-101276699D01*
X200296904Y-101276699D02*
X200417857Y-101337175D01*
D12*
X112441904Y-105306119D02*
X112441904Y-104306119D01*
X112441904Y-104306119D02*
X112203809Y-104306119D01*
X112203809Y-104306119D02*
X112060952Y-104353738D01*
X112060952Y-104353738D02*
X111965714Y-104448976D01*
X111965714Y-104448976D02*
X111918095Y-104544214D01*
X111918095Y-104544214D02*
X111870476Y-104734690D01*
X111870476Y-104734690D02*
X111870476Y-104877547D01*
X111870476Y-104877547D02*
X111918095Y-105068023D01*
X111918095Y-105068023D02*
X111965714Y-105163261D01*
X111965714Y-105163261D02*
X112060952Y-105258500D01*
X112060952Y-105258500D02*
X112203809Y-105306119D01*
X112203809Y-105306119D02*
X112441904Y-105306119D01*
X114905713Y-110098500D02*
X114762856Y-110146119D01*
X114762856Y-110146119D02*
X114524761Y-110146119D01*
X114524761Y-110146119D02*
X114429523Y-110098500D01*
X114429523Y-110098500D02*
X114381904Y-110050880D01*
X114381904Y-110050880D02*
X114334285Y-109955642D01*
X114334285Y-109955642D02*
X114334285Y-109860404D01*
X114334285Y-109860404D02*
X114381904Y-109765166D01*
X114381904Y-109765166D02*
X114429523Y-109717547D01*
X114429523Y-109717547D02*
X114524761Y-109669928D01*
X114524761Y-109669928D02*
X114715237Y-109622309D01*
X114715237Y-109622309D02*
X114810475Y-109574690D01*
X114810475Y-109574690D02*
X114858094Y-109527071D01*
X114858094Y-109527071D02*
X114905713Y-109431833D01*
X114905713Y-109431833D02*
X114905713Y-109336595D01*
X114905713Y-109336595D02*
X114858094Y-109241357D01*
X114858094Y-109241357D02*
X114810475Y-109193738D01*
X114810475Y-109193738D02*
X114715237Y-109146119D01*
X114715237Y-109146119D02*
X114477142Y-109146119D01*
X114477142Y-109146119D02*
X114334285Y-109193738D01*
D10*
X106925713Y-103970778D02*
X106925713Y-102970778D01*
X106925713Y-102970778D02*
X106354285Y-103970778D01*
X106354285Y-103970778D02*
X106354285Y-102970778D01*
X111983204Y-103970196D02*
X111983204Y-102970196D01*
X111983204Y-102970196D02*
X111602252Y-102970196D01*
X111602252Y-102970196D02*
X111507014Y-103017815D01*
X111507014Y-103017815D02*
X111459395Y-103065434D01*
X111459395Y-103065434D02*
X111411776Y-103160672D01*
X111411776Y-103160672D02*
X111411776Y-103303529D01*
X111411776Y-103303529D02*
X111459395Y-103398767D01*
X111459395Y-103398767D02*
X111507014Y-103446386D01*
X111507014Y-103446386D02*
X111602252Y-103494005D01*
X111602252Y-103494005D02*
X111983204Y-103494005D01*
X105012857Y-79464819D02*
X105346190Y-78988628D01*
X105584285Y-79464819D02*
X105584285Y-78464819D01*
X105584285Y-78464819D02*
X105203333Y-78464819D01*
X105203333Y-78464819D02*
X105108095Y-78512438D01*
X105108095Y-78512438D02*
X105060476Y-78560057D01*
X105060476Y-78560057D02*
X105012857Y-78655295D01*
X105012857Y-78655295D02*
X105012857Y-78798152D01*
X105012857Y-78798152D02*
X105060476Y-78893390D01*
X105060476Y-78893390D02*
X105108095Y-78941009D01*
X105108095Y-78941009D02*
X105203333Y-78988628D01*
X105203333Y-78988628D02*
X105584285Y-78988628D01*
X104679523Y-78464819D02*
X104060476Y-78464819D01*
X104060476Y-78464819D02*
X104393809Y-78845771D01*
X104393809Y-78845771D02*
X104250952Y-78845771D01*
X104250952Y-78845771D02*
X104155714Y-78893390D01*
X104155714Y-78893390D02*
X104108095Y-78941009D01*
X104108095Y-78941009D02*
X104060476Y-79036247D01*
X104060476Y-79036247D02*
X104060476Y-79274342D01*
X104060476Y-79274342D02*
X104108095Y-79369580D01*
X104108095Y-79369580D02*
X104155714Y-79417200D01*
X104155714Y-79417200D02*
X104250952Y-79464819D01*
X104250952Y-79464819D02*
X104536666Y-79464819D01*
X104536666Y-79464819D02*
X104631904Y-79417200D01*
X104631904Y-79417200D02*
X104679523Y-79369580D01*
X103727142Y-78464819D02*
X103108095Y-78464819D01*
X103108095Y-78464819D02*
X103441428Y-78845771D01*
X103441428Y-78845771D02*
X103298571Y-78845771D01*
X103298571Y-78845771D02*
X103203333Y-78893390D01*
X103203333Y-78893390D02*
X103155714Y-78941009D01*
X103155714Y-78941009D02*
X103108095Y-79036247D01*
X103108095Y-79036247D02*
X103108095Y-79274342D01*
X103108095Y-79274342D02*
X103155714Y-79369580D01*
X103155714Y-79369580D02*
X103203333Y-79417200D01*
X103203333Y-79417200D02*
X103298571Y-79464819D01*
X103298571Y-79464819D02*
X103584285Y-79464819D01*
X103584285Y-79464819D02*
X103679523Y-79417200D01*
X103679523Y-79417200D02*
X103727142Y-79369580D01*
X188736666Y-89484819D02*
X189069999Y-89008628D01*
X189308094Y-89484819D02*
X189308094Y-88484819D01*
X189308094Y-88484819D02*
X188927142Y-88484819D01*
X188927142Y-88484819D02*
X188831904Y-88532438D01*
X188831904Y-88532438D02*
X188784285Y-88580057D01*
X188784285Y-88580057D02*
X188736666Y-88675295D01*
X188736666Y-88675295D02*
X188736666Y-88818152D01*
X188736666Y-88818152D02*
X188784285Y-88913390D01*
X188784285Y-88913390D02*
X188831904Y-88961009D01*
X188831904Y-88961009D02*
X188927142Y-89008628D01*
X188927142Y-89008628D02*
X189308094Y-89008628D01*
X188403332Y-88484819D02*
X187736666Y-88484819D01*
X187736666Y-88484819D02*
X188165237Y-89484819D01*
X105489047Y-112710642D02*
X105822380Y-112234451D01*
X106060475Y-112710642D02*
X106060475Y-111710642D01*
X106060475Y-111710642D02*
X105679523Y-111710642D01*
X105679523Y-111710642D02*
X105584285Y-111758261D01*
X105584285Y-111758261D02*
X105536666Y-111805880D01*
X105536666Y-111805880D02*
X105489047Y-111901118D01*
X105489047Y-111901118D02*
X105489047Y-112043975D01*
X105489047Y-112043975D02*
X105536666Y-112139213D01*
X105536666Y-112139213D02*
X105584285Y-112186832D01*
X105584285Y-112186832D02*
X105679523Y-112234451D01*
X105679523Y-112234451D02*
X106060475Y-112234451D01*
X104536666Y-112710642D02*
X105108094Y-112710642D01*
X104822380Y-112710642D02*
X104822380Y-111710642D01*
X104822380Y-111710642D02*
X104917618Y-111853499D01*
X104917618Y-111853499D02*
X105012856Y-111948737D01*
X105012856Y-111948737D02*
X105108094Y-111996356D01*
X104203332Y-111710642D02*
X103584285Y-111710642D01*
X103584285Y-111710642D02*
X103917618Y-112091594D01*
X103917618Y-112091594D02*
X103774761Y-112091594D01*
X103774761Y-112091594D02*
X103679523Y-112139213D01*
X103679523Y-112139213D02*
X103631904Y-112186832D01*
X103631904Y-112186832D02*
X103584285Y-112282070D01*
X103584285Y-112282070D02*
X103584285Y-112520165D01*
X103584285Y-112520165D02*
X103631904Y-112615403D01*
X103631904Y-112615403D02*
X103679523Y-112663023D01*
X103679523Y-112663023D02*
X103774761Y-112710642D01*
X103774761Y-112710642D02*
X104060475Y-112710642D01*
X104060475Y-112710642D02*
X104155713Y-112663023D01*
X104155713Y-112663023D02*
X104203332Y-112615403D01*
X103250951Y-111710642D02*
X102584285Y-111710642D01*
X102584285Y-111710642D02*
X103012856Y-112710642D01*
X106915604Y-85742307D02*
X106915604Y-84742307D01*
X106915604Y-84742307D02*
X106534652Y-84742307D01*
X106534652Y-84742307D02*
X106439414Y-84789926D01*
X106439414Y-84789926D02*
X106391795Y-84837545D01*
X106391795Y-84837545D02*
X106344176Y-84932783D01*
X106344176Y-84932783D02*
X106344176Y-85075640D01*
X106344176Y-85075640D02*
X106391795Y-85170878D01*
X106391795Y-85170878D02*
X106439414Y-85218497D01*
X106439414Y-85218497D02*
X106534652Y-85266116D01*
X106534652Y-85266116D02*
X106915604Y-85266116D01*
X112030713Y-85749225D02*
X112030713Y-84749225D01*
X112030713Y-84749225D02*
X111459285Y-85749225D01*
X111459285Y-85749225D02*
X111459285Y-84749225D01*
X198356666Y-89034819D02*
X198689999Y-88558628D01*
X198928094Y-89034819D02*
X198928094Y-88034819D01*
X198928094Y-88034819D02*
X198547142Y-88034819D01*
X198547142Y-88034819D02*
X198451904Y-88082438D01*
X198451904Y-88082438D02*
X198404285Y-88130057D01*
X198404285Y-88130057D02*
X198356666Y-88225295D01*
X198356666Y-88225295D02*
X198356666Y-88368152D01*
X198356666Y-88368152D02*
X198404285Y-88463390D01*
X198404285Y-88463390D02*
X198451904Y-88511009D01*
X198451904Y-88511009D02*
X198547142Y-88558628D01*
X198547142Y-88558628D02*
X198928094Y-88558628D01*
X197785237Y-88463390D02*
X197880475Y-88415771D01*
X197880475Y-88415771D02*
X197928094Y-88368152D01*
X197928094Y-88368152D02*
X197975713Y-88272914D01*
X197975713Y-88272914D02*
X197975713Y-88225295D01*
X197975713Y-88225295D02*
X197928094Y-88130057D01*
X197928094Y-88130057D02*
X197880475Y-88082438D01*
X197880475Y-88082438D02*
X197785237Y-88034819D01*
X197785237Y-88034819D02*
X197594761Y-88034819D01*
X197594761Y-88034819D02*
X197499523Y-88082438D01*
X197499523Y-88082438D02*
X197451904Y-88130057D01*
X197451904Y-88130057D02*
X197404285Y-88225295D01*
X197404285Y-88225295D02*
X197404285Y-88272914D01*
X197404285Y-88272914D02*
X197451904Y-88368152D01*
X197451904Y-88368152D02*
X197499523Y-88415771D01*
X197499523Y-88415771D02*
X197594761Y-88463390D01*
X197594761Y-88463390D02*
X197785237Y-88463390D01*
X197785237Y-88463390D02*
X197880475Y-88511009D01*
X197880475Y-88511009D02*
X197928094Y-88558628D01*
X197928094Y-88558628D02*
X197975713Y-88653866D01*
X197975713Y-88653866D02*
X197975713Y-88844342D01*
X197975713Y-88844342D02*
X197928094Y-88939580D01*
X197928094Y-88939580D02*
X197880475Y-88987200D01*
X197880475Y-88987200D02*
X197785237Y-89034819D01*
X197785237Y-89034819D02*
X197594761Y-89034819D01*
X197594761Y-89034819D02*
X197499523Y-88987200D01*
X197499523Y-88987200D02*
X197451904Y-88939580D01*
X197451904Y-88939580D02*
X197404285Y-88844342D01*
X197404285Y-88844342D02*
X197404285Y-88653866D01*
X197404285Y-88653866D02*
X197451904Y-88558628D01*
X197451904Y-88558628D02*
X197499523Y-88511009D01*
X197499523Y-88511009D02*
X197594761Y-88463390D01*
X144230951Y-90643866D02*
X143469047Y-90643866D01*
X143849999Y-91024819D02*
X143849999Y-90262914D01*
D12*
X149200476Y-90515166D02*
X148819524Y-90515166D01*
D10*
X170420357Y-107637580D02*
X170467976Y-107685200D01*
X170467976Y-107685200D02*
X170610833Y-107732819D01*
X170610833Y-107732819D02*
X170706071Y-107732819D01*
X170706071Y-107732819D02*
X170848928Y-107685200D01*
X170848928Y-107685200D02*
X170944166Y-107589961D01*
X170944166Y-107589961D02*
X170991785Y-107494723D01*
X170991785Y-107494723D02*
X171039404Y-107304247D01*
X171039404Y-107304247D02*
X171039404Y-107161390D01*
X171039404Y-107161390D02*
X170991785Y-106970914D01*
X170991785Y-106970914D02*
X170944166Y-106875676D01*
X170944166Y-106875676D02*
X170848928Y-106780438D01*
X170848928Y-106780438D02*
X170706071Y-106732819D01*
X170706071Y-106732819D02*
X170610833Y-106732819D01*
X170610833Y-106732819D02*
X170467976Y-106780438D01*
X170467976Y-106780438D02*
X170420357Y-106828057D01*
X169467976Y-107732819D02*
X170039404Y-107732819D01*
X169753690Y-107732819D02*
X169753690Y-106732819D01*
X169753690Y-106732819D02*
X169848928Y-106875676D01*
X169848928Y-106875676D02*
X169944166Y-106970914D01*
X169944166Y-106970914D02*
X170039404Y-107018533D01*
X168848928Y-106732819D02*
X168753690Y-106732819D01*
X168753690Y-106732819D02*
X168658452Y-106780438D01*
X168658452Y-106780438D02*
X168610833Y-106828057D01*
X168610833Y-106828057D02*
X168563214Y-106923295D01*
X168563214Y-106923295D02*
X168515595Y-107113771D01*
X168515595Y-107113771D02*
X168515595Y-107351866D01*
X168515595Y-107351866D02*
X168563214Y-107542342D01*
X168563214Y-107542342D02*
X168610833Y-107637580D01*
X168610833Y-107637580D02*
X168658452Y-107685200D01*
X168658452Y-107685200D02*
X168753690Y-107732819D01*
X168753690Y-107732819D02*
X168848928Y-107732819D01*
X168848928Y-107732819D02*
X168944166Y-107685200D01*
X168944166Y-107685200D02*
X168991785Y-107637580D01*
X168991785Y-107637580D02*
X169039404Y-107542342D01*
X169039404Y-107542342D02*
X169087023Y-107351866D01*
X169087023Y-107351866D02*
X169087023Y-107113771D01*
X169087023Y-107113771D02*
X169039404Y-106923295D01*
X169039404Y-106923295D02*
X168991785Y-106828057D01*
X168991785Y-106828057D02*
X168944166Y-106780438D01*
X168944166Y-106780438D02*
X168848928Y-106732819D01*
X112027013Y-111788655D02*
X112027013Y-110788655D01*
X112027013Y-110788655D02*
X111455585Y-111788655D01*
X111455585Y-111788655D02*
X111455585Y-110788655D01*
X106981904Y-111794819D02*
X106981904Y-110794819D01*
X106981904Y-110794819D02*
X106600952Y-110794819D01*
X106600952Y-110794819D02*
X106505714Y-110842438D01*
X106505714Y-110842438D02*
X106458095Y-110890057D01*
X106458095Y-110890057D02*
X106410476Y-110985295D01*
X106410476Y-110985295D02*
X106410476Y-111128152D01*
X106410476Y-111128152D02*
X106458095Y-111223390D01*
X106458095Y-111223390D02*
X106505714Y-111271009D01*
X106505714Y-111271009D02*
X106600952Y-111318628D01*
X106600952Y-111318628D02*
X106981904Y-111318628D01*
X106965713Y-83114054D02*
X106965713Y-82114054D01*
X106965713Y-82114054D02*
X106394285Y-83114054D01*
X106394285Y-83114054D02*
X106394285Y-82114054D01*
X112101904Y-83114819D02*
X112101904Y-82114819D01*
X112101904Y-82114819D02*
X111720952Y-82114819D01*
X111720952Y-82114819D02*
X111625714Y-82162438D01*
X111625714Y-82162438D02*
X111578095Y-82210057D01*
X111578095Y-82210057D02*
X111530476Y-82305295D01*
X111530476Y-82305295D02*
X111530476Y-82448152D01*
X111530476Y-82448152D02*
X111578095Y-82543390D01*
X111578095Y-82543390D02*
X111625714Y-82591009D01*
X111625714Y-82591009D02*
X111720952Y-82638628D01*
X111720952Y-82638628D02*
X112101904Y-82638628D01*
X198066666Y-83759580D02*
X198114285Y-83807200D01*
X198114285Y-83807200D02*
X198257142Y-83854819D01*
X198257142Y-83854819D02*
X198352380Y-83854819D01*
X198352380Y-83854819D02*
X198495237Y-83807200D01*
X198495237Y-83807200D02*
X198590475Y-83711961D01*
X198590475Y-83711961D02*
X198638094Y-83616723D01*
X198638094Y-83616723D02*
X198685713Y-83426247D01*
X198685713Y-83426247D02*
X198685713Y-83283390D01*
X198685713Y-83283390D02*
X198638094Y-83092914D01*
X198638094Y-83092914D02*
X198590475Y-82997676D01*
X198590475Y-82997676D02*
X198495237Y-82902438D01*
X198495237Y-82902438D02*
X198352380Y-82854819D01*
X198352380Y-82854819D02*
X198257142Y-82854819D01*
X198257142Y-82854819D02*
X198114285Y-82902438D01*
X198114285Y-82902438D02*
X198066666Y-82950057D01*
X197590475Y-83854819D02*
X197399999Y-83854819D01*
X197399999Y-83854819D02*
X197304761Y-83807200D01*
X197304761Y-83807200D02*
X197257142Y-83759580D01*
X197257142Y-83759580D02*
X197161904Y-83616723D01*
X197161904Y-83616723D02*
X197114285Y-83426247D01*
X197114285Y-83426247D02*
X197114285Y-83045295D01*
X197114285Y-83045295D02*
X197161904Y-82950057D01*
X197161904Y-82950057D02*
X197209523Y-82902438D01*
X197209523Y-82902438D02*
X197304761Y-82854819D01*
X197304761Y-82854819D02*
X197495237Y-82854819D01*
X197495237Y-82854819D02*
X197590475Y-82902438D01*
X197590475Y-82902438D02*
X197638094Y-82950057D01*
X197638094Y-82950057D02*
X197685713Y-83045295D01*
X197685713Y-83045295D02*
X197685713Y-83283390D01*
X197685713Y-83283390D02*
X197638094Y-83378628D01*
X197638094Y-83378628D02*
X197590475Y-83426247D01*
X197590475Y-83426247D02*
X197495237Y-83473866D01*
X197495237Y-83473866D02*
X197304761Y-83473866D01*
X197304761Y-83473866D02*
X197209523Y-83426247D01*
X197209523Y-83426247D02*
X197161904Y-83378628D01*
X197161904Y-83378628D02*
X197114285Y-83283390D01*
X185046666Y-113209580D02*
X185094285Y-113257200D01*
X185094285Y-113257200D02*
X185237142Y-113304819D01*
X185237142Y-113304819D02*
X185332380Y-113304819D01*
X185332380Y-113304819D02*
X185475237Y-113257200D01*
X185475237Y-113257200D02*
X185570475Y-113161961D01*
X185570475Y-113161961D02*
X185618094Y-113066723D01*
X185618094Y-113066723D02*
X185665713Y-112876247D01*
X185665713Y-112876247D02*
X185665713Y-112733390D01*
X185665713Y-112733390D02*
X185618094Y-112542914D01*
X185618094Y-112542914D02*
X185570475Y-112447676D01*
X185570475Y-112447676D02*
X185475237Y-112352438D01*
X185475237Y-112352438D02*
X185332380Y-112304819D01*
X185332380Y-112304819D02*
X185237142Y-112304819D01*
X185237142Y-112304819D02*
X185094285Y-112352438D01*
X185094285Y-112352438D02*
X185046666Y-112400057D01*
X184189523Y-112304819D02*
X184379999Y-112304819D01*
X184379999Y-112304819D02*
X184475237Y-112352438D01*
X184475237Y-112352438D02*
X184522856Y-112400057D01*
X184522856Y-112400057D02*
X184618094Y-112542914D01*
X184618094Y-112542914D02*
X184665713Y-112733390D01*
X184665713Y-112733390D02*
X184665713Y-113114342D01*
X184665713Y-113114342D02*
X184618094Y-113209580D01*
X184618094Y-113209580D02*
X184570475Y-113257200D01*
X184570475Y-113257200D02*
X184475237Y-113304819D01*
X184475237Y-113304819D02*
X184284761Y-113304819D01*
X184284761Y-113304819D02*
X184189523Y-113257200D01*
X184189523Y-113257200D02*
X184141904Y-113209580D01*
X184141904Y-113209580D02*
X184094285Y-113114342D01*
X184094285Y-113114342D02*
X184094285Y-112876247D01*
X184094285Y-112876247D02*
X184141904Y-112781009D01*
X184141904Y-112781009D02*
X184189523Y-112733390D01*
X184189523Y-112733390D02*
X184284761Y-112685771D01*
X184284761Y-112685771D02*
X184475237Y-112685771D01*
X184475237Y-112685771D02*
X184570475Y-112733390D01*
X184570475Y-112733390D02*
X184618094Y-112781009D01*
X184618094Y-112781009D02*
X184665713Y-112876247D01*
X115395713Y-96074819D02*
X115395713Y-95074819D01*
X115395713Y-95074819D02*
X114824285Y-96074819D01*
X114824285Y-96074819D02*
X114824285Y-95074819D01*
X120431904Y-96044819D02*
X120431904Y-95044819D01*
X120431904Y-95044819D02*
X120050952Y-95044819D01*
X120050952Y-95044819D02*
X119955714Y-95092438D01*
X119955714Y-95092438D02*
X119908095Y-95140057D01*
X119908095Y-95140057D02*
X119860476Y-95235295D01*
X119860476Y-95235295D02*
X119860476Y-95378152D01*
X119860476Y-95378152D02*
X119908095Y-95473390D01*
X119908095Y-95473390D02*
X119955714Y-95521009D01*
X119955714Y-95521009D02*
X120050952Y-95568628D01*
X120050952Y-95568628D02*
X120431904Y-95568628D01*
X111997013Y-106576349D02*
X111997013Y-105576349D01*
X111997013Y-105576349D02*
X111425585Y-106576349D01*
X111425585Y-106576349D02*
X111425585Y-105576349D01*
X106961904Y-106694819D02*
X106961904Y-105694819D01*
X106961904Y-105694819D02*
X106580952Y-105694819D01*
X106580952Y-105694819D02*
X106485714Y-105742438D01*
X106485714Y-105742438D02*
X106438095Y-105790057D01*
X106438095Y-105790057D02*
X106390476Y-105885295D01*
X106390476Y-105885295D02*
X106390476Y-106028152D01*
X106390476Y-106028152D02*
X106438095Y-106123390D01*
X106438095Y-106123390D02*
X106485714Y-106171009D01*
X106485714Y-106171009D02*
X106580952Y-106218628D01*
X106580952Y-106218628D02*
X106961904Y-106218628D01*
X196066666Y-89089580D02*
X196114285Y-89137200D01*
X196114285Y-89137200D02*
X196257142Y-89184819D01*
X196257142Y-89184819D02*
X196352380Y-89184819D01*
X196352380Y-89184819D02*
X196495237Y-89137200D01*
X196495237Y-89137200D02*
X196590475Y-89041961D01*
X196590475Y-89041961D02*
X196638094Y-88946723D01*
X196638094Y-88946723D02*
X196685713Y-88756247D01*
X196685713Y-88756247D02*
X196685713Y-88613390D01*
X196685713Y-88613390D02*
X196638094Y-88422914D01*
X196638094Y-88422914D02*
X196590475Y-88327676D01*
X196590475Y-88327676D02*
X196495237Y-88232438D01*
X196495237Y-88232438D02*
X196352380Y-88184819D01*
X196352380Y-88184819D02*
X196257142Y-88184819D01*
X196257142Y-88184819D02*
X196114285Y-88232438D01*
X196114285Y-88232438D02*
X196066666Y-88280057D01*
X195733332Y-88184819D02*
X195066666Y-88184819D01*
X195066666Y-88184819D02*
X195495237Y-89184819D01*
X188896666Y-110574819D02*
X189229999Y-110098628D01*
X189468094Y-110574819D02*
X189468094Y-109574819D01*
X189468094Y-109574819D02*
X189087142Y-109574819D01*
X189087142Y-109574819D02*
X188991904Y-109622438D01*
X188991904Y-109622438D02*
X188944285Y-109670057D01*
X188944285Y-109670057D02*
X188896666Y-109765295D01*
X188896666Y-109765295D02*
X188896666Y-109908152D01*
X188896666Y-109908152D02*
X188944285Y-110003390D01*
X188944285Y-110003390D02*
X188991904Y-110051009D01*
X188991904Y-110051009D02*
X189087142Y-110098628D01*
X189087142Y-110098628D02*
X189468094Y-110098628D01*
X188563332Y-109574819D02*
X187944285Y-109574819D01*
X187944285Y-109574819D02*
X188277618Y-109955771D01*
X188277618Y-109955771D02*
X188134761Y-109955771D01*
X188134761Y-109955771D02*
X188039523Y-110003390D01*
X188039523Y-110003390D02*
X187991904Y-110051009D01*
X187991904Y-110051009D02*
X187944285Y-110146247D01*
X187944285Y-110146247D02*
X187944285Y-110384342D01*
X187944285Y-110384342D02*
X187991904Y-110479580D01*
X187991904Y-110479580D02*
X188039523Y-110527200D01*
X188039523Y-110527200D02*
X188134761Y-110574819D01*
X188134761Y-110574819D02*
X188420475Y-110574819D01*
X188420475Y-110574819D02*
X188515713Y-110527200D01*
X188515713Y-110527200D02*
X188563332Y-110479580D01*
D13*
X215073333Y-73097419D02*
X215073333Y-73811704D01*
X215073333Y-73811704D02*
X215120952Y-73954561D01*
X215120952Y-73954561D02*
X215216190Y-74049800D01*
X215216190Y-74049800D02*
X215359047Y-74097419D01*
X215359047Y-74097419D02*
X215454285Y-74097419D01*
X214168571Y-73430752D02*
X214168571Y-74097419D01*
X214406666Y-73049800D02*
X214644761Y-73764085D01*
X214644761Y-73764085D02*
X214025714Y-73764085D01*
D10*
X213670180Y-119848458D02*
X213670180Y-119229411D01*
X213670180Y-119229411D02*
X213289228Y-119562744D01*
X213289228Y-119562744D02*
X213289228Y-119419887D01*
X213289228Y-119419887D02*
X213241609Y-119324649D01*
X213241609Y-119324649D02*
X213193990Y-119277030D01*
X213193990Y-119277030D02*
X213098752Y-119229411D01*
X213098752Y-119229411D02*
X212860657Y-119229411D01*
X212860657Y-119229411D02*
X212765419Y-119277030D01*
X212765419Y-119277030D02*
X212717800Y-119324649D01*
X212717800Y-119324649D02*
X212670180Y-119419887D01*
X212670180Y-119419887D02*
X212670180Y-119705601D01*
X212670180Y-119705601D02*
X212717800Y-119800839D01*
X212717800Y-119800839D02*
X212765419Y-119848458D01*
X213670180Y-118896077D02*
X213670180Y-118277030D01*
X213670180Y-118277030D02*
X213289228Y-118610363D01*
X213289228Y-118610363D02*
X213289228Y-118467506D01*
X213289228Y-118467506D02*
X213241609Y-118372268D01*
X213241609Y-118372268D02*
X213193990Y-118324649D01*
X213193990Y-118324649D02*
X213098752Y-118277030D01*
X213098752Y-118277030D02*
X212860657Y-118277030D01*
X212860657Y-118277030D02*
X212765419Y-118324649D01*
X212765419Y-118324649D02*
X212717800Y-118372268D01*
X212717800Y-118372268D02*
X212670180Y-118467506D01*
X212670180Y-118467506D02*
X212670180Y-118753220D01*
X212670180Y-118753220D02*
X212717800Y-118848458D01*
X212717800Y-118848458D02*
X212765419Y-118896077D01*
X212920180Y-74779411D02*
X212920180Y-75350839D01*
X212920180Y-75065125D02*
X213920180Y-75065125D01*
X213920180Y-75065125D02*
X213777323Y-75160363D01*
X213777323Y-75160363D02*
X213682085Y-75255601D01*
X213682085Y-75255601D02*
X213634466Y-75350839D01*
X112610104Y-84340052D02*
X112610104Y-83340052D01*
X112610104Y-83340052D02*
X112372009Y-83340052D01*
X112372009Y-83340052D02*
X112229152Y-83387671D01*
X112229152Y-83387671D02*
X112133914Y-83482909D01*
X112133914Y-83482909D02*
X112086295Y-83578147D01*
X112086295Y-83578147D02*
X112038676Y-83768623D01*
X112038676Y-83768623D02*
X112038676Y-83911480D01*
X112038676Y-83911480D02*
X112086295Y-84101956D01*
X112086295Y-84101956D02*
X112133914Y-84197194D01*
X112133914Y-84197194D02*
X112229152Y-84292433D01*
X112229152Y-84292433D02*
X112372009Y-84340052D01*
X112372009Y-84340052D02*
X112610104Y-84340052D01*
X114885713Y-89227200D02*
X114742856Y-89274819D01*
X114742856Y-89274819D02*
X114504761Y-89274819D01*
X114504761Y-89274819D02*
X114409523Y-89227200D01*
X114409523Y-89227200D02*
X114361904Y-89179580D01*
X114361904Y-89179580D02*
X114314285Y-89084342D01*
X114314285Y-89084342D02*
X114314285Y-88989104D01*
X114314285Y-88989104D02*
X114361904Y-88893866D01*
X114361904Y-88893866D02*
X114409523Y-88846247D01*
X114409523Y-88846247D02*
X114504761Y-88798628D01*
X114504761Y-88798628D02*
X114695237Y-88751009D01*
X114695237Y-88751009D02*
X114790475Y-88703390D01*
X114790475Y-88703390D02*
X114838094Y-88655771D01*
X114838094Y-88655771D02*
X114885713Y-88560533D01*
X114885713Y-88560533D02*
X114885713Y-88465295D01*
X114885713Y-88465295D02*
X114838094Y-88370057D01*
X114838094Y-88370057D02*
X114790475Y-88322438D01*
X114790475Y-88322438D02*
X114695237Y-88274819D01*
X114695237Y-88274819D02*
X114457142Y-88274819D01*
X114457142Y-88274819D02*
X114314285Y-88322438D01*
X115135713Y-114957200D02*
X114992856Y-115004819D01*
X114992856Y-115004819D02*
X114754761Y-115004819D01*
X114754761Y-115004819D02*
X114659523Y-114957200D01*
X114659523Y-114957200D02*
X114611904Y-114909580D01*
X114611904Y-114909580D02*
X114564285Y-114814342D01*
X114564285Y-114814342D02*
X114564285Y-114719104D01*
X114564285Y-114719104D02*
X114611904Y-114623866D01*
X114611904Y-114623866D02*
X114659523Y-114576247D01*
X114659523Y-114576247D02*
X114754761Y-114528628D01*
X114754761Y-114528628D02*
X114945237Y-114481009D01*
X114945237Y-114481009D02*
X115040475Y-114433390D01*
X115040475Y-114433390D02*
X115088094Y-114385771D01*
X115088094Y-114385771D02*
X115135713Y-114290533D01*
X115135713Y-114290533D02*
X115135713Y-114195295D01*
X115135713Y-114195295D02*
X115088094Y-114100057D01*
X115088094Y-114100057D02*
X115040475Y-114052438D01*
X115040475Y-114052438D02*
X114945237Y-114004819D01*
X114945237Y-114004819D02*
X114707142Y-114004819D01*
X114707142Y-114004819D02*
X114564285Y-114052438D01*
X112461904Y-110524819D02*
X112461904Y-109524819D01*
X112461904Y-109524819D02*
X112223809Y-109524819D01*
X112223809Y-109524819D02*
X112080952Y-109572438D01*
X112080952Y-109572438D02*
X111985714Y-109667676D01*
X111985714Y-109667676D02*
X111938095Y-109762914D01*
X111938095Y-109762914D02*
X111890476Y-109953390D01*
X111890476Y-109953390D02*
X111890476Y-110096247D01*
X111890476Y-110096247D02*
X111938095Y-110286723D01*
X111938095Y-110286723D02*
X111985714Y-110381961D01*
X111985714Y-110381961D02*
X112080952Y-110477200D01*
X112080952Y-110477200D02*
X112223809Y-110524819D01*
X112223809Y-110524819D02*
X112461904Y-110524819D01*
X105489047Y-107474819D02*
X105822380Y-106998628D01*
X106060475Y-107474819D02*
X106060475Y-106474819D01*
X106060475Y-106474819D02*
X105679523Y-106474819D01*
X105679523Y-106474819D02*
X105584285Y-106522438D01*
X105584285Y-106522438D02*
X105536666Y-106570057D01*
X105536666Y-106570057D02*
X105489047Y-106665295D01*
X105489047Y-106665295D02*
X105489047Y-106808152D01*
X105489047Y-106808152D02*
X105536666Y-106903390D01*
X105536666Y-106903390D02*
X105584285Y-106951009D01*
X105584285Y-106951009D02*
X105679523Y-106998628D01*
X105679523Y-106998628D02*
X106060475Y-106998628D01*
X104536666Y-107474819D02*
X105108094Y-107474819D01*
X104822380Y-107474819D02*
X104822380Y-106474819D01*
X104822380Y-106474819D02*
X104917618Y-106617676D01*
X104917618Y-106617676D02*
X105012856Y-106712914D01*
X105012856Y-106712914D02*
X105108094Y-106760533D01*
X104155713Y-106570057D02*
X104108094Y-106522438D01*
X104108094Y-106522438D02*
X104012856Y-106474819D01*
X104012856Y-106474819D02*
X103774761Y-106474819D01*
X103774761Y-106474819D02*
X103679523Y-106522438D01*
X103679523Y-106522438D02*
X103631904Y-106570057D01*
X103631904Y-106570057D02*
X103584285Y-106665295D01*
X103584285Y-106665295D02*
X103584285Y-106760533D01*
X103584285Y-106760533D02*
X103631904Y-106903390D01*
X103631904Y-106903390D02*
X104203332Y-107474819D01*
X104203332Y-107474819D02*
X103584285Y-107474819D01*
X102631904Y-107474819D02*
X103203332Y-107474819D01*
X102917618Y-107474819D02*
X102917618Y-106474819D01*
X102917618Y-106474819D02*
X103012856Y-106617676D01*
X103012856Y-106617676D02*
X103108094Y-106712914D01*
X103108094Y-106712914D02*
X103203332Y-106760533D01*
X143204819Y-86793333D02*
X142728628Y-86460000D01*
X143204819Y-86221905D02*
X142204819Y-86221905D01*
X142204819Y-86221905D02*
X142204819Y-86602857D01*
X142204819Y-86602857D02*
X142252438Y-86698095D01*
X142252438Y-86698095D02*
X142300057Y-86745714D01*
X142300057Y-86745714D02*
X142395295Y-86793333D01*
X142395295Y-86793333D02*
X142538152Y-86793333D01*
X142538152Y-86793333D02*
X142633390Y-86745714D01*
X142633390Y-86745714D02*
X142681009Y-86698095D01*
X142681009Y-86698095D02*
X142728628Y-86602857D01*
X142728628Y-86602857D02*
X142728628Y-86221905D01*
X142300057Y-87174286D02*
X142252438Y-87221905D01*
X142252438Y-87221905D02*
X142204819Y-87317143D01*
X142204819Y-87317143D02*
X142204819Y-87555238D01*
X142204819Y-87555238D02*
X142252438Y-87650476D01*
X142252438Y-87650476D02*
X142300057Y-87698095D01*
X142300057Y-87698095D02*
X142395295Y-87745714D01*
X142395295Y-87745714D02*
X142490533Y-87745714D01*
X142490533Y-87745714D02*
X142633390Y-87698095D01*
X142633390Y-87698095D02*
X143204819Y-87126667D01*
X143204819Y-87126667D02*
X143204819Y-87745714D01*
X192866666Y-112049580D02*
X192914285Y-112097200D01*
X192914285Y-112097200D02*
X193057142Y-112144819D01*
X193057142Y-112144819D02*
X193152380Y-112144819D01*
X193152380Y-112144819D02*
X193295237Y-112097200D01*
X193295237Y-112097200D02*
X193390475Y-112001961D01*
X193390475Y-112001961D02*
X193438094Y-111906723D01*
X193438094Y-111906723D02*
X193485713Y-111716247D01*
X193485713Y-111716247D02*
X193485713Y-111573390D01*
X193485713Y-111573390D02*
X193438094Y-111382914D01*
X193438094Y-111382914D02*
X193390475Y-111287676D01*
X193390475Y-111287676D02*
X193295237Y-111192438D01*
X193295237Y-111192438D02*
X193152380Y-111144819D01*
X193152380Y-111144819D02*
X193057142Y-111144819D01*
X193057142Y-111144819D02*
X192914285Y-111192438D01*
X192914285Y-111192438D02*
X192866666Y-111240057D01*
X192533332Y-111144819D02*
X191914285Y-111144819D01*
X191914285Y-111144819D02*
X192247618Y-111525771D01*
X192247618Y-111525771D02*
X192104761Y-111525771D01*
X192104761Y-111525771D02*
X192009523Y-111573390D01*
X192009523Y-111573390D02*
X191961904Y-111621009D01*
X191961904Y-111621009D02*
X191914285Y-111716247D01*
X191914285Y-111716247D02*
X191914285Y-111954342D01*
X191914285Y-111954342D02*
X191961904Y-112049580D01*
X191961904Y-112049580D02*
X192009523Y-112097200D01*
X192009523Y-112097200D02*
X192104761Y-112144819D01*
X192104761Y-112144819D02*
X192390475Y-112144819D01*
X192390475Y-112144819D02*
X192485713Y-112097200D01*
X192485713Y-112097200D02*
X192533332Y-112049580D01*
X166992857Y-120629580D02*
X167040476Y-120677200D01*
X167040476Y-120677200D02*
X167183333Y-120724819D01*
X167183333Y-120724819D02*
X167278571Y-120724819D01*
X167278571Y-120724819D02*
X167421428Y-120677200D01*
X167421428Y-120677200D02*
X167516666Y-120581961D01*
X167516666Y-120581961D02*
X167564285Y-120486723D01*
X167564285Y-120486723D02*
X167611904Y-120296247D01*
X167611904Y-120296247D02*
X167611904Y-120153390D01*
X167611904Y-120153390D02*
X167564285Y-119962914D01*
X167564285Y-119962914D02*
X167516666Y-119867676D01*
X167516666Y-119867676D02*
X167421428Y-119772438D01*
X167421428Y-119772438D02*
X167278571Y-119724819D01*
X167278571Y-119724819D02*
X167183333Y-119724819D01*
X167183333Y-119724819D02*
X167040476Y-119772438D01*
X167040476Y-119772438D02*
X166992857Y-119820057D01*
X166040476Y-120724819D02*
X166611904Y-120724819D01*
X166326190Y-120724819D02*
X166326190Y-119724819D01*
X166326190Y-119724819D02*
X166421428Y-119867676D01*
X166421428Y-119867676D02*
X166516666Y-119962914D01*
X166516666Y-119962914D02*
X166611904Y-120010533D01*
X165183333Y-120058152D02*
X165183333Y-120724819D01*
X165421428Y-119677200D02*
X165659523Y-120391485D01*
X165659523Y-120391485D02*
X165040476Y-120391485D01*
X144200951Y-88063866D02*
X143439047Y-88063866D01*
X143819999Y-88444819D02*
X143819999Y-87682914D01*
D12*
X149150476Y-88035166D02*
X148769524Y-88035166D01*
D10*
X114925713Y-94457200D02*
X114782856Y-94504819D01*
X114782856Y-94504819D02*
X114544761Y-94504819D01*
X114544761Y-94504819D02*
X114449523Y-94457200D01*
X114449523Y-94457200D02*
X114401904Y-94409580D01*
X114401904Y-94409580D02*
X114354285Y-94314342D01*
X114354285Y-94314342D02*
X114354285Y-94219104D01*
X114354285Y-94219104D02*
X114401904Y-94123866D01*
X114401904Y-94123866D02*
X114449523Y-94076247D01*
X114449523Y-94076247D02*
X114544761Y-94028628D01*
X114544761Y-94028628D02*
X114735237Y-93981009D01*
X114735237Y-93981009D02*
X114830475Y-93933390D01*
X114830475Y-93933390D02*
X114878094Y-93885771D01*
X114878094Y-93885771D02*
X114925713Y-93790533D01*
X114925713Y-93790533D02*
X114925713Y-93695295D01*
X114925713Y-93695295D02*
X114878094Y-93600057D01*
X114878094Y-93600057D02*
X114830475Y-93552438D01*
X114830475Y-93552438D02*
X114735237Y-93504819D01*
X114735237Y-93504819D02*
X114497142Y-93504819D01*
X114497142Y-93504819D02*
X114354285Y-93552438D01*
X112701904Y-89524819D02*
X112701904Y-88524819D01*
X112701904Y-88524819D02*
X112463809Y-88524819D01*
X112463809Y-88524819D02*
X112320952Y-88572438D01*
X112320952Y-88572438D02*
X112225714Y-88667676D01*
X112225714Y-88667676D02*
X112178095Y-88762914D01*
X112178095Y-88762914D02*
X112130476Y-88953390D01*
X112130476Y-88953390D02*
X112130476Y-89096247D01*
X112130476Y-89096247D02*
X112178095Y-89286723D01*
X112178095Y-89286723D02*
X112225714Y-89381961D01*
X112225714Y-89381961D02*
X112320952Y-89477200D01*
X112320952Y-89477200D02*
X112463809Y-89524819D01*
X112463809Y-89524819D02*
X112701904Y-89524819D01*
X164842857Y-118524819D02*
X165176190Y-118048628D01*
X165414285Y-118524819D02*
X165414285Y-117524819D01*
X165414285Y-117524819D02*
X165033333Y-117524819D01*
X165033333Y-117524819D02*
X164938095Y-117572438D01*
X164938095Y-117572438D02*
X164890476Y-117620057D01*
X164890476Y-117620057D02*
X164842857Y-117715295D01*
X164842857Y-117715295D02*
X164842857Y-117858152D01*
X164842857Y-117858152D02*
X164890476Y-117953390D01*
X164890476Y-117953390D02*
X164938095Y-118001009D01*
X164938095Y-118001009D02*
X165033333Y-118048628D01*
X165033333Y-118048628D02*
X165414285Y-118048628D01*
X163890476Y-118524819D02*
X164461904Y-118524819D01*
X164176190Y-118524819D02*
X164176190Y-117524819D01*
X164176190Y-117524819D02*
X164271428Y-117667676D01*
X164271428Y-117667676D02*
X164366666Y-117762914D01*
X164366666Y-117762914D02*
X164461904Y-117810533D01*
X162938095Y-118524819D02*
X163509523Y-118524819D01*
X163223809Y-118524819D02*
X163223809Y-117524819D01*
X163223809Y-117524819D02*
X163319047Y-117667676D01*
X163319047Y-117667676D02*
X163414285Y-117762914D01*
X163414285Y-117762914D02*
X163509523Y-117810533D01*
D11*
X194219762Y-91094318D02*
X194219762Y-89824318D01*
X192889285Y-90973365D02*
X192949761Y-91033842D01*
X192949761Y-91033842D02*
X193131190Y-91094318D01*
X193131190Y-91094318D02*
X193252142Y-91094318D01*
X193252142Y-91094318D02*
X193433571Y-91033842D01*
X193433571Y-91033842D02*
X193554523Y-90912889D01*
X193554523Y-90912889D02*
X193615000Y-90791937D01*
X193615000Y-90791937D02*
X193675476Y-90550032D01*
X193675476Y-90550032D02*
X193675476Y-90368603D01*
X193675476Y-90368603D02*
X193615000Y-90126699D01*
X193615000Y-90126699D02*
X193554523Y-90005746D01*
X193554523Y-90005746D02*
X193433571Y-89884794D01*
X193433571Y-89884794D02*
X193252142Y-89824318D01*
X193252142Y-89824318D02*
X193131190Y-89824318D01*
X193131190Y-89824318D02*
X192949761Y-89884794D01*
X192949761Y-89884794D02*
X192889285Y-89945270D01*
X192405476Y-89945270D02*
X192345000Y-89884794D01*
X192345000Y-89884794D02*
X192224047Y-89824318D01*
X192224047Y-89824318D02*
X191921666Y-89824318D01*
X191921666Y-89824318D02*
X191800714Y-89884794D01*
X191800714Y-89884794D02*
X191740238Y-89945270D01*
X191740238Y-89945270D02*
X191679761Y-90066222D01*
X191679761Y-90066222D02*
X191679761Y-90187175D01*
X191679761Y-90187175D02*
X191740238Y-90368603D01*
X191740238Y-90368603D02*
X192465952Y-91094318D01*
X192465952Y-91094318D02*
X191679761Y-91094318D01*
D10*
X105012857Y-89674819D02*
X105346190Y-89198628D01*
X105584285Y-89674819D02*
X105584285Y-88674819D01*
X105584285Y-88674819D02*
X105203333Y-88674819D01*
X105203333Y-88674819D02*
X105108095Y-88722438D01*
X105108095Y-88722438D02*
X105060476Y-88770057D01*
X105060476Y-88770057D02*
X105012857Y-88865295D01*
X105012857Y-88865295D02*
X105012857Y-89008152D01*
X105012857Y-89008152D02*
X105060476Y-89103390D01*
X105060476Y-89103390D02*
X105108095Y-89151009D01*
X105108095Y-89151009D02*
X105203333Y-89198628D01*
X105203333Y-89198628D02*
X105584285Y-89198628D01*
X104108095Y-88674819D02*
X104584285Y-88674819D01*
X104584285Y-88674819D02*
X104631904Y-89151009D01*
X104631904Y-89151009D02*
X104584285Y-89103390D01*
X104584285Y-89103390D02*
X104489047Y-89055771D01*
X104489047Y-89055771D02*
X104250952Y-89055771D01*
X104250952Y-89055771D02*
X104155714Y-89103390D01*
X104155714Y-89103390D02*
X104108095Y-89151009D01*
X104108095Y-89151009D02*
X104060476Y-89246247D01*
X104060476Y-89246247D02*
X104060476Y-89484342D01*
X104060476Y-89484342D02*
X104108095Y-89579580D01*
X104108095Y-89579580D02*
X104155714Y-89627200D01*
X104155714Y-89627200D02*
X104250952Y-89674819D01*
X104250952Y-89674819D02*
X104489047Y-89674819D01*
X104489047Y-89674819D02*
X104584285Y-89627200D01*
X104584285Y-89627200D02*
X104631904Y-89579580D01*
X103203333Y-88674819D02*
X103393809Y-88674819D01*
X103393809Y-88674819D02*
X103489047Y-88722438D01*
X103489047Y-88722438D02*
X103536666Y-88770057D01*
X103536666Y-88770057D02*
X103631904Y-88912914D01*
X103631904Y-88912914D02*
X103679523Y-89103390D01*
X103679523Y-89103390D02*
X103679523Y-89484342D01*
X103679523Y-89484342D02*
X103631904Y-89579580D01*
X103631904Y-89579580D02*
X103584285Y-89627200D01*
X103584285Y-89627200D02*
X103489047Y-89674819D01*
X103489047Y-89674819D02*
X103298571Y-89674819D01*
X103298571Y-89674819D02*
X103203333Y-89627200D01*
X103203333Y-89627200D02*
X103155714Y-89579580D01*
X103155714Y-89579580D02*
X103108095Y-89484342D01*
X103108095Y-89484342D02*
X103108095Y-89246247D01*
X103108095Y-89246247D02*
X103155714Y-89151009D01*
X103155714Y-89151009D02*
X103203333Y-89103390D01*
X103203333Y-89103390D02*
X103298571Y-89055771D01*
X103298571Y-89055771D02*
X103489047Y-89055771D01*
X103489047Y-89055771D02*
X103584285Y-89103390D01*
X103584285Y-89103390D02*
X103631904Y-89151009D01*
X103631904Y-89151009D02*
X103679523Y-89246247D01*
X174782857Y-86949580D02*
X174830476Y-86997200D01*
X174830476Y-86997200D02*
X174973333Y-87044819D01*
X174973333Y-87044819D02*
X175068571Y-87044819D01*
X175068571Y-87044819D02*
X175211428Y-86997200D01*
X175211428Y-86997200D02*
X175306666Y-86901961D01*
X175306666Y-86901961D02*
X175354285Y-86806723D01*
X175354285Y-86806723D02*
X175401904Y-86616247D01*
X175401904Y-86616247D02*
X175401904Y-86473390D01*
X175401904Y-86473390D02*
X175354285Y-86282914D01*
X175354285Y-86282914D02*
X175306666Y-86187676D01*
X175306666Y-86187676D02*
X175211428Y-86092438D01*
X175211428Y-86092438D02*
X175068571Y-86044819D01*
X175068571Y-86044819D02*
X174973333Y-86044819D01*
X174973333Y-86044819D02*
X174830476Y-86092438D01*
X174830476Y-86092438D02*
X174782857Y-86140057D01*
X173830476Y-87044819D02*
X174401904Y-87044819D01*
X174116190Y-87044819D02*
X174116190Y-86044819D01*
X174116190Y-86044819D02*
X174211428Y-86187676D01*
X174211428Y-86187676D02*
X174306666Y-86282914D01*
X174306666Y-86282914D02*
X174401904Y-86330533D01*
X173449523Y-86140057D02*
X173401904Y-86092438D01*
X173401904Y-86092438D02*
X173306666Y-86044819D01*
X173306666Y-86044819D02*
X173068571Y-86044819D01*
X173068571Y-86044819D02*
X172973333Y-86092438D01*
X172973333Y-86092438D02*
X172925714Y-86140057D01*
X172925714Y-86140057D02*
X172878095Y-86235295D01*
X172878095Y-86235295D02*
X172878095Y-86330533D01*
X172878095Y-86330533D02*
X172925714Y-86473390D01*
X172925714Y-86473390D02*
X173497142Y-87044819D01*
X173497142Y-87044819D02*
X172878095Y-87044819D01*
X115421904Y-93467319D02*
X115421904Y-92467319D01*
X115421904Y-92467319D02*
X115040952Y-92467319D01*
X115040952Y-92467319D02*
X114945714Y-92514938D01*
X114945714Y-92514938D02*
X114898095Y-92562557D01*
X114898095Y-92562557D02*
X114850476Y-92657795D01*
X114850476Y-92657795D02*
X114850476Y-92800652D01*
X114850476Y-92800652D02*
X114898095Y-92895890D01*
X114898095Y-92895890D02*
X114945714Y-92943509D01*
X114945714Y-92943509D02*
X115040952Y-92991128D01*
X115040952Y-92991128D02*
X115421904Y-92991128D01*
X120495713Y-93454819D02*
X120495713Y-92454819D01*
X120495713Y-92454819D02*
X119924285Y-93454819D01*
X119924285Y-93454819D02*
X119924285Y-92454819D01*
X120401904Y-90844819D02*
X120401904Y-89844819D01*
X120401904Y-89844819D02*
X120020952Y-89844819D01*
X120020952Y-89844819D02*
X119925714Y-89892438D01*
X119925714Y-89892438D02*
X119878095Y-89940057D01*
X119878095Y-89940057D02*
X119830476Y-90035295D01*
X119830476Y-90035295D02*
X119830476Y-90178152D01*
X119830476Y-90178152D02*
X119878095Y-90273390D01*
X119878095Y-90273390D02*
X119925714Y-90321009D01*
X119925714Y-90321009D02*
X120020952Y-90368628D01*
X120020952Y-90368628D02*
X120401904Y-90368628D01*
X115415713Y-90957319D02*
X115415713Y-89957319D01*
X115415713Y-89957319D02*
X114844285Y-90957319D01*
X114844285Y-90957319D02*
X114844285Y-89957319D01*
X185226666Y-120859580D02*
X185274285Y-120907200D01*
X185274285Y-120907200D02*
X185417142Y-120954819D01*
X185417142Y-120954819D02*
X185512380Y-120954819D01*
X185512380Y-120954819D02*
X185655237Y-120907200D01*
X185655237Y-120907200D02*
X185750475Y-120811961D01*
X185750475Y-120811961D02*
X185798094Y-120716723D01*
X185798094Y-120716723D02*
X185845713Y-120526247D01*
X185845713Y-120526247D02*
X185845713Y-120383390D01*
X185845713Y-120383390D02*
X185798094Y-120192914D01*
X185798094Y-120192914D02*
X185750475Y-120097676D01*
X185750475Y-120097676D02*
X185655237Y-120002438D01*
X185655237Y-120002438D02*
X185512380Y-119954819D01*
X185512380Y-119954819D02*
X185417142Y-119954819D01*
X185417142Y-119954819D02*
X185274285Y-120002438D01*
X185274285Y-120002438D02*
X185226666Y-120050057D01*
X184369523Y-120288152D02*
X184369523Y-120954819D01*
X184607618Y-119907200D02*
X184845713Y-120621485D01*
X184845713Y-120621485D02*
X184226666Y-120621485D01*
X120495713Y-88284819D02*
X120495713Y-87284819D01*
X120495713Y-87284819D02*
X119924285Y-88284819D01*
X119924285Y-88284819D02*
X119924285Y-87284819D01*
X115411904Y-88227319D02*
X115411904Y-87227319D01*
X115411904Y-87227319D02*
X115030952Y-87227319D01*
X115030952Y-87227319D02*
X114935714Y-87274938D01*
X114935714Y-87274938D02*
X114888095Y-87322557D01*
X114888095Y-87322557D02*
X114840476Y-87417795D01*
X114840476Y-87417795D02*
X114840476Y-87560652D01*
X114840476Y-87560652D02*
X114888095Y-87655890D01*
X114888095Y-87655890D02*
X114935714Y-87703509D01*
X114935714Y-87703509D02*
X115030952Y-87751128D01*
X115030952Y-87751128D02*
X115411904Y-87751128D01*
X115371904Y-103864819D02*
X115371904Y-102864819D01*
X115371904Y-102864819D02*
X114990952Y-102864819D01*
X114990952Y-102864819D02*
X114895714Y-102912438D01*
X114895714Y-102912438D02*
X114848095Y-102960057D01*
X114848095Y-102960057D02*
X114800476Y-103055295D01*
X114800476Y-103055295D02*
X114800476Y-103198152D01*
X114800476Y-103198152D02*
X114848095Y-103293390D01*
X114848095Y-103293390D02*
X114895714Y-103341009D01*
X114895714Y-103341009D02*
X114990952Y-103388628D01*
X114990952Y-103388628D02*
X115371904Y-103388628D01*
X120505713Y-103864819D02*
X120505713Y-102864819D01*
X120505713Y-102864819D02*
X119934285Y-103864819D01*
X119934285Y-103864819D02*
X119934285Y-102864819D01*
D11*
X173379762Y-80214318D02*
X173379762Y-78944318D01*
X172049285Y-80093365D02*
X172109761Y-80153842D01*
X172109761Y-80153842D02*
X172291190Y-80214318D01*
X172291190Y-80214318D02*
X172412142Y-80214318D01*
X172412142Y-80214318D02*
X172593571Y-80153842D01*
X172593571Y-80153842D02*
X172714523Y-80032889D01*
X172714523Y-80032889D02*
X172775000Y-79911937D01*
X172775000Y-79911937D02*
X172835476Y-79670032D01*
X172835476Y-79670032D02*
X172835476Y-79488603D01*
X172835476Y-79488603D02*
X172775000Y-79246699D01*
X172775000Y-79246699D02*
X172714523Y-79125746D01*
X172714523Y-79125746D02*
X172593571Y-79004794D01*
X172593571Y-79004794D02*
X172412142Y-78944318D01*
X172412142Y-78944318D02*
X172291190Y-78944318D01*
X172291190Y-78944318D02*
X172109761Y-79004794D01*
X172109761Y-79004794D02*
X172049285Y-79065270D01*
X171625952Y-78944318D02*
X170839761Y-78944318D01*
X170839761Y-78944318D02*
X171263095Y-79428127D01*
X171263095Y-79428127D02*
X171081666Y-79428127D01*
X171081666Y-79428127D02*
X170960714Y-79488603D01*
X170960714Y-79488603D02*
X170900238Y-79549080D01*
X170900238Y-79549080D02*
X170839761Y-79670032D01*
X170839761Y-79670032D02*
X170839761Y-79972413D01*
X170839761Y-79972413D02*
X170900238Y-80093365D01*
X170900238Y-80093365D02*
X170960714Y-80153842D01*
X170960714Y-80153842D02*
X171081666Y-80214318D01*
X171081666Y-80214318D02*
X171444523Y-80214318D01*
X171444523Y-80214318D02*
X171565476Y-80153842D01*
X171565476Y-80153842D02*
X171625952Y-80093365D01*
D10*
X114945713Y-99627200D02*
X114802856Y-99674819D01*
X114802856Y-99674819D02*
X114564761Y-99674819D01*
X114564761Y-99674819D02*
X114469523Y-99627200D01*
X114469523Y-99627200D02*
X114421904Y-99579580D01*
X114421904Y-99579580D02*
X114374285Y-99484342D01*
X114374285Y-99484342D02*
X114374285Y-99389104D01*
X114374285Y-99389104D02*
X114421904Y-99293866D01*
X114421904Y-99293866D02*
X114469523Y-99246247D01*
X114469523Y-99246247D02*
X114564761Y-99198628D01*
X114564761Y-99198628D02*
X114755237Y-99151009D01*
X114755237Y-99151009D02*
X114850475Y-99103390D01*
X114850475Y-99103390D02*
X114898094Y-99055771D01*
X114898094Y-99055771D02*
X114945713Y-98960533D01*
X114945713Y-98960533D02*
X114945713Y-98865295D01*
X114945713Y-98865295D02*
X114898094Y-98770057D01*
X114898094Y-98770057D02*
X114850475Y-98722438D01*
X114850475Y-98722438D02*
X114755237Y-98674819D01*
X114755237Y-98674819D02*
X114517142Y-98674819D01*
X114517142Y-98674819D02*
X114374285Y-98722438D01*
X112501904Y-94834819D02*
X112501904Y-93834819D01*
X112501904Y-93834819D02*
X112263809Y-93834819D01*
X112263809Y-93834819D02*
X112120952Y-93882438D01*
X112120952Y-93882438D02*
X112025714Y-93977676D01*
X112025714Y-93977676D02*
X111978095Y-94072914D01*
X111978095Y-94072914D02*
X111930476Y-94263390D01*
X111930476Y-94263390D02*
X111930476Y-94406247D01*
X111930476Y-94406247D02*
X111978095Y-94596723D01*
X111978095Y-94596723D02*
X112025714Y-94691961D01*
X112025714Y-94691961D02*
X112120952Y-94787200D01*
X112120952Y-94787200D02*
X112263809Y-94834819D01*
X112263809Y-94834819D02*
X112501904Y-94834819D01*
X106961904Y-101344819D02*
X106961904Y-100344819D01*
X106961904Y-100344819D02*
X106580952Y-100344819D01*
X106580952Y-100344819D02*
X106485714Y-100392438D01*
X106485714Y-100392438D02*
X106438095Y-100440057D01*
X106438095Y-100440057D02*
X106390476Y-100535295D01*
X106390476Y-100535295D02*
X106390476Y-100678152D01*
X106390476Y-100678152D02*
X106438095Y-100773390D01*
X106438095Y-100773390D02*
X106485714Y-100821009D01*
X106485714Y-100821009D02*
X106580952Y-100868628D01*
X106580952Y-100868628D02*
X106961904Y-100868628D01*
X112037013Y-101364043D02*
X112037013Y-100364043D01*
X112037013Y-100364043D02*
X111465585Y-101364043D01*
X111465585Y-101364043D02*
X111465585Y-100364043D01*
X170182857Y-104009580D02*
X170230476Y-104057200D01*
X170230476Y-104057200D02*
X170373333Y-104104819D01*
X170373333Y-104104819D02*
X170468571Y-104104819D01*
X170468571Y-104104819D02*
X170611428Y-104057200D01*
X170611428Y-104057200D02*
X170706666Y-103961961D01*
X170706666Y-103961961D02*
X170754285Y-103866723D01*
X170754285Y-103866723D02*
X170801904Y-103676247D01*
X170801904Y-103676247D02*
X170801904Y-103533390D01*
X170801904Y-103533390D02*
X170754285Y-103342914D01*
X170754285Y-103342914D02*
X170706666Y-103247676D01*
X170706666Y-103247676D02*
X170611428Y-103152438D01*
X170611428Y-103152438D02*
X170468571Y-103104819D01*
X170468571Y-103104819D02*
X170373333Y-103104819D01*
X170373333Y-103104819D02*
X170230476Y-103152438D01*
X170230476Y-103152438D02*
X170182857Y-103200057D01*
X169230476Y-104104819D02*
X169801904Y-104104819D01*
X169516190Y-104104819D02*
X169516190Y-103104819D01*
X169516190Y-103104819D02*
X169611428Y-103247676D01*
X169611428Y-103247676D02*
X169706666Y-103342914D01*
X169706666Y-103342914D02*
X169801904Y-103390533D01*
X168325714Y-103104819D02*
X168801904Y-103104819D01*
X168801904Y-103104819D02*
X168849523Y-103581009D01*
X168849523Y-103581009D02*
X168801904Y-103533390D01*
X168801904Y-103533390D02*
X168706666Y-103485771D01*
X168706666Y-103485771D02*
X168468571Y-103485771D01*
X168468571Y-103485771D02*
X168373333Y-103533390D01*
X168373333Y-103533390D02*
X168325714Y-103581009D01*
X168325714Y-103581009D02*
X168278095Y-103676247D01*
X168278095Y-103676247D02*
X168278095Y-103914342D01*
X168278095Y-103914342D02*
X168325714Y-104009580D01*
X168325714Y-104009580D02*
X168373333Y-104057200D01*
X168373333Y-104057200D02*
X168468571Y-104104819D01*
X168468571Y-104104819D02*
X168706666Y-104104819D01*
X168706666Y-104104819D02*
X168801904Y-104057200D01*
X168801904Y-104057200D02*
X168849523Y-104009580D01*
D12*
X149200476Y-90515166D02*
X148819524Y-90515166D01*
D10*
X154525951Y-90663866D02*
X153764047Y-90663866D01*
X154144999Y-91044819D02*
X154144999Y-90282914D01*
X115415713Y-85717319D02*
X115415713Y-84717319D01*
X115415713Y-84717319D02*
X114844285Y-85717319D01*
X114844285Y-85717319D02*
X114844285Y-84717319D01*
X120421904Y-85644819D02*
X120421904Y-84644819D01*
X120421904Y-84644819D02*
X120040952Y-84644819D01*
X120040952Y-84644819D02*
X119945714Y-84692438D01*
X119945714Y-84692438D02*
X119898095Y-84740057D01*
X119898095Y-84740057D02*
X119850476Y-84835295D01*
X119850476Y-84835295D02*
X119850476Y-84978152D01*
X119850476Y-84978152D02*
X119898095Y-85073390D01*
X119898095Y-85073390D02*
X119945714Y-85121009D01*
X119945714Y-85121009D02*
X120040952Y-85168628D01*
X120040952Y-85168628D02*
X120421904Y-85168628D01*
X115431904Y-98674819D02*
X115431904Y-97674819D01*
X115431904Y-97674819D02*
X115050952Y-97674819D01*
X115050952Y-97674819D02*
X114955714Y-97722438D01*
X114955714Y-97722438D02*
X114908095Y-97770057D01*
X114908095Y-97770057D02*
X114860476Y-97865295D01*
X114860476Y-97865295D02*
X114860476Y-98008152D01*
X114860476Y-98008152D02*
X114908095Y-98103390D01*
X114908095Y-98103390D02*
X114955714Y-98151009D01*
X114955714Y-98151009D02*
X115050952Y-98198628D01*
X115050952Y-98198628D02*
X115431904Y-98198628D01*
X120505713Y-98634819D02*
X120505713Y-97634819D01*
X120505713Y-97634819D02*
X119934285Y-98634819D01*
X119934285Y-98634819D02*
X119934285Y-97634819D01*
D11*
X174374318Y-92590237D02*
X173104318Y-92590237D01*
X174253365Y-93920714D02*
X174313842Y-93860238D01*
X174313842Y-93860238D02*
X174374318Y-93678809D01*
X174374318Y-93678809D02*
X174374318Y-93557857D01*
X174374318Y-93557857D02*
X174313842Y-93376428D01*
X174313842Y-93376428D02*
X174192889Y-93255476D01*
X174192889Y-93255476D02*
X174071937Y-93194999D01*
X174071937Y-93194999D02*
X173830032Y-93134523D01*
X173830032Y-93134523D02*
X173648603Y-93134523D01*
X173648603Y-93134523D02*
X173406699Y-93194999D01*
X173406699Y-93194999D02*
X173285746Y-93255476D01*
X173285746Y-93255476D02*
X173164794Y-93376428D01*
X173164794Y-93376428D02*
X173104318Y-93557857D01*
X173104318Y-93557857D02*
X173104318Y-93678809D01*
X173104318Y-93678809D02*
X173164794Y-93860238D01*
X173164794Y-93860238D02*
X173225270Y-93920714D01*
X173527651Y-95009285D02*
X174374318Y-95009285D01*
X173043842Y-94706904D02*
X173950984Y-94404523D01*
X173950984Y-94404523D02*
X173950984Y-95190714D01*
D10*
X163156666Y-82764819D02*
X163489999Y-82288628D01*
X163728094Y-82764819D02*
X163728094Y-81764819D01*
X163728094Y-81764819D02*
X163347142Y-81764819D01*
X163347142Y-81764819D02*
X163251904Y-81812438D01*
X163251904Y-81812438D02*
X163204285Y-81860057D01*
X163204285Y-81860057D02*
X163156666Y-81955295D01*
X163156666Y-81955295D02*
X163156666Y-82098152D01*
X163156666Y-82098152D02*
X163204285Y-82193390D01*
X163204285Y-82193390D02*
X163251904Y-82241009D01*
X163251904Y-82241009D02*
X163347142Y-82288628D01*
X163347142Y-82288628D02*
X163728094Y-82288628D01*
X162680475Y-82764819D02*
X162489999Y-82764819D01*
X162489999Y-82764819D02*
X162394761Y-82717200D01*
X162394761Y-82717200D02*
X162347142Y-82669580D01*
X162347142Y-82669580D02*
X162251904Y-82526723D01*
X162251904Y-82526723D02*
X162204285Y-82336247D01*
X162204285Y-82336247D02*
X162204285Y-81955295D01*
X162204285Y-81955295D02*
X162251904Y-81860057D01*
X162251904Y-81860057D02*
X162299523Y-81812438D01*
X162299523Y-81812438D02*
X162394761Y-81764819D01*
X162394761Y-81764819D02*
X162585237Y-81764819D01*
X162585237Y-81764819D02*
X162680475Y-81812438D01*
X162680475Y-81812438D02*
X162728094Y-81860057D01*
X162728094Y-81860057D02*
X162775713Y-81955295D01*
X162775713Y-81955295D02*
X162775713Y-82193390D01*
X162775713Y-82193390D02*
X162728094Y-82288628D01*
X162728094Y-82288628D02*
X162680475Y-82336247D01*
X162680475Y-82336247D02*
X162585237Y-82383866D01*
X162585237Y-82383866D02*
X162394761Y-82383866D01*
X162394761Y-82383866D02*
X162299523Y-82336247D01*
X162299523Y-82336247D02*
X162251904Y-82288628D01*
X162251904Y-82288628D02*
X162204285Y-82193390D01*
X112115713Y-90941531D02*
X112115713Y-89941531D01*
X112115713Y-89941531D02*
X111544285Y-90941531D01*
X111544285Y-90941531D02*
X111544285Y-89941531D01*
X106970604Y-90934613D02*
X106970604Y-89934613D01*
X106970604Y-89934613D02*
X106589652Y-89934613D01*
X106589652Y-89934613D02*
X106494414Y-89982232D01*
X106494414Y-89982232D02*
X106446795Y-90029851D01*
X106446795Y-90029851D02*
X106399176Y-90125089D01*
X106399176Y-90125089D02*
X106399176Y-90267946D01*
X106399176Y-90267946D02*
X106446795Y-90363184D01*
X106446795Y-90363184D02*
X106494414Y-90410803D01*
X106494414Y-90410803D02*
X106589652Y-90458422D01*
X106589652Y-90458422D02*
X106970604Y-90458422D01*
X115405713Y-106454819D02*
X115405713Y-105454819D01*
X115405713Y-105454819D02*
X114834285Y-106454819D01*
X114834285Y-106454819D02*
X114834285Y-105454819D01*
X120431904Y-106464819D02*
X120431904Y-105464819D01*
X120431904Y-105464819D02*
X120050952Y-105464819D01*
X120050952Y-105464819D02*
X119955714Y-105512438D01*
X119955714Y-105512438D02*
X119908095Y-105560057D01*
X119908095Y-105560057D02*
X119860476Y-105655295D01*
X119860476Y-105655295D02*
X119860476Y-105798152D01*
X119860476Y-105798152D02*
X119908095Y-105893390D01*
X119908095Y-105893390D02*
X119955714Y-105941009D01*
X119955714Y-105941009D02*
X120050952Y-105988628D01*
X120050952Y-105988628D02*
X120431904Y-105988628D01*
X105012857Y-84604819D02*
X105346190Y-84128628D01*
X105584285Y-84604819D02*
X105584285Y-83604819D01*
X105584285Y-83604819D02*
X105203333Y-83604819D01*
X105203333Y-83604819D02*
X105108095Y-83652438D01*
X105108095Y-83652438D02*
X105060476Y-83700057D01*
X105060476Y-83700057D02*
X105012857Y-83795295D01*
X105012857Y-83795295D02*
X105012857Y-83938152D01*
X105012857Y-83938152D02*
X105060476Y-84033390D01*
X105060476Y-84033390D02*
X105108095Y-84081009D01*
X105108095Y-84081009D02*
X105203333Y-84128628D01*
X105203333Y-84128628D02*
X105584285Y-84128628D01*
X104155714Y-83938152D02*
X104155714Y-84604819D01*
X104393809Y-83557200D02*
X104631904Y-84271485D01*
X104631904Y-84271485D02*
X104012857Y-84271485D01*
X103441428Y-83604819D02*
X103346190Y-83604819D01*
X103346190Y-83604819D02*
X103250952Y-83652438D01*
X103250952Y-83652438D02*
X103203333Y-83700057D01*
X103203333Y-83700057D02*
X103155714Y-83795295D01*
X103155714Y-83795295D02*
X103108095Y-83985771D01*
X103108095Y-83985771D02*
X103108095Y-84223866D01*
X103108095Y-84223866D02*
X103155714Y-84414342D01*
X103155714Y-84414342D02*
X103203333Y-84509580D01*
X103203333Y-84509580D02*
X103250952Y-84557200D01*
X103250952Y-84557200D02*
X103346190Y-84604819D01*
X103346190Y-84604819D02*
X103441428Y-84604819D01*
X103441428Y-84604819D02*
X103536666Y-84557200D01*
X103536666Y-84557200D02*
X103584285Y-84509580D01*
X103584285Y-84509580D02*
X103631904Y-84414342D01*
X103631904Y-84414342D02*
X103679523Y-84223866D01*
X103679523Y-84223866D02*
X103679523Y-83985771D01*
X103679523Y-83985771D02*
X103631904Y-83795295D01*
X103631904Y-83795295D02*
X103584285Y-83700057D01*
X103584285Y-83700057D02*
X103536666Y-83652438D01*
X103536666Y-83652438D02*
X103441428Y-83604819D01*
X106955713Y-109164819D02*
X106955713Y-108164819D01*
X106955713Y-108164819D02*
X106384285Y-109164819D01*
X106384285Y-109164819D02*
X106384285Y-108164819D01*
X111953204Y-109182502D02*
X111953204Y-108182502D01*
X111953204Y-108182502D02*
X111572252Y-108182502D01*
X111572252Y-108182502D02*
X111477014Y-108230121D01*
X111477014Y-108230121D02*
X111429395Y-108277740D01*
X111429395Y-108277740D02*
X111381776Y-108372978D01*
X111381776Y-108372978D02*
X111381776Y-108515835D01*
X111381776Y-108515835D02*
X111429395Y-108611073D01*
X111429395Y-108611073D02*
X111477014Y-108658692D01*
X111477014Y-108658692D02*
X111572252Y-108706311D01*
X111572252Y-108706311D02*
X111953204Y-108706311D01*
X189906666Y-120914819D02*
X190239999Y-120438628D01*
X190478094Y-120914819D02*
X190478094Y-119914819D01*
X190478094Y-119914819D02*
X190097142Y-119914819D01*
X190097142Y-119914819D02*
X190001904Y-119962438D01*
X190001904Y-119962438D02*
X189954285Y-120010057D01*
X189954285Y-120010057D02*
X189906666Y-120105295D01*
X189906666Y-120105295D02*
X189906666Y-120248152D01*
X189906666Y-120248152D02*
X189954285Y-120343390D01*
X189954285Y-120343390D02*
X190001904Y-120391009D01*
X190001904Y-120391009D02*
X190097142Y-120438628D01*
X190097142Y-120438628D02*
X190478094Y-120438628D01*
X189049523Y-119914819D02*
X189239999Y-119914819D01*
X189239999Y-119914819D02*
X189335237Y-119962438D01*
X189335237Y-119962438D02*
X189382856Y-120010057D01*
X189382856Y-120010057D02*
X189478094Y-120152914D01*
X189478094Y-120152914D02*
X189525713Y-120343390D01*
X189525713Y-120343390D02*
X189525713Y-120724342D01*
X189525713Y-120724342D02*
X189478094Y-120819580D01*
X189478094Y-120819580D02*
X189430475Y-120867200D01*
X189430475Y-120867200D02*
X189335237Y-120914819D01*
X189335237Y-120914819D02*
X189144761Y-120914819D01*
X189144761Y-120914819D02*
X189049523Y-120867200D01*
X189049523Y-120867200D02*
X189001904Y-120819580D01*
X189001904Y-120819580D02*
X188954285Y-120724342D01*
X188954285Y-120724342D02*
X188954285Y-120486247D01*
X188954285Y-120486247D02*
X189001904Y-120391009D01*
X189001904Y-120391009D02*
X189049523Y-120343390D01*
X189049523Y-120343390D02*
X189144761Y-120295771D01*
X189144761Y-120295771D02*
X189335237Y-120295771D01*
X189335237Y-120295771D02*
X189430475Y-120343390D01*
X189430475Y-120343390D02*
X189478094Y-120391009D01*
X189478094Y-120391009D02*
X189525713Y-120486247D01*
X188786666Y-85529580D02*
X188834285Y-85577200D01*
X188834285Y-85577200D02*
X188977142Y-85624819D01*
X188977142Y-85624819D02*
X189072380Y-85624819D01*
X189072380Y-85624819D02*
X189215237Y-85577200D01*
X189215237Y-85577200D02*
X189310475Y-85481961D01*
X189310475Y-85481961D02*
X189358094Y-85386723D01*
X189358094Y-85386723D02*
X189405713Y-85196247D01*
X189405713Y-85196247D02*
X189405713Y-85053390D01*
X189405713Y-85053390D02*
X189358094Y-84862914D01*
X189358094Y-84862914D02*
X189310475Y-84767676D01*
X189310475Y-84767676D02*
X189215237Y-84672438D01*
X189215237Y-84672438D02*
X189072380Y-84624819D01*
X189072380Y-84624819D02*
X188977142Y-84624819D01*
X188977142Y-84624819D02*
X188834285Y-84672438D01*
X188834285Y-84672438D02*
X188786666Y-84720057D01*
X188215237Y-85053390D02*
X188310475Y-85005771D01*
X188310475Y-85005771D02*
X188358094Y-84958152D01*
X188358094Y-84958152D02*
X188405713Y-84862914D01*
X188405713Y-84862914D02*
X188405713Y-84815295D01*
X188405713Y-84815295D02*
X188358094Y-84720057D01*
X188358094Y-84720057D02*
X188310475Y-84672438D01*
X188310475Y-84672438D02*
X188215237Y-84624819D01*
X188215237Y-84624819D02*
X188024761Y-84624819D01*
X188024761Y-84624819D02*
X187929523Y-84672438D01*
X187929523Y-84672438D02*
X187881904Y-84720057D01*
X187881904Y-84720057D02*
X187834285Y-84815295D01*
X187834285Y-84815295D02*
X187834285Y-84862914D01*
X187834285Y-84862914D02*
X187881904Y-84958152D01*
X187881904Y-84958152D02*
X187929523Y-85005771D01*
X187929523Y-85005771D02*
X188024761Y-85053390D01*
X188024761Y-85053390D02*
X188215237Y-85053390D01*
X188215237Y-85053390D02*
X188310475Y-85101009D01*
X188310475Y-85101009D02*
X188358094Y-85148628D01*
X188358094Y-85148628D02*
X188405713Y-85243866D01*
X188405713Y-85243866D02*
X188405713Y-85434342D01*
X188405713Y-85434342D02*
X188358094Y-85529580D01*
X188358094Y-85529580D02*
X188310475Y-85577200D01*
X188310475Y-85577200D02*
X188215237Y-85624819D01*
X188215237Y-85624819D02*
X188024761Y-85624819D01*
X188024761Y-85624819D02*
X187929523Y-85577200D01*
X187929523Y-85577200D02*
X187881904Y-85529580D01*
X187881904Y-85529580D02*
X187834285Y-85434342D01*
X187834285Y-85434342D02*
X187834285Y-85243866D01*
X187834285Y-85243866D02*
X187881904Y-85148628D01*
X187881904Y-85148628D02*
X187929523Y-85101009D01*
X187929523Y-85101009D02*
X188024761Y-85053390D01*
X107065713Y-98734819D02*
X107065713Y-97734819D01*
X107065713Y-97734819D02*
X106494285Y-98734819D01*
X106494285Y-98734819D02*
X106494285Y-97734819D01*
X112063204Y-98755390D02*
X112063204Y-97755390D01*
X112063204Y-97755390D02*
X111682252Y-97755390D01*
X111682252Y-97755390D02*
X111587014Y-97803009D01*
X111587014Y-97803009D02*
X111539395Y-97850628D01*
X111539395Y-97850628D02*
X111491776Y-97945866D01*
X111491776Y-97945866D02*
X111491776Y-98088723D01*
X111491776Y-98088723D02*
X111539395Y-98183961D01*
X111539395Y-98183961D02*
X111587014Y-98231580D01*
X111587014Y-98231580D02*
X111682252Y-98279199D01*
X111682252Y-98279199D02*
X112063204Y-98279199D01*
D11*
X146734318Y-79866667D02*
X147641461Y-79866667D01*
X147641461Y-79866667D02*
X147822889Y-79806190D01*
X147822889Y-79806190D02*
X147943842Y-79685238D01*
X147943842Y-79685238D02*
X148004318Y-79503809D01*
X148004318Y-79503809D02*
X148004318Y-79382857D01*
X146734318Y-81076190D02*
X146734318Y-80471428D01*
X146734318Y-80471428D02*
X147339080Y-80410952D01*
X147339080Y-80410952D02*
X147278603Y-80471428D01*
X147278603Y-80471428D02*
X147218127Y-80592381D01*
X147218127Y-80592381D02*
X147218127Y-80894762D01*
X147218127Y-80894762D02*
X147278603Y-81015714D01*
X147278603Y-81015714D02*
X147339080Y-81076190D01*
X147339080Y-81076190D02*
X147460032Y-81136667D01*
X147460032Y-81136667D02*
X147762413Y-81136667D01*
X147762413Y-81136667D02*
X147883365Y-81076190D01*
X147883365Y-81076190D02*
X147943842Y-81015714D01*
X147943842Y-81015714D02*
X148004318Y-80894762D01*
X148004318Y-80894762D02*
X148004318Y-80592381D01*
X148004318Y-80592381D02*
X147943842Y-80471428D01*
X147943842Y-80471428D02*
X147883365Y-80410952D01*
X165469762Y-113864318D02*
X165469762Y-112594318D01*
X164139285Y-113743365D02*
X164199761Y-113803842D01*
X164199761Y-113803842D02*
X164381190Y-113864318D01*
X164381190Y-113864318D02*
X164502142Y-113864318D01*
X164502142Y-113864318D02*
X164683571Y-113803842D01*
X164683571Y-113803842D02*
X164804523Y-113682889D01*
X164804523Y-113682889D02*
X164865000Y-113561937D01*
X164865000Y-113561937D02*
X164925476Y-113320032D01*
X164925476Y-113320032D02*
X164925476Y-113138603D01*
X164925476Y-113138603D02*
X164865000Y-112896699D01*
X164865000Y-112896699D02*
X164804523Y-112775746D01*
X164804523Y-112775746D02*
X164683571Y-112654794D01*
X164683571Y-112654794D02*
X164502142Y-112594318D01*
X164502142Y-112594318D02*
X164381190Y-112594318D01*
X164381190Y-112594318D02*
X164199761Y-112654794D01*
X164199761Y-112654794D02*
X164139285Y-112715270D01*
X162990238Y-112594318D02*
X163595000Y-112594318D01*
X163595000Y-112594318D02*
X163655476Y-113199080D01*
X163655476Y-113199080D02*
X163595000Y-113138603D01*
X163595000Y-113138603D02*
X163474047Y-113078127D01*
X163474047Y-113078127D02*
X163171666Y-113078127D01*
X163171666Y-113078127D02*
X163050714Y-113138603D01*
X163050714Y-113138603D02*
X162990238Y-113199080D01*
X162990238Y-113199080D02*
X162929761Y-113320032D01*
X162929761Y-113320032D02*
X162929761Y-113622413D01*
X162929761Y-113622413D02*
X162990238Y-113743365D01*
X162990238Y-113743365D02*
X163050714Y-113803842D01*
X163050714Y-113803842D02*
X163171666Y-113864318D01*
X163171666Y-113864318D02*
X163474047Y-113864318D01*
X163474047Y-113864318D02*
X163595000Y-113803842D01*
X163595000Y-113803842D02*
X163655476Y-113743365D01*
D10*
X105012857Y-87114819D02*
X105346190Y-86638628D01*
X105584285Y-87114819D02*
X105584285Y-86114819D01*
X105584285Y-86114819D02*
X105203333Y-86114819D01*
X105203333Y-86114819D02*
X105108095Y-86162438D01*
X105108095Y-86162438D02*
X105060476Y-86210057D01*
X105060476Y-86210057D02*
X105012857Y-86305295D01*
X105012857Y-86305295D02*
X105012857Y-86448152D01*
X105012857Y-86448152D02*
X105060476Y-86543390D01*
X105060476Y-86543390D02*
X105108095Y-86591009D01*
X105108095Y-86591009D02*
X105203333Y-86638628D01*
X105203333Y-86638628D02*
X105584285Y-86638628D01*
X104108095Y-86114819D02*
X104584285Y-86114819D01*
X104584285Y-86114819D02*
X104631904Y-86591009D01*
X104631904Y-86591009D02*
X104584285Y-86543390D01*
X104584285Y-86543390D02*
X104489047Y-86495771D01*
X104489047Y-86495771D02*
X104250952Y-86495771D01*
X104250952Y-86495771D02*
X104155714Y-86543390D01*
X104155714Y-86543390D02*
X104108095Y-86591009D01*
X104108095Y-86591009D02*
X104060476Y-86686247D01*
X104060476Y-86686247D02*
X104060476Y-86924342D01*
X104060476Y-86924342D02*
X104108095Y-87019580D01*
X104108095Y-87019580D02*
X104155714Y-87067200D01*
X104155714Y-87067200D02*
X104250952Y-87114819D01*
X104250952Y-87114819D02*
X104489047Y-87114819D01*
X104489047Y-87114819D02*
X104584285Y-87067200D01*
X104584285Y-87067200D02*
X104631904Y-87019580D01*
X103727142Y-86114819D02*
X103060476Y-86114819D01*
X103060476Y-86114819D02*
X103489047Y-87114819D01*
X115401904Y-109044819D02*
X115401904Y-108044819D01*
X115401904Y-108044819D02*
X115020952Y-108044819D01*
X115020952Y-108044819D02*
X114925714Y-108092438D01*
X114925714Y-108092438D02*
X114878095Y-108140057D01*
X114878095Y-108140057D02*
X114830476Y-108235295D01*
X114830476Y-108235295D02*
X114830476Y-108378152D01*
X114830476Y-108378152D02*
X114878095Y-108473390D01*
X114878095Y-108473390D02*
X114925714Y-108521009D01*
X114925714Y-108521009D02*
X115020952Y-108568628D01*
X115020952Y-108568628D02*
X115401904Y-108568628D01*
X120495713Y-109054819D02*
X120495713Y-108054819D01*
X120495713Y-108054819D02*
X119924285Y-109054819D01*
X119924285Y-109054819D02*
X119924285Y-108054819D01*
X105012857Y-92154819D02*
X105346190Y-91678628D01*
X105584285Y-92154819D02*
X105584285Y-91154819D01*
X105584285Y-91154819D02*
X105203333Y-91154819D01*
X105203333Y-91154819D02*
X105108095Y-91202438D01*
X105108095Y-91202438D02*
X105060476Y-91250057D01*
X105060476Y-91250057D02*
X105012857Y-91345295D01*
X105012857Y-91345295D02*
X105012857Y-91488152D01*
X105012857Y-91488152D02*
X105060476Y-91583390D01*
X105060476Y-91583390D02*
X105108095Y-91631009D01*
X105108095Y-91631009D02*
X105203333Y-91678628D01*
X105203333Y-91678628D02*
X105584285Y-91678628D01*
X104679523Y-91154819D02*
X104012857Y-91154819D01*
X104012857Y-91154819D02*
X104441428Y-92154819D01*
X103727142Y-91154819D02*
X103108095Y-91154819D01*
X103108095Y-91154819D02*
X103441428Y-91535771D01*
X103441428Y-91535771D02*
X103298571Y-91535771D01*
X103298571Y-91535771D02*
X103203333Y-91583390D01*
X103203333Y-91583390D02*
X103155714Y-91631009D01*
X103155714Y-91631009D02*
X103108095Y-91726247D01*
X103108095Y-91726247D02*
X103108095Y-91964342D01*
X103108095Y-91964342D02*
X103155714Y-92059580D01*
X103155714Y-92059580D02*
X103203333Y-92107200D01*
X103203333Y-92107200D02*
X103298571Y-92154819D01*
X103298571Y-92154819D02*
X103584285Y-92154819D01*
X103584285Y-92154819D02*
X103679523Y-92107200D01*
X103679523Y-92107200D02*
X103727142Y-92059580D01*
X164862857Y-78799580D02*
X164910476Y-78847200D01*
X164910476Y-78847200D02*
X165053333Y-78894819D01*
X165053333Y-78894819D02*
X165148571Y-78894819D01*
X165148571Y-78894819D02*
X165291428Y-78847200D01*
X165291428Y-78847200D02*
X165386666Y-78751961D01*
X165386666Y-78751961D02*
X165434285Y-78656723D01*
X165434285Y-78656723D02*
X165481904Y-78466247D01*
X165481904Y-78466247D02*
X165481904Y-78323390D01*
X165481904Y-78323390D02*
X165434285Y-78132914D01*
X165434285Y-78132914D02*
X165386666Y-78037676D01*
X165386666Y-78037676D02*
X165291428Y-77942438D01*
X165291428Y-77942438D02*
X165148571Y-77894819D01*
X165148571Y-77894819D02*
X165053333Y-77894819D01*
X165053333Y-77894819D02*
X164910476Y-77942438D01*
X164910476Y-77942438D02*
X164862857Y-77990057D01*
X163910476Y-78894819D02*
X164481904Y-78894819D01*
X164196190Y-78894819D02*
X164196190Y-77894819D01*
X164196190Y-77894819D02*
X164291428Y-78037676D01*
X164291428Y-78037676D02*
X164386666Y-78132914D01*
X164386666Y-78132914D02*
X164481904Y-78180533D01*
X162958095Y-78894819D02*
X163529523Y-78894819D01*
X163243809Y-78894819D02*
X163243809Y-77894819D01*
X163243809Y-77894819D02*
X163339047Y-78037676D01*
X163339047Y-78037676D02*
X163434285Y-78132914D01*
X163434285Y-78132914D02*
X163529523Y-78180533D01*
X115405713Y-111694819D02*
X115405713Y-110694819D01*
X115405713Y-110694819D02*
X114834285Y-111694819D01*
X114834285Y-111694819D02*
X114834285Y-110694819D01*
X120421904Y-111694819D02*
X120421904Y-110694819D01*
X120421904Y-110694819D02*
X120040952Y-110694819D01*
X120040952Y-110694819D02*
X119945714Y-110742438D01*
X119945714Y-110742438D02*
X119898095Y-110790057D01*
X119898095Y-110790057D02*
X119850476Y-110885295D01*
X119850476Y-110885295D02*
X119850476Y-111028152D01*
X119850476Y-111028152D02*
X119898095Y-111123390D01*
X119898095Y-111123390D02*
X119945714Y-111171009D01*
X119945714Y-111171009D02*
X120040952Y-111218628D01*
X120040952Y-111218628D02*
X120421904Y-111218628D01*
X196734819Y-82843333D02*
X196258628Y-82510000D01*
X196734819Y-82271905D02*
X195734819Y-82271905D01*
X195734819Y-82271905D02*
X195734819Y-82652857D01*
X195734819Y-82652857D02*
X195782438Y-82748095D01*
X195782438Y-82748095D02*
X195830057Y-82795714D01*
X195830057Y-82795714D02*
X195925295Y-82843333D01*
X195925295Y-82843333D02*
X196068152Y-82843333D01*
X196068152Y-82843333D02*
X196163390Y-82795714D01*
X196163390Y-82795714D02*
X196211009Y-82748095D01*
X196211009Y-82748095D02*
X196258628Y-82652857D01*
X196258628Y-82652857D02*
X196258628Y-82271905D01*
X196068152Y-83700476D02*
X196734819Y-83700476D01*
X195687200Y-83462381D02*
X196401485Y-83224286D01*
X196401485Y-83224286D02*
X196401485Y-83843333D01*
X141614819Y-86903333D02*
X141138628Y-86570000D01*
X141614819Y-86331905D02*
X140614819Y-86331905D01*
X140614819Y-86331905D02*
X140614819Y-86712857D01*
X140614819Y-86712857D02*
X140662438Y-86808095D01*
X140662438Y-86808095D02*
X140710057Y-86855714D01*
X140710057Y-86855714D02*
X140805295Y-86903333D01*
X140805295Y-86903333D02*
X140948152Y-86903333D01*
X140948152Y-86903333D02*
X141043390Y-86855714D01*
X141043390Y-86855714D02*
X141091009Y-86808095D01*
X141091009Y-86808095D02*
X141138628Y-86712857D01*
X141138628Y-86712857D02*
X141138628Y-86331905D01*
X141614819Y-87855714D02*
X141614819Y-87284286D01*
X141614819Y-87570000D02*
X140614819Y-87570000D01*
X140614819Y-87570000D02*
X140757676Y-87474762D01*
X140757676Y-87474762D02*
X140852914Y-87379524D01*
X140852914Y-87379524D02*
X140900533Y-87284286D01*
D11*
X192561666Y-104794318D02*
X193166428Y-104794318D01*
X193166428Y-104794318D02*
X193166428Y-103524318D01*
X191473094Y-104794318D02*
X192198809Y-104794318D01*
X191835952Y-104794318D02*
X191835952Y-103524318D01*
X191835952Y-103524318D02*
X191956904Y-103705746D01*
X191956904Y-103705746D02*
X192077856Y-103826699D01*
X192077856Y-103826699D02*
X192198809Y-103887175D01*
D10*
X105489047Y-104984819D02*
X105822380Y-104508628D01*
X106060475Y-104984819D02*
X106060475Y-103984819D01*
X106060475Y-103984819D02*
X105679523Y-103984819D01*
X105679523Y-103984819D02*
X105584285Y-104032438D01*
X105584285Y-104032438D02*
X105536666Y-104080057D01*
X105536666Y-104080057D02*
X105489047Y-104175295D01*
X105489047Y-104175295D02*
X105489047Y-104318152D01*
X105489047Y-104318152D02*
X105536666Y-104413390D01*
X105536666Y-104413390D02*
X105584285Y-104461009D01*
X105584285Y-104461009D02*
X105679523Y-104508628D01*
X105679523Y-104508628D02*
X106060475Y-104508628D01*
X104536666Y-104984819D02*
X105108094Y-104984819D01*
X104822380Y-104984819D02*
X104822380Y-103984819D01*
X104822380Y-103984819D02*
X104917618Y-104127676D01*
X104917618Y-104127676D02*
X105012856Y-104222914D01*
X105012856Y-104222914D02*
X105108094Y-104270533D01*
X103917618Y-103984819D02*
X103822380Y-103984819D01*
X103822380Y-103984819D02*
X103727142Y-104032438D01*
X103727142Y-104032438D02*
X103679523Y-104080057D01*
X103679523Y-104080057D02*
X103631904Y-104175295D01*
X103631904Y-104175295D02*
X103584285Y-104365771D01*
X103584285Y-104365771D02*
X103584285Y-104603866D01*
X103584285Y-104603866D02*
X103631904Y-104794342D01*
X103631904Y-104794342D02*
X103679523Y-104889580D01*
X103679523Y-104889580D02*
X103727142Y-104937200D01*
X103727142Y-104937200D02*
X103822380Y-104984819D01*
X103822380Y-104984819D02*
X103917618Y-104984819D01*
X103917618Y-104984819D02*
X104012856Y-104937200D01*
X104012856Y-104937200D02*
X104060475Y-104889580D01*
X104060475Y-104889580D02*
X104108094Y-104794342D01*
X104108094Y-104794342D02*
X104155713Y-104603866D01*
X104155713Y-104603866D02*
X104155713Y-104365771D01*
X104155713Y-104365771D02*
X104108094Y-104175295D01*
X104108094Y-104175295D02*
X104060475Y-104080057D01*
X104060475Y-104080057D02*
X104012856Y-104032438D01*
X104012856Y-104032438D02*
X103917618Y-103984819D01*
X102727142Y-104318152D02*
X102727142Y-104984819D01*
X102965237Y-103937200D02*
X103203332Y-104651485D01*
X103203332Y-104651485D02*
X102584285Y-104651485D01*
X199786666Y-92369580D02*
X199834285Y-92417200D01*
X199834285Y-92417200D02*
X199977142Y-92464819D01*
X199977142Y-92464819D02*
X200072380Y-92464819D01*
X200072380Y-92464819D02*
X200215237Y-92417200D01*
X200215237Y-92417200D02*
X200310475Y-92321961D01*
X200310475Y-92321961D02*
X200358094Y-92226723D01*
X200358094Y-92226723D02*
X200405713Y-92036247D01*
X200405713Y-92036247D02*
X200405713Y-91893390D01*
X200405713Y-91893390D02*
X200358094Y-91702914D01*
X200358094Y-91702914D02*
X200310475Y-91607676D01*
X200310475Y-91607676D02*
X200215237Y-91512438D01*
X200215237Y-91512438D02*
X200072380Y-91464819D01*
X200072380Y-91464819D02*
X199977142Y-91464819D01*
X199977142Y-91464819D02*
X199834285Y-91512438D01*
X199834285Y-91512438D02*
X199786666Y-91560057D01*
X199405713Y-91560057D02*
X199358094Y-91512438D01*
X199358094Y-91512438D02*
X199262856Y-91464819D01*
X199262856Y-91464819D02*
X199024761Y-91464819D01*
X199024761Y-91464819D02*
X198929523Y-91512438D01*
X198929523Y-91512438D02*
X198881904Y-91560057D01*
X198881904Y-91560057D02*
X198834285Y-91655295D01*
X198834285Y-91655295D02*
X198834285Y-91750533D01*
X198834285Y-91750533D02*
X198881904Y-91893390D01*
X198881904Y-91893390D02*
X199453332Y-92464819D01*
X199453332Y-92464819D02*
X198834285Y-92464819D01*
X105012857Y-94774819D02*
X105346190Y-94298628D01*
X105584285Y-94774819D02*
X105584285Y-93774819D01*
X105584285Y-93774819D02*
X105203333Y-93774819D01*
X105203333Y-93774819D02*
X105108095Y-93822438D01*
X105108095Y-93822438D02*
X105060476Y-93870057D01*
X105060476Y-93870057D02*
X105012857Y-93965295D01*
X105012857Y-93965295D02*
X105012857Y-94108152D01*
X105012857Y-94108152D02*
X105060476Y-94203390D01*
X105060476Y-94203390D02*
X105108095Y-94251009D01*
X105108095Y-94251009D02*
X105203333Y-94298628D01*
X105203333Y-94298628D02*
X105584285Y-94298628D01*
X104679523Y-93774819D02*
X104012857Y-93774819D01*
X104012857Y-93774819D02*
X104441428Y-94774819D01*
X103679523Y-93870057D02*
X103631904Y-93822438D01*
X103631904Y-93822438D02*
X103536666Y-93774819D01*
X103536666Y-93774819D02*
X103298571Y-93774819D01*
X103298571Y-93774819D02*
X103203333Y-93822438D01*
X103203333Y-93822438D02*
X103155714Y-93870057D01*
X103155714Y-93870057D02*
X103108095Y-93965295D01*
X103108095Y-93965295D02*
X103108095Y-94060533D01*
X103108095Y-94060533D02*
X103155714Y-94203390D01*
X103155714Y-94203390D02*
X103727142Y-94774819D01*
X103727142Y-94774819D02*
X103108095Y-94774819D01*
D11*
X153563332Y-101854318D02*
X153563332Y-102761461D01*
X153563332Y-102761461D02*
X153623809Y-102942889D01*
X153623809Y-102942889D02*
X153744761Y-103063842D01*
X153744761Y-103063842D02*
X153926190Y-103124318D01*
X153926190Y-103124318D02*
X154047142Y-103124318D01*
X152293332Y-103124318D02*
X153019047Y-103124318D01*
X152656190Y-103124318D02*
X152656190Y-101854318D01*
X152656190Y-101854318D02*
X152777142Y-102035746D01*
X152777142Y-102035746D02*
X152898094Y-102156699D01*
X152898094Y-102156699D02*
X153019047Y-102217175D01*
D10*
X174732857Y-81864819D02*
X175066190Y-81388628D01*
X175304285Y-81864819D02*
X175304285Y-80864819D01*
X175304285Y-80864819D02*
X174923333Y-80864819D01*
X174923333Y-80864819D02*
X174828095Y-80912438D01*
X174828095Y-80912438D02*
X174780476Y-80960057D01*
X174780476Y-80960057D02*
X174732857Y-81055295D01*
X174732857Y-81055295D02*
X174732857Y-81198152D01*
X174732857Y-81198152D02*
X174780476Y-81293390D01*
X174780476Y-81293390D02*
X174828095Y-81341009D01*
X174828095Y-81341009D02*
X174923333Y-81388628D01*
X174923333Y-81388628D02*
X175304285Y-81388628D01*
X173780476Y-81864819D02*
X174351904Y-81864819D01*
X174066190Y-81864819D02*
X174066190Y-80864819D01*
X174066190Y-80864819D02*
X174161428Y-81007676D01*
X174161428Y-81007676D02*
X174256666Y-81102914D01*
X174256666Y-81102914D02*
X174351904Y-81150533D01*
X172923333Y-81198152D02*
X172923333Y-81864819D01*
X173161428Y-80817200D02*
X173399523Y-81531485D01*
X173399523Y-81531485D02*
X172780476Y-81531485D01*
X112011904Y-114394819D02*
X112011904Y-113394819D01*
X112011904Y-113394819D02*
X111630952Y-113394819D01*
X111630952Y-113394819D02*
X111535714Y-113442438D01*
X111535714Y-113442438D02*
X111488095Y-113490057D01*
X111488095Y-113490057D02*
X111440476Y-113585295D01*
X111440476Y-113585295D02*
X111440476Y-113728152D01*
X111440476Y-113728152D02*
X111488095Y-113823390D01*
X111488095Y-113823390D02*
X111535714Y-113871009D01*
X111535714Y-113871009D02*
X111630952Y-113918628D01*
X111630952Y-113918628D02*
X112011904Y-113918628D01*
X106955713Y-114304819D02*
X106955713Y-113304819D01*
X106955713Y-113304819D02*
X106384285Y-114304819D01*
X106384285Y-114304819D02*
X106384285Y-113304819D01*
X175162857Y-101864819D02*
X175496190Y-101388628D01*
X175734285Y-101864819D02*
X175734285Y-100864819D01*
X175734285Y-100864819D02*
X175353333Y-100864819D01*
X175353333Y-100864819D02*
X175258095Y-100912438D01*
X175258095Y-100912438D02*
X175210476Y-100960057D01*
X175210476Y-100960057D02*
X175162857Y-101055295D01*
X175162857Y-101055295D02*
X175162857Y-101198152D01*
X175162857Y-101198152D02*
X175210476Y-101293390D01*
X175210476Y-101293390D02*
X175258095Y-101341009D01*
X175258095Y-101341009D02*
X175353333Y-101388628D01*
X175353333Y-101388628D02*
X175734285Y-101388628D01*
X174210476Y-101864819D02*
X174781904Y-101864819D01*
X174496190Y-101864819D02*
X174496190Y-100864819D01*
X174496190Y-100864819D02*
X174591428Y-101007676D01*
X174591428Y-101007676D02*
X174686666Y-101102914D01*
X174686666Y-101102914D02*
X174781904Y-101150533D01*
X173877142Y-100864819D02*
X173258095Y-100864819D01*
X173258095Y-100864819D02*
X173591428Y-101245771D01*
X173591428Y-101245771D02*
X173448571Y-101245771D01*
X173448571Y-101245771D02*
X173353333Y-101293390D01*
X173353333Y-101293390D02*
X173305714Y-101341009D01*
X173305714Y-101341009D02*
X173258095Y-101436247D01*
X173258095Y-101436247D02*
X173258095Y-101674342D01*
X173258095Y-101674342D02*
X173305714Y-101769580D01*
X173305714Y-101769580D02*
X173353333Y-101817200D01*
X173353333Y-101817200D02*
X173448571Y-101864819D01*
X173448571Y-101864819D02*
X173734285Y-101864819D01*
X173734285Y-101864819D02*
X173829523Y-101817200D01*
X173829523Y-101817200D02*
X173877142Y-101769580D01*
D11*
X194059762Y-120814318D02*
X194059762Y-119544318D01*
X192729285Y-120693365D02*
X192789761Y-120753842D01*
X192789761Y-120753842D02*
X192971190Y-120814318D01*
X192971190Y-120814318D02*
X193092142Y-120814318D01*
X193092142Y-120814318D02*
X193273571Y-120753842D01*
X193273571Y-120753842D02*
X193394523Y-120632889D01*
X193394523Y-120632889D02*
X193455000Y-120511937D01*
X193455000Y-120511937D02*
X193515476Y-120270032D01*
X193515476Y-120270032D02*
X193515476Y-120088603D01*
X193515476Y-120088603D02*
X193455000Y-119846699D01*
X193455000Y-119846699D02*
X193394523Y-119725746D01*
X193394523Y-119725746D02*
X193273571Y-119604794D01*
X193273571Y-119604794D02*
X193092142Y-119544318D01*
X193092142Y-119544318D02*
X192971190Y-119544318D01*
X192971190Y-119544318D02*
X192789761Y-119604794D01*
X192789761Y-119604794D02*
X192729285Y-119665270D01*
X191519761Y-120814318D02*
X192245476Y-120814318D01*
X191882619Y-120814318D02*
X191882619Y-119544318D01*
X191882619Y-119544318D02*
X192003571Y-119725746D01*
X192003571Y-119725746D02*
X192124523Y-119846699D01*
X192124523Y-119846699D02*
X192245476Y-119907175D01*
D10*
X105012857Y-97254819D02*
X105346190Y-96778628D01*
X105584285Y-97254819D02*
X105584285Y-96254819D01*
X105584285Y-96254819D02*
X105203333Y-96254819D01*
X105203333Y-96254819D02*
X105108095Y-96302438D01*
X105108095Y-96302438D02*
X105060476Y-96350057D01*
X105060476Y-96350057D02*
X105012857Y-96445295D01*
X105012857Y-96445295D02*
X105012857Y-96588152D01*
X105012857Y-96588152D02*
X105060476Y-96683390D01*
X105060476Y-96683390D02*
X105108095Y-96731009D01*
X105108095Y-96731009D02*
X105203333Y-96778628D01*
X105203333Y-96778628D02*
X105584285Y-96778628D01*
X104441428Y-96683390D02*
X104536666Y-96635771D01*
X104536666Y-96635771D02*
X104584285Y-96588152D01*
X104584285Y-96588152D02*
X104631904Y-96492914D01*
X104631904Y-96492914D02*
X104631904Y-96445295D01*
X104631904Y-96445295D02*
X104584285Y-96350057D01*
X104584285Y-96350057D02*
X104536666Y-96302438D01*
X104536666Y-96302438D02*
X104441428Y-96254819D01*
X104441428Y-96254819D02*
X104250952Y-96254819D01*
X104250952Y-96254819D02*
X104155714Y-96302438D01*
X104155714Y-96302438D02*
X104108095Y-96350057D01*
X104108095Y-96350057D02*
X104060476Y-96445295D01*
X104060476Y-96445295D02*
X104060476Y-96492914D01*
X104060476Y-96492914D02*
X104108095Y-96588152D01*
X104108095Y-96588152D02*
X104155714Y-96635771D01*
X104155714Y-96635771D02*
X104250952Y-96683390D01*
X104250952Y-96683390D02*
X104441428Y-96683390D01*
X104441428Y-96683390D02*
X104536666Y-96731009D01*
X104536666Y-96731009D02*
X104584285Y-96778628D01*
X104584285Y-96778628D02*
X104631904Y-96873866D01*
X104631904Y-96873866D02*
X104631904Y-97064342D01*
X104631904Y-97064342D02*
X104584285Y-97159580D01*
X104584285Y-97159580D02*
X104536666Y-97207200D01*
X104536666Y-97207200D02*
X104441428Y-97254819D01*
X104441428Y-97254819D02*
X104250952Y-97254819D01*
X104250952Y-97254819D02*
X104155714Y-97207200D01*
X104155714Y-97207200D02*
X104108095Y-97159580D01*
X104108095Y-97159580D02*
X104060476Y-97064342D01*
X104060476Y-97064342D02*
X104060476Y-96873866D01*
X104060476Y-96873866D02*
X104108095Y-96778628D01*
X104108095Y-96778628D02*
X104155714Y-96731009D01*
X104155714Y-96731009D02*
X104250952Y-96683390D01*
X103584285Y-97254819D02*
X103393809Y-97254819D01*
X103393809Y-97254819D02*
X103298571Y-97207200D01*
X103298571Y-97207200D02*
X103250952Y-97159580D01*
X103250952Y-97159580D02*
X103155714Y-97016723D01*
X103155714Y-97016723D02*
X103108095Y-96826247D01*
X103108095Y-96826247D02*
X103108095Y-96445295D01*
X103108095Y-96445295D02*
X103155714Y-96350057D01*
X103155714Y-96350057D02*
X103203333Y-96302438D01*
X103203333Y-96302438D02*
X103298571Y-96254819D01*
X103298571Y-96254819D02*
X103489047Y-96254819D01*
X103489047Y-96254819D02*
X103584285Y-96302438D01*
X103584285Y-96302438D02*
X103631904Y-96350057D01*
X103631904Y-96350057D02*
X103679523Y-96445295D01*
X103679523Y-96445295D02*
X103679523Y-96683390D01*
X103679523Y-96683390D02*
X103631904Y-96778628D01*
X103631904Y-96778628D02*
X103584285Y-96826247D01*
X103584285Y-96826247D02*
X103489047Y-96873866D01*
X103489047Y-96873866D02*
X103298571Y-96873866D01*
X103298571Y-96873866D02*
X103203333Y-96826247D01*
X103203333Y-96826247D02*
X103155714Y-96778628D01*
X103155714Y-96778628D02*
X103108095Y-96683390D01*
X105489047Y-102354819D02*
X105822380Y-101878628D01*
X106060475Y-102354819D02*
X106060475Y-101354819D01*
X106060475Y-101354819D02*
X105679523Y-101354819D01*
X105679523Y-101354819D02*
X105584285Y-101402438D01*
X105584285Y-101402438D02*
X105536666Y-101450057D01*
X105536666Y-101450057D02*
X105489047Y-101545295D01*
X105489047Y-101545295D02*
X105489047Y-101688152D01*
X105489047Y-101688152D02*
X105536666Y-101783390D01*
X105536666Y-101783390D02*
X105584285Y-101831009D01*
X105584285Y-101831009D02*
X105679523Y-101878628D01*
X105679523Y-101878628D02*
X106060475Y-101878628D01*
X104536666Y-102354819D02*
X105108094Y-102354819D01*
X104822380Y-102354819D02*
X104822380Y-101354819D01*
X104822380Y-101354819D02*
X104917618Y-101497676D01*
X104917618Y-101497676D02*
X105012856Y-101592914D01*
X105012856Y-101592914D02*
X105108094Y-101640533D01*
X103917618Y-101354819D02*
X103822380Y-101354819D01*
X103822380Y-101354819D02*
X103727142Y-101402438D01*
X103727142Y-101402438D02*
X103679523Y-101450057D01*
X103679523Y-101450057D02*
X103631904Y-101545295D01*
X103631904Y-101545295D02*
X103584285Y-101735771D01*
X103584285Y-101735771D02*
X103584285Y-101973866D01*
X103584285Y-101973866D02*
X103631904Y-102164342D01*
X103631904Y-102164342D02*
X103679523Y-102259580D01*
X103679523Y-102259580D02*
X103727142Y-102307200D01*
X103727142Y-102307200D02*
X103822380Y-102354819D01*
X103822380Y-102354819D02*
X103917618Y-102354819D01*
X103917618Y-102354819D02*
X104012856Y-102307200D01*
X104012856Y-102307200D02*
X104060475Y-102259580D01*
X104060475Y-102259580D02*
X104108094Y-102164342D01*
X104108094Y-102164342D02*
X104155713Y-101973866D01*
X104155713Y-101973866D02*
X104155713Y-101735771D01*
X104155713Y-101735771D02*
X104108094Y-101545295D01*
X104108094Y-101545295D02*
X104060475Y-101450057D01*
X104060475Y-101450057D02*
X104012856Y-101402438D01*
X104012856Y-101402438D02*
X103917618Y-101354819D01*
X102679523Y-101354819D02*
X103155713Y-101354819D01*
X103155713Y-101354819D02*
X103203332Y-101831009D01*
X103203332Y-101831009D02*
X103155713Y-101783390D01*
X103155713Y-101783390D02*
X103060475Y-101735771D01*
X103060475Y-101735771D02*
X102822380Y-101735771D01*
X102822380Y-101735771D02*
X102727142Y-101783390D01*
X102727142Y-101783390D02*
X102679523Y-101831009D01*
X102679523Y-101831009D02*
X102631904Y-101926247D01*
X102631904Y-101926247D02*
X102631904Y-102164342D01*
X102631904Y-102164342D02*
X102679523Y-102259580D01*
X102679523Y-102259580D02*
X102727142Y-102307200D01*
X102727142Y-102307200D02*
X102822380Y-102354819D01*
X102822380Y-102354819D02*
X103060475Y-102354819D01*
X103060475Y-102354819D02*
X103155713Y-102307200D01*
X103155713Y-102307200D02*
X103203332Y-102259580D01*
X202876666Y-89694819D02*
X203209999Y-89218628D01*
X203448094Y-89694819D02*
X203448094Y-88694819D01*
X203448094Y-88694819D02*
X203067142Y-88694819D01*
X203067142Y-88694819D02*
X202971904Y-88742438D01*
X202971904Y-88742438D02*
X202924285Y-88790057D01*
X202924285Y-88790057D02*
X202876666Y-88885295D01*
X202876666Y-88885295D02*
X202876666Y-89028152D01*
X202876666Y-89028152D02*
X202924285Y-89123390D01*
X202924285Y-89123390D02*
X202971904Y-89171009D01*
X202971904Y-89171009D02*
X203067142Y-89218628D01*
X203067142Y-89218628D02*
X203448094Y-89218628D01*
X201971904Y-88694819D02*
X202448094Y-88694819D01*
X202448094Y-88694819D02*
X202495713Y-89171009D01*
X202495713Y-89171009D02*
X202448094Y-89123390D01*
X202448094Y-89123390D02*
X202352856Y-89075771D01*
X202352856Y-89075771D02*
X202114761Y-89075771D01*
X202114761Y-89075771D02*
X202019523Y-89123390D01*
X202019523Y-89123390D02*
X201971904Y-89171009D01*
X201971904Y-89171009D02*
X201924285Y-89266247D01*
X201924285Y-89266247D02*
X201924285Y-89504342D01*
X201924285Y-89504342D02*
X201971904Y-89599580D01*
X201971904Y-89599580D02*
X202019523Y-89647200D01*
X202019523Y-89647200D02*
X202114761Y-89694819D01*
X202114761Y-89694819D02*
X202352856Y-89694819D01*
X202352856Y-89694819D02*
X202448094Y-89647200D01*
X202448094Y-89647200D02*
X202495713Y-89599580D01*
X120505713Y-114304819D02*
X120505713Y-113304819D01*
X120505713Y-113304819D02*
X119934285Y-114304819D01*
X119934285Y-114304819D02*
X119934285Y-113304819D01*
X115381904Y-114094819D02*
X115381904Y-113094819D01*
X115381904Y-113094819D02*
X115000952Y-113094819D01*
X115000952Y-113094819D02*
X114905714Y-113142438D01*
X114905714Y-113142438D02*
X114858095Y-113190057D01*
X114858095Y-113190057D02*
X114810476Y-113285295D01*
X114810476Y-113285295D02*
X114810476Y-113428152D01*
X114810476Y-113428152D02*
X114858095Y-113523390D01*
X114858095Y-113523390D02*
X114905714Y-113571009D01*
X114905714Y-113571009D02*
X115000952Y-113618628D01*
X115000952Y-113618628D02*
X115381904Y-113618628D01*
X114935713Y-84047200D02*
X114792856Y-84094819D01*
X114792856Y-84094819D02*
X114554761Y-84094819D01*
X114554761Y-84094819D02*
X114459523Y-84047200D01*
X114459523Y-84047200D02*
X114411904Y-83999580D01*
X114411904Y-83999580D02*
X114364285Y-83904342D01*
X114364285Y-83904342D02*
X114364285Y-83809104D01*
X114364285Y-83809104D02*
X114411904Y-83713866D01*
X114411904Y-83713866D02*
X114459523Y-83666247D01*
X114459523Y-83666247D02*
X114554761Y-83618628D01*
X114554761Y-83618628D02*
X114745237Y-83571009D01*
X114745237Y-83571009D02*
X114840475Y-83523390D01*
X114840475Y-83523390D02*
X114888094Y-83475771D01*
X114888094Y-83475771D02*
X114935713Y-83380533D01*
X114935713Y-83380533D02*
X114935713Y-83285295D01*
X114935713Y-83285295D02*
X114888094Y-83190057D01*
X114888094Y-83190057D02*
X114840475Y-83142438D01*
X114840475Y-83142438D02*
X114745237Y-83094819D01*
X114745237Y-83094819D02*
X114507142Y-83094819D01*
X114507142Y-83094819D02*
X114364285Y-83142438D01*
X112531904Y-79264819D02*
X112531904Y-78264819D01*
X112531904Y-78264819D02*
X112293809Y-78264819D01*
X112293809Y-78264819D02*
X112150952Y-78312438D01*
X112150952Y-78312438D02*
X112055714Y-78407676D01*
X112055714Y-78407676D02*
X112008095Y-78502914D01*
X112008095Y-78502914D02*
X111960476Y-78693390D01*
X111960476Y-78693390D02*
X111960476Y-78836247D01*
X111960476Y-78836247D02*
X112008095Y-79026723D01*
X112008095Y-79026723D02*
X112055714Y-79121961D01*
X112055714Y-79121961D02*
X112150952Y-79217200D01*
X112150952Y-79217200D02*
X112293809Y-79264819D01*
X112293809Y-79264819D02*
X112531904Y-79264819D01*
X167432857Y-99484819D02*
X167766190Y-99008628D01*
X168004285Y-99484819D02*
X168004285Y-98484819D01*
X168004285Y-98484819D02*
X167623333Y-98484819D01*
X167623333Y-98484819D02*
X167528095Y-98532438D01*
X167528095Y-98532438D02*
X167480476Y-98580057D01*
X167480476Y-98580057D02*
X167432857Y-98675295D01*
X167432857Y-98675295D02*
X167432857Y-98818152D01*
X167432857Y-98818152D02*
X167480476Y-98913390D01*
X167480476Y-98913390D02*
X167528095Y-98961009D01*
X167528095Y-98961009D02*
X167623333Y-99008628D01*
X167623333Y-99008628D02*
X168004285Y-99008628D01*
X166480476Y-99484819D02*
X167051904Y-99484819D01*
X166766190Y-99484819D02*
X166766190Y-98484819D01*
X166766190Y-98484819D02*
X166861428Y-98627676D01*
X166861428Y-98627676D02*
X166956666Y-98722914D01*
X166956666Y-98722914D02*
X167051904Y-98770533D01*
X166099523Y-98580057D02*
X166051904Y-98532438D01*
X166051904Y-98532438D02*
X165956666Y-98484819D01*
X165956666Y-98484819D02*
X165718571Y-98484819D01*
X165718571Y-98484819D02*
X165623333Y-98532438D01*
X165623333Y-98532438D02*
X165575714Y-98580057D01*
X165575714Y-98580057D02*
X165528095Y-98675295D01*
X165528095Y-98675295D02*
X165528095Y-98770533D01*
X165528095Y-98770533D02*
X165575714Y-98913390D01*
X165575714Y-98913390D02*
X166147142Y-99484819D01*
X166147142Y-99484819D02*
X165528095Y-99484819D01*
X181876666Y-91699580D02*
X181924285Y-91747200D01*
X181924285Y-91747200D02*
X182067142Y-91794819D01*
X182067142Y-91794819D02*
X182162380Y-91794819D01*
X182162380Y-91794819D02*
X182305237Y-91747200D01*
X182305237Y-91747200D02*
X182400475Y-91651961D01*
X182400475Y-91651961D02*
X182448094Y-91556723D01*
X182448094Y-91556723D02*
X182495713Y-91366247D01*
X182495713Y-91366247D02*
X182495713Y-91223390D01*
X182495713Y-91223390D02*
X182448094Y-91032914D01*
X182448094Y-91032914D02*
X182400475Y-90937676D01*
X182400475Y-90937676D02*
X182305237Y-90842438D01*
X182305237Y-90842438D02*
X182162380Y-90794819D01*
X182162380Y-90794819D02*
X182067142Y-90794819D01*
X182067142Y-90794819D02*
X181924285Y-90842438D01*
X181924285Y-90842438D02*
X181876666Y-90890057D01*
X180924285Y-91794819D02*
X181495713Y-91794819D01*
X181209999Y-91794819D02*
X181209999Y-90794819D01*
X181209999Y-90794819D02*
X181305237Y-90937676D01*
X181305237Y-90937676D02*
X181400475Y-91032914D01*
X181400475Y-91032914D02*
X181495713Y-91080533D01*
X105012857Y-82014819D02*
X105346190Y-81538628D01*
X105584285Y-82014819D02*
X105584285Y-81014819D01*
X105584285Y-81014819D02*
X105203333Y-81014819D01*
X105203333Y-81014819D02*
X105108095Y-81062438D01*
X105108095Y-81062438D02*
X105060476Y-81110057D01*
X105060476Y-81110057D02*
X105012857Y-81205295D01*
X105012857Y-81205295D02*
X105012857Y-81348152D01*
X105012857Y-81348152D02*
X105060476Y-81443390D01*
X105060476Y-81443390D02*
X105108095Y-81491009D01*
X105108095Y-81491009D02*
X105203333Y-81538628D01*
X105203333Y-81538628D02*
X105584285Y-81538628D01*
X104155714Y-81348152D02*
X104155714Y-82014819D01*
X104393809Y-80967200D02*
X104631904Y-81681485D01*
X104631904Y-81681485D02*
X104012857Y-81681485D01*
X103108095Y-82014819D02*
X103679523Y-82014819D01*
X103393809Y-82014819D02*
X103393809Y-81014819D01*
X103393809Y-81014819D02*
X103489047Y-81157676D01*
X103489047Y-81157676D02*
X103584285Y-81252914D01*
X103584285Y-81252914D02*
X103679523Y-81300533D01*
X105489047Y-110054819D02*
X105822380Y-109578628D01*
X106060475Y-110054819D02*
X106060475Y-109054819D01*
X106060475Y-109054819D02*
X105679523Y-109054819D01*
X105679523Y-109054819D02*
X105584285Y-109102438D01*
X105584285Y-109102438D02*
X105536666Y-109150057D01*
X105536666Y-109150057D02*
X105489047Y-109245295D01*
X105489047Y-109245295D02*
X105489047Y-109388152D01*
X105489047Y-109388152D02*
X105536666Y-109483390D01*
X105536666Y-109483390D02*
X105584285Y-109531009D01*
X105584285Y-109531009D02*
X105679523Y-109578628D01*
X105679523Y-109578628D02*
X106060475Y-109578628D01*
X104536666Y-110054819D02*
X105108094Y-110054819D01*
X104822380Y-110054819D02*
X104822380Y-109054819D01*
X104822380Y-109054819D02*
X104917618Y-109197676D01*
X104917618Y-109197676D02*
X105012856Y-109292914D01*
X105012856Y-109292914D02*
X105108094Y-109340533D01*
X104155713Y-109150057D02*
X104108094Y-109102438D01*
X104108094Y-109102438D02*
X104012856Y-109054819D01*
X104012856Y-109054819D02*
X103774761Y-109054819D01*
X103774761Y-109054819D02*
X103679523Y-109102438D01*
X103679523Y-109102438D02*
X103631904Y-109150057D01*
X103631904Y-109150057D02*
X103584285Y-109245295D01*
X103584285Y-109245295D02*
X103584285Y-109340533D01*
X103584285Y-109340533D02*
X103631904Y-109483390D01*
X103631904Y-109483390D02*
X104203332Y-110054819D01*
X104203332Y-110054819D02*
X103584285Y-110054819D01*
X102965237Y-109054819D02*
X102869999Y-109054819D01*
X102869999Y-109054819D02*
X102774761Y-109102438D01*
X102774761Y-109102438D02*
X102727142Y-109150057D01*
X102727142Y-109150057D02*
X102679523Y-109245295D01*
X102679523Y-109245295D02*
X102631904Y-109435771D01*
X102631904Y-109435771D02*
X102631904Y-109673866D01*
X102631904Y-109673866D02*
X102679523Y-109864342D01*
X102679523Y-109864342D02*
X102727142Y-109959580D01*
X102727142Y-109959580D02*
X102774761Y-110007200D01*
X102774761Y-110007200D02*
X102869999Y-110054819D01*
X102869999Y-110054819D02*
X102965237Y-110054819D01*
X102965237Y-110054819D02*
X103060475Y-110007200D01*
X103060475Y-110007200D02*
X103108094Y-109959580D01*
X103108094Y-109959580D02*
X103155713Y-109864342D01*
X103155713Y-109864342D02*
X103203332Y-109673866D01*
X103203332Y-109673866D02*
X103203332Y-109435771D01*
X103203332Y-109435771D02*
X103155713Y-109245295D01*
X103155713Y-109245295D02*
X103108094Y-109150057D01*
X103108094Y-109150057D02*
X103060475Y-109102438D01*
X103060475Y-109102438D02*
X102965237Y-109054819D01*
X112135713Y-80514819D02*
X112135713Y-79514819D01*
X112135713Y-79514819D02*
X111564285Y-80514819D01*
X111564285Y-80514819D02*
X111564285Y-79514819D01*
X106970604Y-80507901D02*
X106970604Y-79507901D01*
X106970604Y-79507901D02*
X106589652Y-79507901D01*
X106589652Y-79507901D02*
X106494414Y-79555520D01*
X106494414Y-79555520D02*
X106446795Y-79603139D01*
X106446795Y-79603139D02*
X106399176Y-79698377D01*
X106399176Y-79698377D02*
X106399176Y-79841234D01*
X106399176Y-79841234D02*
X106446795Y-79936472D01*
X106446795Y-79936472D02*
X106494414Y-79984091D01*
X106494414Y-79984091D02*
X106589652Y-80031710D01*
X106589652Y-80031710D02*
X106970604Y-80031710D01*
D14*
X132470832Y-98197242D02*
X132470832Y-99104385D01*
X132470832Y-99104385D02*
X132531309Y-99285813D01*
X132531309Y-99285813D02*
X132652261Y-99406766D01*
X132652261Y-99406766D02*
X132833690Y-99467242D01*
X132833690Y-99467242D02*
X132954642Y-99467242D01*
X131987023Y-98197242D02*
X131200832Y-98197242D01*
X131200832Y-98197242D02*
X131624166Y-98681051D01*
X131624166Y-98681051D02*
X131442737Y-98681051D01*
X131442737Y-98681051D02*
X131321785Y-98741527D01*
X131321785Y-98741527D02*
X131261309Y-98802004D01*
X131261309Y-98802004D02*
X131200832Y-98922956D01*
X131200832Y-98922956D02*
X131200832Y-99225337D01*
X131200832Y-99225337D02*
X131261309Y-99346289D01*
X131261309Y-99346289D02*
X131321785Y-99406766D01*
X131321785Y-99406766D02*
X131442737Y-99467242D01*
X131442737Y-99467242D02*
X131805594Y-99467242D01*
X131805594Y-99467242D02*
X131926547Y-99406766D01*
X131926547Y-99406766D02*
X131987023Y-99346289D01*
X141090724Y-92353570D02*
X141090724Y-92776904D01*
X141755962Y-92958332D02*
X141755962Y-92353570D01*
X141755962Y-92353570D02*
X140485962Y-92353570D01*
X140485962Y-92353570D02*
X140485962Y-92958332D01*
X141755962Y-93502618D02*
X140485962Y-93502618D01*
X140485962Y-93502618D02*
X140485962Y-93986428D01*
X140485962Y-93986428D02*
X140546438Y-94107380D01*
X140546438Y-94107380D02*
X140606914Y-94167857D01*
X140606914Y-94167857D02*
X140727866Y-94228333D01*
X140727866Y-94228333D02*
X140909295Y-94228333D01*
X140909295Y-94228333D02*
X141030247Y-94167857D01*
X141030247Y-94167857D02*
X141090724Y-94107380D01*
X141090724Y-94107380D02*
X141151200Y-93986428D01*
X141151200Y-93986428D02*
X141151200Y-93502618D01*
X141755962Y-95377380D02*
X141755962Y-94772618D01*
X141755962Y-94772618D02*
X140485962Y-94772618D01*
X141635009Y-95800713D02*
X141695486Y-95861190D01*
X141695486Y-95861190D02*
X141755962Y-95800713D01*
X141755962Y-95800713D02*
X141695486Y-95740237D01*
X141695486Y-95740237D02*
X141635009Y-95800713D01*
X141635009Y-95800713D02*
X141755962Y-95800713D01*
X140485962Y-96647380D02*
X140485962Y-96768333D01*
X140485962Y-96768333D02*
X140546438Y-96889285D01*
X140546438Y-96889285D02*
X140606914Y-96949761D01*
X140606914Y-96949761D02*
X140727866Y-97010237D01*
X140727866Y-97010237D02*
X140969771Y-97070714D01*
X140969771Y-97070714D02*
X141272152Y-97070714D01*
X141272152Y-97070714D02*
X141514057Y-97010237D01*
X141514057Y-97010237D02*
X141635009Y-96949761D01*
X141635009Y-96949761D02*
X141695486Y-96889285D01*
X141695486Y-96889285D02*
X141755962Y-96768333D01*
X141755962Y-96768333D02*
X141755962Y-96647380D01*
X141755962Y-96647380D02*
X141695486Y-96526428D01*
X141695486Y-96526428D02*
X141635009Y-96465952D01*
X141635009Y-96465952D02*
X141514057Y-96405475D01*
X141514057Y-96405475D02*
X141272152Y-96344999D01*
X141272152Y-96344999D02*
X140969771Y-96344999D01*
X140969771Y-96344999D02*
X140727866Y-96405475D01*
X140727866Y-96405475D02*
X140606914Y-96465952D01*
X140606914Y-96465952D02*
X140546438Y-96526428D01*
X140546438Y-96526428D02*
X140485962Y-96647380D01*
X140485962Y-97856904D02*
X140485962Y-97977857D01*
X140485962Y-97977857D02*
X140546438Y-98098809D01*
X140546438Y-98098809D02*
X140606914Y-98159285D01*
X140606914Y-98159285D02*
X140727866Y-98219761D01*
X140727866Y-98219761D02*
X140969771Y-98280238D01*
X140969771Y-98280238D02*
X141272152Y-98280238D01*
X141272152Y-98280238D02*
X141514057Y-98219761D01*
X141514057Y-98219761D02*
X141635009Y-98159285D01*
X141635009Y-98159285D02*
X141695486Y-98098809D01*
X141695486Y-98098809D02*
X141755962Y-97977857D01*
X141755962Y-97977857D02*
X141755962Y-97856904D01*
X141755962Y-97856904D02*
X141695486Y-97735952D01*
X141695486Y-97735952D02*
X141635009Y-97675476D01*
X141635009Y-97675476D02*
X141514057Y-97614999D01*
X141514057Y-97614999D02*
X141272152Y-97554523D01*
X141272152Y-97554523D02*
X140969771Y-97554523D01*
X140969771Y-97554523D02*
X140727866Y-97614999D01*
X140727866Y-97614999D02*
X140606914Y-97675476D01*
X140606914Y-97675476D02*
X140546438Y-97735952D01*
X140546438Y-97735952D02*
X140485962Y-97856904D01*
X141635009Y-98824523D02*
X141695486Y-98885000D01*
X141695486Y-98885000D02*
X141755962Y-98824523D01*
X141755962Y-98824523D02*
X141695486Y-98764047D01*
X141695486Y-98764047D02*
X141635009Y-98824523D01*
X141635009Y-98824523D02*
X141755962Y-98824523D01*
X140606914Y-99368809D02*
X140546438Y-99429285D01*
X140546438Y-99429285D02*
X140485962Y-99550238D01*
X140485962Y-99550238D02*
X140485962Y-99852619D01*
X140485962Y-99852619D02*
X140546438Y-99973571D01*
X140546438Y-99973571D02*
X140606914Y-100034047D01*
X140606914Y-100034047D02*
X140727866Y-100094524D01*
X140727866Y-100094524D02*
X140848819Y-100094524D01*
X140848819Y-100094524D02*
X141030247Y-100034047D01*
X141030247Y-100034047D02*
X141755962Y-99308333D01*
X141755962Y-99308333D02*
X141755962Y-100094524D01*
X140485962Y-101243571D02*
X140485962Y-100638809D01*
X140485962Y-100638809D02*
X141090724Y-100578333D01*
X141090724Y-100578333D02*
X141030247Y-100638809D01*
X141030247Y-100638809D02*
X140969771Y-100759762D01*
X140969771Y-100759762D02*
X140969771Y-101062143D01*
X140969771Y-101062143D02*
X141030247Y-101183095D01*
X141030247Y-101183095D02*
X141090724Y-101243571D01*
X141090724Y-101243571D02*
X141211676Y-101304048D01*
X141211676Y-101304048D02*
X141514057Y-101304048D01*
X141514057Y-101304048D02*
X141635009Y-101243571D01*
X141635009Y-101243571D02*
X141695486Y-101183095D01*
X141695486Y-101183095D02*
X141755962Y-101062143D01*
X141755962Y-101062143D02*
X141755962Y-100759762D01*
X141755962Y-100759762D02*
X141695486Y-100638809D01*
X141695486Y-100638809D02*
X141635009Y-100578333D01*
X140485962Y-102090238D02*
X140485962Y-102211191D01*
X140485962Y-102211191D02*
X140546438Y-102332143D01*
X140546438Y-102332143D02*
X140606914Y-102392619D01*
X140606914Y-102392619D02*
X140727866Y-102453095D01*
X140727866Y-102453095D02*
X140969771Y-102513572D01*
X140969771Y-102513572D02*
X141272152Y-102513572D01*
X141272152Y-102513572D02*
X141514057Y-102453095D01*
X141514057Y-102453095D02*
X141635009Y-102392619D01*
X141635009Y-102392619D02*
X141695486Y-102332143D01*
X141695486Y-102332143D02*
X141755962Y-102211191D01*
X141755962Y-102211191D02*
X141755962Y-102090238D01*
X141755962Y-102090238D02*
X141695486Y-101969286D01*
X141695486Y-101969286D02*
X141635009Y-101908810D01*
X141635009Y-101908810D02*
X141514057Y-101848333D01*
X141514057Y-101848333D02*
X141272152Y-101787857D01*
X141272152Y-101787857D02*
X140969771Y-101787857D01*
X140969771Y-101787857D02*
X140727866Y-101848333D01*
X140727866Y-101848333D02*
X140606914Y-101908810D01*
X140606914Y-101908810D02*
X140546438Y-101969286D01*
X140546438Y-101969286D02*
X140485962Y-102090238D01*
X141635009Y-103057857D02*
X141695486Y-103118334D01*
X141695486Y-103118334D02*
X141755962Y-103057857D01*
X141755962Y-103057857D02*
X141695486Y-102997381D01*
X141695486Y-102997381D02*
X141635009Y-103057857D01*
X141635009Y-103057857D02*
X141755962Y-103057857D01*
X141755962Y-103662619D02*
X140485962Y-103662619D01*
X140485962Y-103662619D02*
X141755962Y-104388334D01*
X141755962Y-104388334D02*
X140485962Y-104388334D01*
X140485962Y-104811667D02*
X140485962Y-105537381D01*
X141755962Y-105174524D02*
X140485962Y-105174524D01*
X141755962Y-105960714D02*
X140485962Y-105960714D01*
X140485962Y-105960714D02*
X141755962Y-106686429D01*
X141755962Y-106686429D02*
X140485962Y-106686429D01*
D12*
X149160476Y-88025166D02*
X148779524Y-88025166D01*
D10*
X154485951Y-88103866D02*
X153724047Y-88103866D01*
X154104999Y-88484819D02*
X154104999Y-87722914D01*
X114875713Y-104857200D02*
X114732856Y-104904819D01*
X114732856Y-104904819D02*
X114494761Y-104904819D01*
X114494761Y-104904819D02*
X114399523Y-104857200D01*
X114399523Y-104857200D02*
X114351904Y-104809580D01*
X114351904Y-104809580D02*
X114304285Y-104714342D01*
X114304285Y-104714342D02*
X114304285Y-104619104D01*
X114304285Y-104619104D02*
X114351904Y-104523866D01*
X114351904Y-104523866D02*
X114399523Y-104476247D01*
X114399523Y-104476247D02*
X114494761Y-104428628D01*
X114494761Y-104428628D02*
X114685237Y-104381009D01*
X114685237Y-104381009D02*
X114780475Y-104333390D01*
X114780475Y-104333390D02*
X114828094Y-104285771D01*
X114828094Y-104285771D02*
X114875713Y-104190533D01*
X114875713Y-104190533D02*
X114875713Y-104095295D01*
X114875713Y-104095295D02*
X114828094Y-104000057D01*
X114828094Y-104000057D02*
X114780475Y-103952438D01*
X114780475Y-103952438D02*
X114685237Y-103904819D01*
X114685237Y-103904819D02*
X114447142Y-103904819D01*
X114447142Y-103904819D02*
X114304285Y-103952438D01*
X112551904Y-100014819D02*
X112551904Y-99014819D01*
X112551904Y-99014819D02*
X112313809Y-99014819D01*
X112313809Y-99014819D02*
X112170952Y-99062438D01*
X112170952Y-99062438D02*
X112075714Y-99157676D01*
X112075714Y-99157676D02*
X112028095Y-99252914D01*
X112028095Y-99252914D02*
X111980476Y-99443390D01*
X111980476Y-99443390D02*
X111980476Y-99586247D01*
X111980476Y-99586247D02*
X112028095Y-99776723D01*
X112028095Y-99776723D02*
X112075714Y-99871961D01*
X112075714Y-99871961D02*
X112170952Y-99967200D01*
X112170952Y-99967200D02*
X112313809Y-100014819D01*
X112313809Y-100014819D02*
X112551904Y-100014819D01*
X112067013Y-96149237D02*
X112067013Y-95149237D01*
X112067013Y-95149237D02*
X111495585Y-96149237D01*
X111495585Y-96149237D02*
X111495585Y-95149237D01*
X107011904Y-96064819D02*
X107011904Y-95064819D01*
X107011904Y-95064819D02*
X106630952Y-95064819D01*
X106630952Y-95064819D02*
X106535714Y-95112438D01*
X106535714Y-95112438D02*
X106488095Y-95160057D01*
X106488095Y-95160057D02*
X106440476Y-95255295D01*
X106440476Y-95255295D02*
X106440476Y-95398152D01*
X106440476Y-95398152D02*
X106488095Y-95493390D01*
X106488095Y-95493390D02*
X106535714Y-95541009D01*
X106535714Y-95541009D02*
X106630952Y-95588628D01*
X106630952Y-95588628D02*
X107011904Y-95588628D01*
X112081904Y-93544819D02*
X112081904Y-92544819D01*
X112081904Y-92544819D02*
X111700952Y-92544819D01*
X111700952Y-92544819D02*
X111605714Y-92592438D01*
X111605714Y-92592438D02*
X111558095Y-92640057D01*
X111558095Y-92640057D02*
X111510476Y-92735295D01*
X111510476Y-92735295D02*
X111510476Y-92878152D01*
X111510476Y-92878152D02*
X111558095Y-92973390D01*
X111558095Y-92973390D02*
X111605714Y-93021009D01*
X111605714Y-93021009D02*
X111700952Y-93068628D01*
X111700952Y-93068628D02*
X112081904Y-93068628D01*
X106964413Y-93530766D02*
X106964413Y-92530766D01*
X106964413Y-92530766D02*
X106392985Y-93530766D01*
X106392985Y-93530766D02*
X106392985Y-92530766D01*
X172944819Y-117347142D02*
X172468628Y-117013809D01*
X172944819Y-116775714D02*
X171944819Y-116775714D01*
X171944819Y-116775714D02*
X171944819Y-117156666D01*
X171944819Y-117156666D02*
X171992438Y-117251904D01*
X171992438Y-117251904D02*
X172040057Y-117299523D01*
X172040057Y-117299523D02*
X172135295Y-117347142D01*
X172135295Y-117347142D02*
X172278152Y-117347142D01*
X172278152Y-117347142D02*
X172373390Y-117299523D01*
X172373390Y-117299523D02*
X172421009Y-117251904D01*
X172421009Y-117251904D02*
X172468628Y-117156666D01*
X172468628Y-117156666D02*
X172468628Y-116775714D01*
X172944819Y-118299523D02*
X172944819Y-117728095D01*
X172944819Y-118013809D02*
X171944819Y-118013809D01*
X171944819Y-118013809D02*
X172087676Y-117918571D01*
X172087676Y-117918571D02*
X172182914Y-117823333D01*
X172182914Y-117823333D02*
X172230533Y-117728095D01*
X171944819Y-118918571D02*
X171944819Y-119013809D01*
X171944819Y-119013809D02*
X171992438Y-119109047D01*
X171992438Y-119109047D02*
X172040057Y-119156666D01*
X172040057Y-119156666D02*
X172135295Y-119204285D01*
X172135295Y-119204285D02*
X172325771Y-119251904D01*
X172325771Y-119251904D02*
X172563866Y-119251904D01*
X172563866Y-119251904D02*
X172754342Y-119204285D01*
X172754342Y-119204285D02*
X172849580Y-119156666D01*
X172849580Y-119156666D02*
X172897200Y-119109047D01*
X172897200Y-119109047D02*
X172944819Y-119013809D01*
X172944819Y-119013809D02*
X172944819Y-118918571D01*
X172944819Y-118918571D02*
X172897200Y-118823333D01*
X172897200Y-118823333D02*
X172849580Y-118775714D01*
X172849580Y-118775714D02*
X172754342Y-118728095D01*
X172754342Y-118728095D02*
X172563866Y-118680476D01*
X172563866Y-118680476D02*
X172325771Y-118680476D01*
X172325771Y-118680476D02*
X172135295Y-118728095D01*
X172135295Y-118728095D02*
X172040057Y-118775714D01*
X172040057Y-118775714D02*
X171992438Y-118823333D01*
X171992438Y-118823333D02*
X171944819Y-118918571D01*
X120555713Y-83034819D02*
X120555713Y-82034819D01*
X120555713Y-82034819D02*
X119984285Y-83034819D01*
X119984285Y-83034819D02*
X119984285Y-82034819D01*
X115391904Y-82957319D02*
X115391904Y-81957319D01*
X115391904Y-81957319D02*
X115010952Y-81957319D01*
X115010952Y-81957319D02*
X114915714Y-82004938D01*
X114915714Y-82004938D02*
X114868095Y-82052557D01*
X114868095Y-82052557D02*
X114820476Y-82147795D01*
X114820476Y-82147795D02*
X114820476Y-82290652D01*
X114820476Y-82290652D02*
X114868095Y-82385890D01*
X114868095Y-82385890D02*
X114915714Y-82433509D01*
X114915714Y-82433509D02*
X115010952Y-82481128D01*
X115010952Y-82481128D02*
X115391904Y-82481128D01*
X170642857Y-91249580D02*
X170690476Y-91297200D01*
X170690476Y-91297200D02*
X170833333Y-91344819D01*
X170833333Y-91344819D02*
X170928571Y-91344819D01*
X170928571Y-91344819D02*
X171071428Y-91297200D01*
X171071428Y-91297200D02*
X171166666Y-91201961D01*
X171166666Y-91201961D02*
X171214285Y-91106723D01*
X171214285Y-91106723D02*
X171261904Y-90916247D01*
X171261904Y-90916247D02*
X171261904Y-90773390D01*
X171261904Y-90773390D02*
X171214285Y-90582914D01*
X171214285Y-90582914D02*
X171166666Y-90487676D01*
X171166666Y-90487676D02*
X171071428Y-90392438D01*
X171071428Y-90392438D02*
X170928571Y-90344819D01*
X170928571Y-90344819D02*
X170833333Y-90344819D01*
X170833333Y-90344819D02*
X170690476Y-90392438D01*
X170690476Y-90392438D02*
X170642857Y-90440057D01*
X169690476Y-91344819D02*
X170261904Y-91344819D01*
X169976190Y-91344819D02*
X169976190Y-90344819D01*
X169976190Y-90344819D02*
X170071428Y-90487676D01*
X170071428Y-90487676D02*
X170166666Y-90582914D01*
X170166666Y-90582914D02*
X170261904Y-90630533D01*
X169357142Y-90344819D02*
X168738095Y-90344819D01*
X168738095Y-90344819D02*
X169071428Y-90725771D01*
X169071428Y-90725771D02*
X168928571Y-90725771D01*
X168928571Y-90725771D02*
X168833333Y-90773390D01*
X168833333Y-90773390D02*
X168785714Y-90821009D01*
X168785714Y-90821009D02*
X168738095Y-90916247D01*
X168738095Y-90916247D02*
X168738095Y-91154342D01*
X168738095Y-91154342D02*
X168785714Y-91249580D01*
X168785714Y-91249580D02*
X168833333Y-91297200D01*
X168833333Y-91297200D02*
X168928571Y-91344819D01*
X168928571Y-91344819D02*
X169214285Y-91344819D01*
X169214285Y-91344819D02*
X169309523Y-91297200D01*
X169309523Y-91297200D02*
X169357142Y-91249580D01*
D15*
%TO.C,C16*%
X167988748Y-85475000D02*
X168511252Y-85475000D01*
X167988748Y-86945000D02*
X168511252Y-86945000D01*
D13*
%TO.C,J6*%
X141910000Y-96150000D02*
X141910000Y-101150000D01*
X141910000Y-101150000D02*
X147910000Y-101150000D01*
X142410000Y-96150000D02*
X141910000Y-96150000D01*
X147910000Y-96150000D02*
X147410000Y-96150000D01*
X147910000Y-101150000D02*
X147910000Y-96150000D01*
D15*
%TO.C,R136*%
X104098476Y-112904400D02*
X104607924Y-112904400D01*
X104098476Y-113949400D02*
X104607924Y-113949400D01*
%TO.C,C5*%
X195030000Y-94338748D02*
X195030000Y-95761252D01*
X196850000Y-94338748D02*
X196850000Y-95761252D01*
%TO.C,R88*%
X104098476Y-97612968D02*
X104607924Y-97612968D01*
X104098476Y-98657968D02*
X104607924Y-98657968D01*
%TO.C,JP11*%
X107168200Y-88055359D02*
X107168200Y-87455359D01*
X107818200Y-86755359D02*
X110618200Y-86755359D01*
X110618200Y-88755359D02*
X107818200Y-88755359D01*
X111268200Y-87455359D02*
X111268200Y-88055359D01*
X107168200Y-87455359D02*
G75*
G02*
X107868200Y-86755359I700000J0D01*
G01*
X107868200Y-88755359D02*
G75*
G02*
X107168200Y-88055359I0J700000D01*
G01*
X110568200Y-86755359D02*
G75*
G02*
X111268200Y-87455359I1J-699999D01*
G01*
X111268200Y-88055359D02*
G75*
G02*
X110568200Y-88755359I-699999J-1D01*
G01*
%TO.C,TP7*%
X122290000Y-90300000D02*
G75*
G02*
X120890000Y-90300000I-700000J0D01*
G01*
X120890000Y-90300000D02*
G75*
G02*
X122290000Y-90300000I700000J0D01*
G01*
%TO.C,JP9*%
X115583200Y-80256900D02*
X115583200Y-79656900D01*
X116233200Y-78956900D02*
X119033200Y-78956900D01*
X119033200Y-80956900D02*
X116233200Y-80956900D01*
X119683200Y-79656900D02*
X119683200Y-80256900D01*
X115583200Y-79656900D02*
G75*
G02*
X116283200Y-78956900I700000J0D01*
G01*
X116283200Y-80956900D02*
G75*
G02*
X115583200Y-80256900I0J700000D01*
G01*
X118983200Y-78956900D02*
G75*
G02*
X119683200Y-79656900I1J-699999D01*
G01*
X119683200Y-80256900D02*
G75*
G02*
X118983200Y-80956900I-699999J-1D01*
G01*
%TO.C,JP29*%
X115583200Y-101116900D02*
X115583200Y-100516900D01*
X116233200Y-99816900D02*
X119033200Y-99816900D01*
X119033200Y-101816900D02*
X116233200Y-101816900D01*
X119683200Y-100516900D02*
X119683200Y-101116900D01*
X115583200Y-100516900D02*
G75*
G02*
X116283200Y-99816900I700000J0D01*
G01*
X116283200Y-101816900D02*
G75*
G02*
X115583200Y-101116900I0J700000D01*
G01*
X118983200Y-99816900D02*
G75*
G02*
X119683200Y-100516900I1J-699999D01*
G01*
X119683200Y-101116900D02*
G75*
G02*
X118983200Y-101816900I-699999J-1D01*
G01*
D16*
%TO.C,D1*%
X198140000Y-100460000D02*
X203540000Y-100460000D01*
X204115000Y-96840000D02*
X198140000Y-96840000D01*
D15*
%TO.C,JP32*%
X112403200Y-108598565D02*
X112403200Y-105798565D01*
X113103200Y-105148565D02*
X113703200Y-105148565D01*
X113703200Y-109248565D02*
X113103200Y-109248565D01*
X114403200Y-105798565D02*
X114403200Y-108598565D01*
X112403200Y-105848565D02*
G75*
G02*
X113103200Y-105148565I699999J1D01*
G01*
X113103200Y-109248565D02*
G75*
G02*
X112403200Y-108548565I0J700000D01*
G01*
X113703200Y-105148565D02*
G75*
G02*
X114403200Y-105848565I1J-699999D01*
G01*
X114403200Y-108548565D02*
G75*
G02*
X113703200Y-109248565I-700000J0D01*
G01*
%TO.C,TP6*%
X122245000Y-87689231D02*
G75*
G02*
X120845000Y-87689231I-700000J0D01*
G01*
X120845000Y-87689231D02*
G75*
G02*
X122245000Y-87689231I700000J0D01*
G01*
%TO.C,JP26*%
X107163200Y-103692277D02*
X107163200Y-103092277D01*
X107813200Y-102392277D02*
X110613200Y-102392277D01*
X110613200Y-104392277D02*
X107813200Y-104392277D01*
X111263200Y-103092277D02*
X111263200Y-103692277D01*
X107163200Y-103092277D02*
G75*
G02*
X107863200Y-102392277I700000J0D01*
G01*
X107863200Y-104392277D02*
G75*
G02*
X107163200Y-103692277I0J700000D01*
G01*
X110563200Y-102392277D02*
G75*
G02*
X111263200Y-103092277I1J-699999D01*
G01*
X111263200Y-103692277D02*
G75*
G02*
X110563200Y-104392277I-699999J-1D01*
G01*
%TO.C,R33*%
X104098476Y-77224400D02*
X104607924Y-77224400D01*
X104098476Y-78269400D02*
X104607924Y-78269400D01*
%TO.C,R7*%
X188345276Y-87167500D02*
X188854724Y-87167500D01*
X188345276Y-88212500D02*
X188854724Y-88212500D01*
%TO.C,R137*%
X104098476Y-110355823D02*
X104607924Y-110355823D01*
X104098476Y-111400823D02*
X104607924Y-111400823D01*
%TO.C,JP10*%
X107178200Y-85449206D02*
X107178200Y-84849206D01*
X107828200Y-84149206D02*
X110628200Y-84149206D01*
X110628200Y-86149206D02*
X107828200Y-86149206D01*
X111278200Y-84849206D02*
X111278200Y-85449206D01*
X107178200Y-84849206D02*
G75*
G02*
X107878200Y-84149206I699999J1D01*
G01*
X107878200Y-86149206D02*
G75*
G02*
X107178200Y-85449206I-1J699999D01*
G01*
X110578200Y-84149206D02*
G75*
G02*
X111278200Y-84849206I0J-700000D01*
G01*
X111278200Y-85449206D02*
G75*
G02*
X110578200Y-86149206I-700000J0D01*
G01*
%TO.C,R8*%
X197537500Y-86195276D02*
X197537500Y-86704724D01*
X198582500Y-86195276D02*
X198582500Y-86704724D01*
%TO.C,JP1*%
X144540000Y-90860000D02*
X144540000Y-90260000D01*
X145190000Y-89560000D02*
X147990000Y-89560000D01*
X147990000Y-91560000D02*
X145190000Y-91560000D01*
X148640000Y-90260000D02*
X148640000Y-90860000D01*
X144540000Y-90260000D02*
G75*
G02*
X145240000Y-89560000I699999J1D01*
G01*
X145240000Y-91560000D02*
G75*
G02*
X144540000Y-90860000I-1J699999D01*
G01*
X147940000Y-89560000D02*
G75*
G02*
X148640000Y-90260000I0J-700000D01*
G01*
X148640000Y-90860000D02*
G75*
G02*
X147940000Y-91560000I-700000J0D01*
G01*
%TO.C,C10*%
X169631233Y-108198000D02*
X169923767Y-108198000D01*
X169631233Y-109218000D02*
X169923767Y-109218000D01*
%TO.C,JP35*%
X107183200Y-111510736D02*
X107183200Y-110910736D01*
X107833200Y-110210736D02*
X110633200Y-110210736D01*
X110633200Y-112210736D02*
X107833200Y-112210736D01*
X111283200Y-110910736D02*
X111283200Y-111510736D01*
X107183200Y-110910736D02*
G75*
G02*
X107883200Y-110210736I699999J1D01*
G01*
X107883200Y-112210736D02*
G75*
G02*
X107183200Y-111510736I-1J699999D01*
G01*
X110583200Y-110210736D02*
G75*
G02*
X111283200Y-110910736I0J-700000D01*
G01*
X111283200Y-111510736D02*
G75*
G02*
X110583200Y-112210736I-700000J0D01*
G01*
%TO.C,JP6*%
X107253200Y-82843053D02*
X107253200Y-82243053D01*
X107903200Y-81543053D02*
X110703200Y-81543053D01*
X110703200Y-83543053D02*
X107903200Y-83543053D01*
X111353200Y-82243053D02*
X111353200Y-82843053D01*
X107253200Y-82243053D02*
G75*
G02*
X107953200Y-81543053I700000J0D01*
G01*
X107953200Y-83543053D02*
G75*
G02*
X107253200Y-82843053I0J700000D01*
G01*
X110653200Y-81543053D02*
G75*
G02*
X111353200Y-82243053I1J-699999D01*
G01*
X111353200Y-82843053D02*
G75*
G02*
X110653200Y-83543053I-699999J-1D01*
G01*
%TO.C,C9*%
X200123733Y-82570000D02*
X200416267Y-82570000D01*
X200123733Y-83590000D02*
X200416267Y-83590000D01*
%TO.C,TP10*%
X122270000Y-98132307D02*
G75*
G02*
X120870000Y-98132307I-700000J0D01*
G01*
X120870000Y-98132307D02*
G75*
G02*
X122270000Y-98132307I700000J0D01*
G01*
%TO.C,C6*%
X184155000Y-114978748D02*
X184155000Y-115501252D01*
X185625000Y-114978748D02*
X185625000Y-115501252D01*
%TO.C,TP4*%
X122346800Y-82470024D02*
G75*
G02*
X120946800Y-82470024I-700000J0D01*
G01*
X120946800Y-82470024D02*
G75*
G02*
X122346800Y-82470024I700000J0D01*
G01*
%TO.C,JP24*%
X115583200Y-95916900D02*
X115583200Y-95316900D01*
X116233200Y-94616900D02*
X119033200Y-94616900D01*
X119033200Y-96616900D02*
X116233200Y-96616900D01*
X119683200Y-95316900D02*
X119683200Y-95916900D01*
X115583200Y-95316900D02*
G75*
G02*
X116283200Y-94616900I700000J0D01*
G01*
X116283200Y-96616900D02*
G75*
G02*
X115583200Y-95916900I0J700000D01*
G01*
X118983200Y-94616900D02*
G75*
G02*
X119683200Y-95316900I1J-699999D01*
G01*
X119683200Y-95916900D02*
G75*
G02*
X118983200Y-96616900I-699999J-1D01*
G01*
%TO.C,JP30*%
X107153200Y-106298430D02*
X107153200Y-105698430D01*
X107803200Y-104998430D02*
X110603200Y-104998430D01*
X110603200Y-106998430D02*
X107803200Y-106998430D01*
X111253200Y-105698430D02*
X111253200Y-106298430D01*
X107153200Y-105698430D02*
G75*
G02*
X107853200Y-104998430I699999J1D01*
G01*
X107853200Y-106998430D02*
G75*
G02*
X107153200Y-106298430I-1J699999D01*
G01*
X110553200Y-104998430D02*
G75*
G02*
X111253200Y-105698430I0J-700000D01*
G01*
X111253200Y-106298430D02*
G75*
G02*
X110553200Y-106998430I-700000J0D01*
G01*
%TO.C,C7*%
X195640000Y-86616267D02*
X195640000Y-86323733D01*
X196660000Y-86616267D02*
X196660000Y-86323733D01*
%TO.C,TP1*%
X122013200Y-77546900D02*
G75*
G02*
X120613200Y-77546900I-700000J0D01*
G01*
X120613200Y-77546900D02*
G75*
G02*
X122013200Y-77546900I700000J0D01*
G01*
%TO.C,R3*%
X188469876Y-110987500D02*
X188979324Y-110987500D01*
X188469876Y-112032500D02*
X188979324Y-112032500D01*
%TO.C,JP12*%
X112428200Y-87765233D02*
X112428200Y-84965233D01*
X113128200Y-84315233D02*
X113728200Y-84315233D01*
X113728200Y-88415233D02*
X113128200Y-88415233D01*
X114428200Y-84965233D02*
X114428200Y-87765233D01*
X112428200Y-85015233D02*
G75*
G02*
X113128200Y-84315233I699999J1D01*
G01*
X113128200Y-88415233D02*
G75*
G02*
X112428200Y-87715233I0J700000D01*
G01*
X113728200Y-84315233D02*
G75*
G02*
X114428200Y-85015233I1J-699999D01*
G01*
X114428200Y-87715233D02*
G75*
G02*
X113728200Y-88415233I-700000J0D01*
G01*
%TO.C,TP13*%
X122210000Y-105964614D02*
G75*
G02*
X120810000Y-105964614I-700000J0D01*
G01*
X120810000Y-105964614D02*
G75*
G02*
X122210000Y-105964614I700000J0D01*
G01*
%TO.C,JP37*%
X112433200Y-113806900D02*
X112433200Y-111006900D01*
X113133200Y-110356900D02*
X113733200Y-110356900D01*
X113733200Y-114456900D02*
X113133200Y-114456900D01*
X114433200Y-111006900D02*
X114433200Y-113806900D01*
X112433200Y-111056900D02*
G75*
G02*
X113133200Y-110356900I699999J1D01*
G01*
X113133200Y-114456900D02*
G75*
G02*
X112433200Y-113756900I0J700000D01*
G01*
X113733200Y-110356900D02*
G75*
G02*
X114433200Y-111056900I1J-699999D01*
G01*
X114433200Y-113756900D02*
G75*
G02*
X113733200Y-114456900I-700000J0D01*
G01*
%TO.C,R121*%
X104098476Y-105258681D02*
X104607924Y-105258681D01*
X104098476Y-106303681D02*
X104607924Y-106303681D01*
%TO.C,R2*%
X142207500Y-89215276D02*
X142207500Y-89724724D01*
X143252500Y-89215276D02*
X143252500Y-89724724D01*
%TO.C,C3*%
X192254600Y-113806233D02*
X192254600Y-114098767D01*
X193274600Y-113806233D02*
X193274600Y-114098767D01*
%TO.C,C14*%
X169354348Y-119191200D02*
X169876852Y-119191200D01*
X169354348Y-120661200D02*
X169876852Y-120661200D01*
%TO.C,JP3*%
X144500000Y-88280000D02*
X144500000Y-87680000D01*
X145150000Y-86980000D02*
X147950000Y-86980000D01*
X147950000Y-88980000D02*
X145150000Y-88980000D01*
X148600000Y-87680000D02*
X148600000Y-88280000D01*
X144500000Y-87680000D02*
G75*
G02*
X145200000Y-86980000I700000J0D01*
G01*
X145200000Y-88980000D02*
G75*
G02*
X144500000Y-88280000I0J700000D01*
G01*
X147900000Y-86980000D02*
G75*
G02*
X148600000Y-87680000I1J-699999D01*
G01*
X148600000Y-88280000D02*
G75*
G02*
X147900000Y-88980000I-699999J-1D01*
G01*
%TO.C,JP17*%
X112483200Y-92973566D02*
X112483200Y-90173566D01*
X113183200Y-89523566D02*
X113783200Y-89523566D01*
X113783200Y-93623566D02*
X113183200Y-93623566D01*
X114483200Y-90173566D02*
X114483200Y-92973566D01*
X112483200Y-90223566D02*
G75*
G02*
X113183200Y-89523566I699999J1D01*
G01*
X113183200Y-93623566D02*
G75*
G02*
X112483200Y-92923566I0J700000D01*
G01*
X113783200Y-89523566D02*
G75*
G02*
X114483200Y-90223566I1J-699999D01*
G01*
X114483200Y-92923566D02*
G75*
G02*
X113783200Y-93623566I-700000J0D01*
G01*
%TO.C,R11*%
X167342224Y-117495500D02*
X166832776Y-117495500D01*
X167342224Y-118540500D02*
X166832776Y-118540500D01*
%TO.C,TP8*%
X122300000Y-92910769D02*
G75*
G02*
X120900000Y-92910769I-700000J0D01*
G01*
X120900000Y-92910769D02*
G75*
G02*
X122300000Y-92910769I700000J0D01*
G01*
D17*
%TO.C,IC2*%
X194985000Y-85637500D02*
G75*
G02*
X194735000Y-85637500I-125000J0D01*
G01*
X194735000Y-85637500D02*
G75*
G02*
X194985000Y-85637500I125000J0D01*
G01*
D15*
%TO.C,R56*%
X104098476Y-87418684D02*
X104607924Y-87418684D01*
X104098476Y-88463684D02*
X104607924Y-88463684D01*
%TO.C,C12*%
X171610000Y-85848767D02*
X171610000Y-85556233D01*
X172630000Y-85848767D02*
X172630000Y-85556233D01*
%TO.C,JP18*%
X115583200Y-93326900D02*
X115583200Y-92726900D01*
X116233200Y-92026900D02*
X119033200Y-92026900D01*
X119033200Y-94026900D02*
X116233200Y-94026900D01*
X119683200Y-92726900D02*
X119683200Y-93326900D01*
X115583200Y-92726900D02*
G75*
G02*
X116283200Y-92026900I699999J1D01*
G01*
X116283200Y-94026900D02*
G75*
G02*
X115583200Y-93326900I-1J699999D01*
G01*
X118983200Y-92026900D02*
G75*
G02*
X119683200Y-92726900I0J-700000D01*
G01*
X119683200Y-93326900D02*
G75*
G02*
X118983200Y-94026900I-700000J0D01*
G01*
%TO.C,JP19*%
X115583200Y-90736900D02*
X115583200Y-90136900D01*
X116233200Y-89436900D02*
X119033200Y-89436900D01*
X119033200Y-91436900D02*
X116233200Y-91436900D01*
X119683200Y-90136900D02*
X119683200Y-90736900D01*
X115583200Y-90136900D02*
G75*
G02*
X116283200Y-89436900I700000J0D01*
G01*
X116283200Y-91436900D02*
G75*
G02*
X115583200Y-90736900I0J700000D01*
G01*
X118983200Y-89436900D02*
G75*
G02*
X119683200Y-90136900I1J-699999D01*
G01*
X119683200Y-90736900D02*
G75*
G02*
X118983200Y-91436900I-699999J-1D01*
G01*
%TO.C,C4*%
X185368333Y-118520000D02*
X185660867Y-118520000D01*
X185368333Y-119540000D02*
X185660867Y-119540000D01*
%TO.C,JP13*%
X115583200Y-88116900D02*
X115583200Y-87516900D01*
X116233200Y-86816900D02*
X119033200Y-86816900D01*
X119033200Y-88816900D02*
X116233200Y-88816900D01*
X119683200Y-87516900D02*
X119683200Y-88116900D01*
X115583200Y-87516900D02*
G75*
G02*
X116283200Y-86816900I699999J1D01*
G01*
X116283200Y-88816900D02*
G75*
G02*
X115583200Y-88116900I-1J699999D01*
G01*
X118983200Y-86816900D02*
G75*
G02*
X119683200Y-87516900I0J-700000D01*
G01*
X119683200Y-88116900D02*
G75*
G02*
X118983200Y-88816900I-700000J0D01*
G01*
%TO.C,JP28*%
X115583200Y-103706900D02*
X115583200Y-103106900D01*
X116233200Y-102406900D02*
X119033200Y-102406900D01*
X119033200Y-104406900D02*
X116233200Y-104406900D01*
X119683200Y-103106900D02*
X119683200Y-103706900D01*
X115583200Y-103106900D02*
G75*
G02*
X116283200Y-102406900I699999J1D01*
G01*
X116283200Y-104406900D02*
G75*
G02*
X115583200Y-103706900I-1J699999D01*
G01*
X118983200Y-102406900D02*
G75*
G02*
X119683200Y-103106900I0J-700000D01*
G01*
X119683200Y-103706900D02*
G75*
G02*
X118983200Y-104406900I-700000J0D01*
G01*
D16*
%TO.C,IC3*%
X166390000Y-80185000D02*
X169690000Y-80185000D01*
X166390000Y-84185000D02*
X166390000Y-80185000D01*
X169690000Y-80185000D02*
X170390000Y-80885000D01*
X170390000Y-80885000D02*
X170390000Y-84185000D01*
X170390000Y-84185000D02*
X166390000Y-84185000D01*
X170490000Y-80185000D02*
G75*
G02*
X170290000Y-80185000I-100000J0D01*
G01*
X170290000Y-80185000D02*
G75*
G02*
X170490000Y-80185000I100000J0D01*
G01*
D15*
%TO.C,JP22*%
X112453200Y-98181899D02*
X112453200Y-95381899D01*
X113153200Y-94731899D02*
X113753200Y-94731899D01*
X113753200Y-98831899D02*
X113153200Y-98831899D01*
X114453200Y-95381899D02*
X114453200Y-98181899D01*
X112453200Y-95431899D02*
G75*
G02*
X113153200Y-94731899I699999J1D01*
G01*
X113153200Y-98831899D02*
G75*
G02*
X112453200Y-98131899I0J700000D01*
G01*
X113753200Y-94731899D02*
G75*
G02*
X114453200Y-95431899I1J-699999D01*
G01*
X114453200Y-98131899D02*
G75*
G02*
X113753200Y-98831899I-700000J0D01*
G01*
%TO.C,JP25*%
X107173200Y-101086124D02*
X107173200Y-100486124D01*
X107823200Y-99786124D02*
X110623200Y-99786124D01*
X110623200Y-101786124D02*
X107823200Y-101786124D01*
X111273200Y-100486124D02*
X111273200Y-101086124D01*
X107173200Y-100486124D02*
G75*
G02*
X107873200Y-99786124I699999J1D01*
G01*
X107873200Y-101786124D02*
G75*
G02*
X107173200Y-101086124I-1J699999D01*
G01*
X110573200Y-99786124D02*
G75*
G02*
X111273200Y-100486124I0J-700000D01*
G01*
X111273200Y-101086124D02*
G75*
G02*
X110573200Y-101786124I-700000J0D01*
G01*
%TO.C,C15*%
X169683752Y-101215000D02*
X169161248Y-101215000D01*
X169683752Y-102685000D02*
X169161248Y-102685000D01*
%TO.C,JP2*%
X149375000Y-90880000D02*
X149375000Y-90280000D01*
X150025000Y-89580000D02*
X152825000Y-89580000D01*
X152825000Y-91580000D02*
X150025000Y-91580000D01*
X153475000Y-90280000D02*
X153475000Y-90880000D01*
X149375000Y-90280000D02*
G75*
G02*
X150075000Y-89580000I700000J0D01*
G01*
X150075000Y-91580000D02*
G75*
G02*
X149375000Y-90880000I0J700000D01*
G01*
X152775000Y-89580000D02*
G75*
G02*
X153475000Y-90280000I1J-699999D01*
G01*
X153475000Y-90880000D02*
G75*
G02*
X152775000Y-91580000I-699999J-1D01*
G01*
%TO.C,JP14*%
X115583200Y-85526900D02*
X115583200Y-84926900D01*
X116233200Y-84226900D02*
X119033200Y-84226900D01*
X119033200Y-86226900D02*
X116233200Y-86226900D01*
X119683200Y-84926900D02*
X119683200Y-85526900D01*
X115583200Y-84926900D02*
G75*
G02*
X116283200Y-84226900I700000J0D01*
G01*
X116283200Y-86226900D02*
G75*
G02*
X115583200Y-85526900I0J700000D01*
G01*
X118983200Y-84226900D02*
G75*
G02*
X119683200Y-84926900I1J-699999D01*
G01*
X119683200Y-85526900D02*
G75*
G02*
X118983200Y-86226900I-699999J-1D01*
G01*
%TO.C,TP11*%
X122230000Y-100743076D02*
G75*
G02*
X120830000Y-100743076I-700000J0D01*
G01*
X120830000Y-100743076D02*
G75*
G02*
X122230000Y-100743076I700000J0D01*
G01*
%TO.C,JP23*%
X115583200Y-98506900D02*
X115583200Y-97906900D01*
X116233200Y-97206900D02*
X119033200Y-97206900D01*
X119033200Y-99206900D02*
X116233200Y-99206900D01*
X119683200Y-97906900D02*
X119683200Y-98506900D01*
X115583200Y-97906900D02*
G75*
G02*
X116283200Y-97206900I699999J1D01*
G01*
X116283200Y-99206900D02*
G75*
G02*
X115583200Y-98506900I-1J699999D01*
G01*
X118983200Y-97206900D02*
G75*
G02*
X119683200Y-97906900I0J-700000D01*
G01*
X119683200Y-98506900D02*
G75*
G02*
X118983200Y-99206900I-700000J0D01*
G01*
D16*
%TO.C,IC4*%
X168440000Y-94730000D02*
X168440000Y-93305000D01*
D15*
%TO.C,TP9*%
X122260000Y-95521538D02*
G75*
G02*
X120860000Y-95521538I-700000J0D01*
G01*
X120860000Y-95521538D02*
G75*
G02*
X122260000Y-95521538I700000J0D01*
G01*
%TO.C,R9*%
X164127500Y-82577224D02*
X164127500Y-82067776D01*
X165172500Y-82577224D02*
X165172500Y-82067776D01*
%TO.C,JP15*%
X107233200Y-90661512D02*
X107233200Y-90061512D01*
X107883200Y-89361512D02*
X110683200Y-89361512D01*
X110683200Y-91361512D02*
X107883200Y-91361512D01*
X111333200Y-90061512D02*
X111333200Y-90661512D01*
X107233200Y-90061512D02*
G75*
G02*
X107933200Y-89361512I699999J1D01*
G01*
X107933200Y-91361512D02*
G75*
G02*
X107233200Y-90661512I-1J699999D01*
G01*
X110633200Y-89361512D02*
G75*
G02*
X111333200Y-90061512I0J-700000D01*
G01*
X111333200Y-90661512D02*
G75*
G02*
X110633200Y-91361512I-700000J0D01*
G01*
%TO.C,JP34*%
X115583200Y-106296900D02*
X115583200Y-105696900D01*
X116233200Y-104996900D02*
X119033200Y-104996900D01*
X119033200Y-106996900D02*
X116233200Y-106996900D01*
X119683200Y-105696900D02*
X119683200Y-106296900D01*
X115583200Y-105696900D02*
G75*
G02*
X116283200Y-104996900I700000J0D01*
G01*
X116283200Y-106996900D02*
G75*
G02*
X115583200Y-106296900I0J700000D01*
G01*
X118983200Y-104996900D02*
G75*
G02*
X119683200Y-105696900I1J-699999D01*
G01*
X119683200Y-106296900D02*
G75*
G02*
X118983200Y-106996900I-699999J-1D01*
G01*
%TO.C,R40*%
X104098476Y-82321542D02*
X104607924Y-82321542D01*
X104098476Y-83366542D02*
X104607924Y-83366542D01*
%TO.C,JP31*%
X107143200Y-108904583D02*
X107143200Y-108304583D01*
X107793200Y-107604583D02*
X110593200Y-107604583D01*
X110593200Y-109604583D02*
X107793200Y-109604583D01*
X111243200Y-108304583D02*
X111243200Y-108904583D01*
X107143200Y-108304583D02*
G75*
G02*
X107843200Y-107604583I700000J0D01*
G01*
X107843200Y-109604583D02*
G75*
G02*
X107143200Y-108904583I0J700000D01*
G01*
X110543200Y-107604583D02*
G75*
G02*
X111243200Y-108304583I1J-699999D01*
G01*
X111243200Y-108904583D02*
G75*
G02*
X110543200Y-109604583I-699999J-1D01*
G01*
%TO.C,R6*%
X189116824Y-118507500D02*
X188607376Y-118507500D01*
X189116824Y-119552500D02*
X188607376Y-119552500D01*
%TO.C,C8*%
X188383733Y-85710000D02*
X188676267Y-85710000D01*
X188383733Y-86730000D02*
X188676267Y-86730000D01*
%TO.C,JP21*%
X107233200Y-98479971D02*
X107233200Y-97879971D01*
X107883200Y-97179971D02*
X110683200Y-97179971D01*
X110683200Y-99179971D02*
X107883200Y-99179971D01*
X111333200Y-97879971D02*
X111333200Y-98479971D01*
X107233200Y-97879971D02*
G75*
G02*
X107933200Y-97179971I700000J0D01*
G01*
X107933200Y-99179971D02*
G75*
G02*
X107233200Y-98479971I0J700000D01*
G01*
X110633200Y-97179971D02*
G75*
G02*
X111333200Y-97879971I1J-699999D01*
G01*
X111333200Y-98479971D02*
G75*
G02*
X110633200Y-99179971I-699999J-1D01*
G01*
D13*
%TO.C,J5*%
X140130000Y-82790000D02*
X140130000Y-82790000D01*
X140230000Y-82790000D02*
X140230000Y-82790000D01*
D16*
X141280000Y-75690000D02*
X141280000Y-76690000D01*
X141280000Y-78890000D02*
X141280000Y-81690000D01*
X141280000Y-83890000D02*
X141280000Y-84890000D01*
X141280000Y-84890000D02*
X153580000Y-84890000D01*
X153580000Y-75690000D02*
X141280000Y-75690000D01*
X153580000Y-76690000D02*
X153580000Y-75690000D01*
X153580000Y-81690000D02*
X153580000Y-78890000D01*
X153580000Y-84890000D02*
X153580000Y-83890000D01*
D13*
X140130000Y-82790000D02*
G75*
G02*
X140230000Y-82790000I50000J0D01*
G01*
X140230000Y-82790000D02*
G75*
G02*
X140130000Y-82790000I-50000J0D01*
G01*
D16*
%TO.C,IC5*%
X166219000Y-111620000D02*
X171121000Y-111620000D01*
X166219000Y-114820000D02*
X166219000Y-111620000D01*
X171121000Y-111620000D02*
X171121000Y-114820000D01*
X171121000Y-114820000D02*
X166219000Y-114820000D01*
X171250000Y-115170000D02*
X171250000Y-116695000D01*
D15*
%TO.C,R57*%
X104098476Y-84870113D02*
X104607924Y-84870113D01*
X104098476Y-85915113D02*
X104607924Y-85915113D01*
%TO.C,TP14*%
X122220000Y-108575383D02*
G75*
G02*
X120820000Y-108575383I-700000J0D01*
G01*
X120820000Y-108575383D02*
G75*
G02*
X122220000Y-108575383I700000J0D01*
G01*
%TO.C,JP33*%
X115583200Y-108886900D02*
X115583200Y-108286900D01*
X116233200Y-107586900D02*
X119033200Y-107586900D01*
X119033200Y-109586900D02*
X116233200Y-109586900D01*
X119683200Y-108286900D02*
X119683200Y-108886900D01*
X115583200Y-108286900D02*
G75*
G02*
X116283200Y-107586900I699999J1D01*
G01*
X116283200Y-109586900D02*
G75*
G02*
X115583200Y-108886900I-1J699999D01*
G01*
X118983200Y-107586900D02*
G75*
G02*
X119683200Y-108286900I0J-700000D01*
G01*
X119683200Y-108886900D02*
G75*
G02*
X118983200Y-109586900I-700000J0D01*
G01*
%TO.C,R73*%
X104098476Y-89967255D02*
X104607924Y-89967255D01*
X104098476Y-91012255D02*
X104607924Y-91012255D01*
%TO.C,C11*%
X166896233Y-77940000D02*
X167188767Y-77940000D01*
X166896233Y-78960000D02*
X167188767Y-78960000D01*
%TO.C,JP39*%
X115583200Y-111526900D02*
X115583200Y-110926900D01*
X116233200Y-110226900D02*
X119033200Y-110226900D01*
X119033200Y-112226900D02*
X116233200Y-112226900D01*
X119683200Y-110926900D02*
X119683200Y-111526900D01*
X115583200Y-110926900D02*
G75*
G02*
X116283200Y-110226900I700000J0D01*
G01*
X116283200Y-112226900D02*
G75*
G02*
X115583200Y-111526900I0J700000D01*
G01*
X118983200Y-110226900D02*
G75*
G02*
X119683200Y-110926900I1J-699999D01*
G01*
X119683200Y-111526900D02*
G75*
G02*
X118983200Y-112226900I-699999J-1D01*
G01*
%TO.C,R4*%
X194327500Y-83294724D02*
X194327500Y-82785276D01*
X195372500Y-83294724D02*
X195372500Y-82785276D01*
%TO.C,R1*%
X140687500Y-89205276D02*
X140687500Y-89714724D01*
X141732500Y-89205276D02*
X141732500Y-89714724D01*
%TO.C,TP2*%
X124490000Y-77500000D02*
G75*
G02*
X123090000Y-77500000I-700000J0D01*
G01*
X123090000Y-77500000D02*
G75*
G02*
X124490000Y-77500000I700000J0D01*
G01*
D16*
%TO.C,L1*%
X185930000Y-95045000D02*
X187880000Y-95045000D01*
X185930000Y-102545000D02*
X185930000Y-95045000D01*
X187880000Y-102545000D02*
X185930000Y-102545000D01*
D13*
X190530000Y-102995000D02*
X190530000Y-102995000D01*
X190530000Y-103095000D02*
X190530000Y-103095000D01*
D16*
X191480000Y-95045000D02*
X193430000Y-95045000D01*
X193430000Y-95045000D02*
X193430000Y-102545000D01*
X193430000Y-102545000D02*
X191480000Y-102545000D01*
D13*
X190530000Y-102995000D02*
G75*
G02*
X190530000Y-103095000I0J-50000D01*
G01*
X190530000Y-103095000D02*
G75*
G02*
X190530000Y-102995000I0J50000D01*
G01*
D15*
%TO.C,R104*%
X104098476Y-102710110D02*
X104607924Y-102710110D01*
X104098476Y-103755110D02*
X104607924Y-103755110D01*
%TO.C,C2*%
X200371252Y-92780000D02*
X198948748Y-92780000D01*
X200371252Y-95500000D02*
X198948748Y-95500000D01*
%TO.C,R72*%
X104098476Y-92515826D02*
X104607924Y-92515826D01*
X104098476Y-93560826D02*
X104607924Y-93560826D01*
%TO.C,TP3*%
X122321800Y-79870024D02*
G75*
G02*
X120921800Y-79870024I-700000J0D01*
G01*
X120921800Y-79870024D02*
G75*
G02*
X122321800Y-79870024I700000J0D01*
G01*
D13*
%TO.C,J1*%
X150090000Y-96180000D02*
X150090000Y-101180000D01*
X150090000Y-101180000D02*
X156090000Y-101180000D01*
X150590000Y-96180000D02*
X150090000Y-96180000D01*
X156090000Y-96180000D02*
X155590000Y-96180000D01*
X156090000Y-101180000D02*
X156090000Y-96180000D01*
D15*
%TO.C,R14*%
X171597500Y-82097776D02*
X171597500Y-82607224D01*
X172642500Y-82097776D02*
X172642500Y-82607224D01*
%TO.C,JP36*%
X107173200Y-114116900D02*
X107173200Y-113516900D01*
X107823200Y-112816900D02*
X110623200Y-112816900D01*
X110623200Y-114816900D02*
X107823200Y-114816900D01*
X111273200Y-113516900D02*
X111273200Y-114116900D01*
X107173200Y-113516900D02*
G75*
G02*
X107873200Y-112816900I700000J0D01*
G01*
X107873200Y-114816900D02*
G75*
G02*
X107173200Y-114116900I0J700000D01*
G01*
X110573200Y-112816900D02*
G75*
G02*
X111273200Y-113516900I1J-699999D01*
G01*
X111273200Y-114116900D02*
G75*
G02*
X110573200Y-114816900I-699999J-1D01*
G01*
%TO.C,R13*%
X172292776Y-99687500D02*
X172802224Y-99687500D01*
X172292776Y-100732500D02*
X172802224Y-100732500D01*
D16*
%TO.C,IC1*%
X186954600Y-113280000D02*
X190954600Y-113280000D01*
X186954600Y-117280000D02*
X186954600Y-113280000D01*
X190254600Y-117280000D02*
X186954600Y-117280000D01*
X190954600Y-113280000D02*
X190954600Y-116580000D01*
X190954600Y-116580000D02*
X190254600Y-117280000D01*
X191054600Y-117280000D02*
G75*
G02*
X190854600Y-117280000I-100000J0D01*
G01*
X190854600Y-117280000D02*
G75*
G02*
X191054600Y-117280000I100000J0D01*
G01*
D15*
%TO.C,R89*%
X104098476Y-95064397D02*
X104607924Y-95064397D01*
X104098476Y-96109397D02*
X104607924Y-96109397D01*
%TO.C,R105*%
X104098476Y-100161539D02*
X104607924Y-100161539D01*
X104098476Y-101206539D02*
X104607924Y-101206539D01*
%TO.C,R5*%
X200527500Y-89125276D02*
X200527500Y-89634724D01*
X201572500Y-89125276D02*
X201572500Y-89634724D01*
%TO.C,JP38*%
X115583200Y-114116900D02*
X115583200Y-113516900D01*
X116233200Y-112816900D02*
X119033200Y-112816900D01*
X119033200Y-114816900D02*
X116233200Y-114816900D01*
X119683200Y-113516900D02*
X119683200Y-114116900D01*
X115583200Y-113516900D02*
G75*
G02*
X116283200Y-112816900I699999J1D01*
G01*
X116283200Y-114816900D02*
G75*
G02*
X115583200Y-114116900I-1J699999D01*
G01*
X118983200Y-112816900D02*
G75*
G02*
X119683200Y-113516900I0J-700000D01*
G01*
X119683200Y-114116900D02*
G75*
G02*
X118983200Y-114816900I-700000J0D01*
G01*
%TO.C,JP7*%
X112503200Y-82556900D02*
X112503200Y-79756900D01*
X113203200Y-79106900D02*
X113803200Y-79106900D01*
X113803200Y-83206900D02*
X113203200Y-83206900D01*
X114503200Y-79756900D02*
X114503200Y-82556900D01*
X112503200Y-79806900D02*
G75*
G02*
X113203200Y-79106900I699999J1D01*
G01*
X113203200Y-83206900D02*
G75*
G02*
X112503200Y-82506900I0J700000D01*
G01*
X113803200Y-79106900D02*
G75*
G02*
X114503200Y-79806900I1J-699999D01*
G01*
X114503200Y-82506900D02*
G75*
G02*
X113803200Y-83206900I-700000J0D01*
G01*
%TO.C,R12*%
X168942776Y-99677500D02*
X169452224Y-99677500D01*
X168942776Y-100722500D02*
X169452224Y-100722500D01*
%TO.C,C1*%
X182421252Y-87510000D02*
X180998748Y-87510000D01*
X182421252Y-90230000D02*
X180998748Y-90230000D01*
%TO.C,R41*%
X104098476Y-79772971D02*
X104607924Y-79772971D01*
X104098476Y-80817971D02*
X104607924Y-80817971D01*
%TO.C,R120*%
X104098476Y-107807252D02*
X104607924Y-107807252D01*
X104098476Y-108852252D02*
X104607924Y-108852252D01*
%TO.C,TP16*%
X122250000Y-113796924D02*
G75*
G02*
X120850000Y-113796924I-700000J0D01*
G01*
X120850000Y-113796924D02*
G75*
G02*
X122250000Y-113796924I700000J0D01*
G01*
%TO.C,JP5*%
X107253200Y-80236900D02*
X107253200Y-79636900D01*
X107903200Y-78936900D02*
X110703200Y-78936900D01*
X110703200Y-80936900D02*
X107903200Y-80936900D01*
X111353200Y-79636900D02*
X111353200Y-80236900D01*
X107253200Y-79636900D02*
G75*
G02*
X107953200Y-78936900I699999J1D01*
G01*
X107953200Y-80936900D02*
G75*
G02*
X107253200Y-80236900I-1J699999D01*
G01*
X110653200Y-78936900D02*
G75*
G02*
X111353200Y-79636900I0J-700000D01*
G01*
X111353200Y-80236900D02*
G75*
G02*
X110653200Y-80936900I-700000J0D01*
G01*
D18*
%TO.C,J3*%
X133312420Y-99207580D02*
X133312420Y-92212420D01*
X140307580Y-92212420D02*
X133312420Y-92212420D01*
X140307580Y-99207580D02*
X133312420Y-99207580D01*
X140307580Y-99207580D02*
X140307580Y-92212420D01*
D15*
%TO.C,JP4*%
X149325000Y-88330000D02*
X149325000Y-87730000D01*
X149975000Y-87030000D02*
X152775000Y-87030000D01*
X152775000Y-89030000D02*
X149975000Y-89030000D01*
X153425000Y-87730000D02*
X153425000Y-88330000D01*
X149325000Y-87730000D02*
G75*
G02*
X150025000Y-87030000I699999J1D01*
G01*
X150025000Y-89030000D02*
G75*
G02*
X149325000Y-88330000I-1J699999D01*
G01*
X152725000Y-87030000D02*
G75*
G02*
X153425000Y-87730000I0J-700000D01*
G01*
X153425000Y-88330000D02*
G75*
G02*
X152725000Y-89030000I-700000J0D01*
G01*
%TO.C,TP15*%
X122240000Y-111186152D02*
G75*
G02*
X120840000Y-111186152I-700000J0D01*
G01*
X120840000Y-111186152D02*
G75*
G02*
X122240000Y-111186152I700000J0D01*
G01*
%TO.C,JP27*%
X112423200Y-103390232D02*
X112423200Y-100590232D01*
X113123200Y-99940232D02*
X113723200Y-99940232D01*
X113723200Y-104040232D02*
X113123200Y-104040232D01*
X114423200Y-100590232D02*
X114423200Y-103390232D01*
X112423200Y-100640232D02*
G75*
G02*
X113123200Y-99940232I699999J1D01*
G01*
X113123200Y-104040232D02*
G75*
G02*
X112423200Y-103340232I0J700000D01*
G01*
X113723200Y-99940232D02*
G75*
G02*
X114423200Y-100640232I1J-699999D01*
G01*
X114423200Y-103340232D02*
G75*
G02*
X113723200Y-104040232I-700000J0D01*
G01*
%TO.C,JP20*%
X107203200Y-95873818D02*
X107203200Y-95273818D01*
X107853200Y-94573818D02*
X110653200Y-94573818D01*
X110653200Y-96573818D02*
X107853200Y-96573818D01*
X111303200Y-95273818D02*
X111303200Y-95873818D01*
X107203200Y-95273818D02*
G75*
G02*
X107903200Y-94573818I699999J1D01*
G01*
X107903200Y-96573818D02*
G75*
G02*
X107203200Y-95873818I-1J699999D01*
G01*
X110603200Y-94573818D02*
G75*
G02*
X111303200Y-95273818I0J-700000D01*
G01*
X111303200Y-95873818D02*
G75*
G02*
X110603200Y-96573818I-700000J0D01*
G01*
%TO.C,TP5*%
X122235000Y-85078462D02*
G75*
G02*
X120835000Y-85078462I-700000J0D01*
G01*
X120835000Y-85078462D02*
G75*
G02*
X122235000Y-85078462I700000J0D01*
G01*
%TO.C,TP12*%
X122240000Y-103353845D02*
G75*
G02*
X120840000Y-103353845I-700000J0D01*
G01*
X120840000Y-103353845D02*
G75*
G02*
X122240000Y-103353845I700000J0D01*
G01*
%TO.C,JP16*%
X107223200Y-93267665D02*
X107223200Y-92667665D01*
X107873200Y-91967665D02*
X110673200Y-91967665D01*
X110673200Y-93967665D02*
X107873200Y-93967665D01*
X111323200Y-92667665D02*
X111323200Y-93267665D01*
X107223200Y-92667665D02*
G75*
G02*
X107923200Y-91967665I700000J0D01*
G01*
X107923200Y-93967665D02*
G75*
G02*
X107223200Y-93267665I0J700000D01*
G01*
X110623200Y-91967665D02*
G75*
G02*
X111323200Y-92667665I1J-699999D01*
G01*
X111323200Y-93267665D02*
G75*
G02*
X110623200Y-93967665I-699999J-1D01*
G01*
%TO.C,R10*%
X170702224Y-117495500D02*
X170192776Y-117495500D01*
X170702224Y-118540500D02*
X170192776Y-118540500D01*
%TO.C,JP8*%
X115583200Y-82846900D02*
X115583200Y-82246900D01*
X116233200Y-81546900D02*
X119033200Y-81546900D01*
X119033200Y-83546900D02*
X116233200Y-83546900D01*
X119683200Y-82246900D02*
X119683200Y-82846900D01*
X115583200Y-82246900D02*
G75*
G02*
X116283200Y-81546900I699999J1D01*
G01*
X116283200Y-83546900D02*
G75*
G02*
X115583200Y-82846900I-1J699999D01*
G01*
X118983200Y-81546900D02*
G75*
G02*
X119683200Y-82246900I0J-700000D01*
G01*
X119683200Y-82846900D02*
G75*
G02*
X118983200Y-83546900I-700000J0D01*
G01*
%TO.C,C13*%
X170118767Y-91770000D02*
X169826233Y-91770000D01*
X170118767Y-92790000D02*
X169826233Y-92790000D01*
%TD*%
M02*
