%TF.GenerationSoftware,KiCad,Pcbnew,8.0.7*%
%TF.CreationDate,2025-01-03T10:46:17+01:00*%
%TF.ProjectId,A5256,41353235-362e-46b6-9963-61645f706362,rev?*%
%TF.SameCoordinates,Original*%
%TF.FileFunction,Paste,Top*%
%TF.FilePolarity,Positive*%
%FSLAX46Y46*%
G04 Gerber Fmt 4.6, Leading zero omitted, Abs format (unit mm)*
G04 Created by KiCad (PCBNEW 8.0.7) date 2025-01-03 10:46:17*
%MOMM*%
%LPD*%
G01*
G04 APERTURE LIST*
G04 Aperture macros list*
%AMRoundRect*
0 Rectangle with rounded corners*
0 $1 Rounding radius*
0 $2 $3 $4 $5 $6 $7 $8 $9 X,Y pos of 4 corners*
0 Add a 4 corners polygon primitive as box body*
4,1,4,$2,$3,$4,$5,$6,$7,$8,$9,$2,$3,0*
0 Add four circle primitives for the rounded corners*
1,1,$1+$1,$2,$3*
1,1,$1+$1,$4,$5*
1,1,$1+$1,$6,$7*
1,1,$1+$1,$8,$9*
0 Add four rect primitives between the rounded corners*
20,1,$1+$1,$2,$3,$4,$5,0*
20,1,$1+$1,$4,$5,$6,$7,0*
20,1,$1+$1,$6,$7,$8,$9,0*
20,1,$1+$1,$8,$9,$2,$3,0*%
G04 Aperture macros list end*
%ADD10C,0.025400*%
%ADD11RoundRect,0.237500X-0.250000X-0.237500X0.250000X-0.237500X0.250000X0.237500X-0.250000X0.237500X0*%
%ADD12RoundRect,0.237500X-0.237500X0.300000X-0.237500X-0.300000X0.237500X-0.300000X0.237500X0.300000X0*%
%ADD13RoundRect,0.237500X0.300000X0.237500X-0.300000X0.237500X-0.300000X-0.237500X0.300000X-0.237500X0*%
%ADD14RoundRect,0.237500X-0.237500X0.250000X-0.237500X-0.250000X0.237500X-0.250000X0.237500X0.250000X0*%
%ADD15RoundRect,0.237500X0.237500X-0.250000X0.237500X0.250000X-0.237500X0.250000X-0.237500X-0.250000X0*%
%ADD16RoundRect,0.237500X-0.300000X-0.237500X0.300000X-0.237500X0.300000X0.237500X-0.300000X0.237500X0*%
%ADD17RoundRect,0.237500X-0.287500X-0.237500X0.287500X-0.237500X0.287500X0.237500X-0.287500X0.237500X0*%
%ADD18R,0.431800X1.498600*%
%ADD19R,0.300000X0.850000*%
%ADD20R,0.850000X0.300000*%
%ADD21R,2.700000X2.700000*%
%ADD22R,1.498600X0.431800*%
%ADD23R,0.850000X0.200000*%
%ADD24R,0.200000X0.850000*%
%ADD25RoundRect,0.237500X0.250000X0.237500X-0.250000X0.237500X-0.250000X-0.237500X0.250000X-0.237500X0*%
%ADD26R,0.812800X0.304800*%
%ADD27R,4.500000X1.400000*%
%ADD28C,1.297940*%
G04 APERTURE END LIST*
D10*
%TO.C,U1*%
X180255370Y-96550000D02*
X178651970Y-96550000D01*
X178651970Y-95048200D01*
X180255370Y-95048200D01*
X180255370Y-96550000D01*
G36*
X180255370Y-96550000D02*
G01*
X178651970Y-96550000D01*
X178651970Y-95048200D01*
X180255370Y-95048200D01*
X180255370Y-96550000D01*
G37*
X180255370Y-98251800D02*
X178651970Y-98251800D01*
X178651970Y-96750000D01*
X180255370Y-96750000D01*
X180255370Y-98251800D01*
G36*
X180255370Y-98251800D02*
G01*
X178651970Y-98251800D01*
X178651970Y-96750000D01*
X180255370Y-96750000D01*
X180255370Y-98251800D01*
G37*
%TD*%
D11*
%TO.C,R92*%
X140735000Y-115432500D03*
X142560000Y-115432500D03*
%TD*%
D12*
%TO.C,C23*%
X131443850Y-93622500D03*
X131443850Y-95347500D03*
%TD*%
D13*
%TO.C,C60*%
X159637500Y-99975000D03*
X157912500Y-99975000D03*
%TD*%
D14*
%TO.C,R17*%
X131468850Y-90097500D03*
X131468850Y-91922500D03*
%TD*%
D13*
%TO.C,C48*%
X133837500Y-81115500D03*
X132112500Y-81115500D03*
%TD*%
D12*
%TO.C,C29*%
X191478000Y-76301400D03*
X191478000Y-78026400D03*
%TD*%
D11*
%TO.C,R108*%
X161773700Y-115697100D03*
X163598700Y-115697100D03*
%TD*%
D14*
%TO.C,R144*%
X193528200Y-102338800D03*
X193528200Y-104163800D03*
%TD*%
D11*
%TO.C,R129*%
X172320500Y-107059400D03*
X174145500Y-107059400D03*
%TD*%
D15*
%TO.C,R133*%
X201361200Y-109007100D03*
X201361200Y-107182100D03*
%TD*%
D13*
%TO.C,C17*%
X125306350Y-100685000D03*
X123581350Y-100685000D03*
%TD*%
D16*
%TO.C,C28*%
X204637500Y-73950000D03*
X206362500Y-73950000D03*
%TD*%
D17*
%TO.C,L2*%
X127050000Y-96825000D03*
X128800000Y-96825000D03*
%TD*%
D14*
%TO.C,R77*%
X131711000Y-73742200D03*
X131711000Y-75567200D03*
%TD*%
D11*
%TO.C,R114*%
X183648900Y-107110200D03*
X185473900Y-107110200D03*
%TD*%
D15*
%TO.C,R48*%
X173160000Y-75515000D03*
X173160000Y-73690000D03*
%TD*%
D11*
%TO.C,R30*%
X204557500Y-79130000D03*
X206382500Y-79130000D03*
%TD*%
D12*
%TO.C,C52*%
X144680000Y-104297500D03*
X144680000Y-106022500D03*
%TD*%
D18*
%TO.C,U2*%
X125403850Y-91997300D03*
X124768850Y-91997300D03*
X124108450Y-91997300D03*
X123473450Y-91997300D03*
X123473450Y-96366100D03*
X124108450Y-96366100D03*
X124768850Y-96366100D03*
X125403850Y-96366100D03*
%TD*%
D11*
%TO.C,R65*%
X151339300Y-78450300D03*
X153164300Y-78450300D03*
%TD*%
D16*
%TO.C,C32*%
X184347500Y-73630000D03*
X186072500Y-73630000D03*
%TD*%
D12*
%TO.C,C70*%
X170347900Y-104558100D03*
X170347900Y-106283100D03*
%TD*%
%TO.C,C54*%
X133670000Y-105557500D03*
X133670000Y-107282500D03*
%TD*%
D11*
%TO.C,R59*%
X162615000Y-85511500D03*
X164440000Y-85511500D03*
%TD*%
%TO.C,R34*%
X184207700Y-78841100D03*
X186032700Y-78841100D03*
%TD*%
D12*
%TO.C,C18*%
X126967050Y-98681900D03*
X126967050Y-100406900D03*
%TD*%
D19*
%TO.C,U11*%
X137358700Y-111144600D03*
X136858700Y-111144600D03*
X136358700Y-111144600D03*
X135858700Y-111144600D03*
X135358700Y-111144600D03*
X134858700Y-111144600D03*
D20*
X134158700Y-111844600D03*
X134158700Y-112344600D03*
X134158700Y-112844600D03*
X134158700Y-113344600D03*
X134158700Y-113844600D03*
X134158700Y-114344600D03*
D19*
X134858700Y-115044600D03*
X135358700Y-115044600D03*
X135858700Y-115044600D03*
X136358700Y-115044600D03*
X136858700Y-115044600D03*
X137358700Y-115044600D03*
D20*
X138058700Y-114344600D03*
X138058700Y-113844600D03*
X138058700Y-113344600D03*
X138058700Y-112844600D03*
X138058700Y-112344600D03*
X138058700Y-111844600D03*
D21*
X136108700Y-113094600D03*
%TD*%
D15*
%TO.C,R117*%
X180390000Y-108532500D03*
X180390000Y-106707500D03*
%TD*%
D11*
%TO.C,R122*%
X183596200Y-112596600D03*
X185421200Y-112596600D03*
%TD*%
D15*
%TO.C,R131*%
X206177400Y-104160000D03*
X206177400Y-102335000D03*
%TD*%
%TO.C,R18*%
X127908650Y-94525000D03*
X127908650Y-92700000D03*
%TD*%
D19*
%TO.C,U5*%
X180778700Y-83087600D03*
X180278700Y-83087600D03*
X179778700Y-83087600D03*
X179278700Y-83087600D03*
X178778700Y-83087600D03*
X178278700Y-83087600D03*
D20*
X177578700Y-83787600D03*
X177578700Y-84287600D03*
X177578700Y-84787600D03*
X177578700Y-85287600D03*
X177578700Y-85787600D03*
X177578700Y-86287600D03*
D19*
X178278700Y-86987600D03*
X178778700Y-86987600D03*
X179278700Y-86987600D03*
X179778700Y-86987600D03*
X180278700Y-86987600D03*
X180778700Y-86987600D03*
D20*
X181478700Y-86287600D03*
X181478700Y-85787600D03*
X181478700Y-85287600D03*
X181478700Y-84787600D03*
X181478700Y-84287600D03*
X181478700Y-83787600D03*
D21*
X179528700Y-85037600D03*
%TD*%
D11*
%TO.C,R22*%
X204715000Y-84330000D03*
X206540000Y-84330000D03*
%TD*%
D13*
%TO.C,C74*%
X202182500Y-100430000D03*
X200457500Y-100430000D03*
%TD*%
D19*
%TO.C,U7*%
X159238700Y-82747600D03*
X158738700Y-82747600D03*
X158238700Y-82747600D03*
X157738700Y-82747600D03*
X157238700Y-82747600D03*
X156738700Y-82747600D03*
D20*
X156038700Y-83447600D03*
X156038700Y-83947600D03*
X156038700Y-84447600D03*
X156038700Y-84947600D03*
X156038700Y-85447600D03*
X156038700Y-85947600D03*
D19*
X156738700Y-86647600D03*
X157238700Y-86647600D03*
X157738700Y-86647600D03*
X158238700Y-86647600D03*
X158738700Y-86647600D03*
X159238700Y-86647600D03*
D20*
X159938700Y-85947600D03*
X159938700Y-85447600D03*
X159938700Y-84947600D03*
X159938700Y-84447600D03*
X159938700Y-83947600D03*
X159938700Y-83447600D03*
D21*
X157988700Y-84697600D03*
%TD*%
D11*
%TO.C,R75*%
X141212500Y-85524000D03*
X143037500Y-85524000D03*
%TD*%
D14*
%TO.C,R29*%
X204770000Y-75465000D03*
X204770000Y-77290000D03*
%TD*%
D12*
%TO.C,C45*%
X145157500Y-75913000D03*
X145157500Y-77638000D03*
%TD*%
D19*
%TO.C,U17*%
X201177400Y-111356700D03*
X200677400Y-111356700D03*
X200177400Y-111356700D03*
X199677400Y-111356700D03*
X199177400Y-111356700D03*
X198677400Y-111356700D03*
D20*
X197977400Y-112056700D03*
X197977400Y-112556700D03*
X197977400Y-113056700D03*
X197977400Y-113556700D03*
X197977400Y-114056700D03*
X197977400Y-114556700D03*
D19*
X198677400Y-115256700D03*
X199177400Y-115256700D03*
X199677400Y-115256700D03*
X200177400Y-115256700D03*
X200677400Y-115256700D03*
X201177400Y-115256700D03*
D20*
X201877400Y-114556700D03*
X201877400Y-114056700D03*
X201877400Y-113556700D03*
X201877400Y-113056700D03*
X201877400Y-112556700D03*
X201877400Y-112056700D03*
D21*
X199927400Y-113306700D03*
%TD*%
D14*
%TO.C,R96*%
X129709500Y-102126700D03*
X129709500Y-103951700D03*
%TD*%
D22*
%TO.C,U6*%
X177155600Y-73534800D03*
X177155600Y-74169800D03*
X177155600Y-74830200D03*
X177155600Y-75465200D03*
X181524400Y-75465200D03*
X181524400Y-74830200D03*
X181524400Y-74169800D03*
X181524400Y-73534800D03*
%TD*%
D12*
%TO.C,C51*%
X134500000Y-89317500D03*
X134500000Y-91042500D03*
%TD*%
D11*
%TO.C,R58*%
X162615000Y-83987500D03*
X164440000Y-83987500D03*
%TD*%
%TO.C,R66*%
X141265200Y-78513600D03*
X143090200Y-78513600D03*
%TD*%
D12*
%TO.C,C38*%
X166560000Y-75900500D03*
X166560000Y-77625500D03*
%TD*%
D15*
%TO.C,R47*%
X180775000Y-91387500D03*
X180775000Y-89562500D03*
%TD*%
%TO.C,R84*%
X136010000Y-108242500D03*
X136010000Y-106417500D03*
%TD*%
%TO.C,R99*%
X163397400Y-104212500D03*
X163397400Y-102387500D03*
%TD*%
D23*
%TO.C,IC6*%
X161670000Y-94950000D03*
X161670000Y-95350000D03*
X161670000Y-95750000D03*
X161670000Y-96150000D03*
X161670000Y-96550000D03*
X161670000Y-96950000D03*
X161670000Y-97350000D03*
D24*
X162420000Y-98100000D03*
X162820000Y-98100000D03*
X163220000Y-98100000D03*
X163620000Y-98100000D03*
X164020000Y-98100000D03*
X164420000Y-98100000D03*
X164820000Y-98100000D03*
D23*
X165570000Y-97350000D03*
X165570000Y-96950000D03*
X165570000Y-96550000D03*
X165570000Y-96150000D03*
X165570000Y-95750000D03*
X165570000Y-95350000D03*
X165570000Y-94950000D03*
D24*
X164820000Y-94200000D03*
X164420000Y-94200000D03*
X164020000Y-94200000D03*
X163620000Y-94200000D03*
X163220000Y-94200000D03*
X162820000Y-94200000D03*
X162420000Y-94200000D03*
D21*
X163620000Y-96150000D03*
%TD*%
D15*
%TO.C,R83*%
X142358700Y-103947900D03*
X142358700Y-102122900D03*
%TD*%
D11*
%TO.C,R135*%
X204553700Y-111072600D03*
X206378700Y-111072600D03*
%TD*%
%TO.C,R21*%
X193440600Y-78792700D03*
X195265600Y-78792700D03*
%TD*%
D15*
%TO.C,R67*%
X142875000Y-77000000D03*
X142875000Y-75175000D03*
%TD*%
D11*
%TO.C,R76*%
X141212500Y-87048000D03*
X143037500Y-87048000D03*
%TD*%
D12*
%TO.C,C42*%
X160850000Y-89387500D03*
X160850000Y-91112500D03*
%TD*%
D14*
%TO.C,R32*%
X206300000Y-75475000D03*
X206300000Y-77300000D03*
%TD*%
D12*
%TO.C,C59*%
X165718700Y-104562100D03*
X165718700Y-106287100D03*
%TD*%
D19*
%TO.C,U9*%
X137836200Y-82760100D03*
X137336200Y-82760100D03*
X136836200Y-82760100D03*
X136336200Y-82760100D03*
X135836200Y-82760100D03*
X135336200Y-82760100D03*
D20*
X134636200Y-83460100D03*
X134636200Y-83960100D03*
X134636200Y-84460100D03*
X134636200Y-84960100D03*
X134636200Y-85460100D03*
X134636200Y-85960100D03*
D19*
X135336200Y-86660100D03*
X135836200Y-86660100D03*
X136336200Y-86660100D03*
X136836200Y-86660100D03*
X137336200Y-86660100D03*
X137836200Y-86660100D03*
D20*
X138536200Y-85960100D03*
X138536200Y-85460100D03*
X138536200Y-84960100D03*
X138536200Y-84460100D03*
X138536200Y-83960100D03*
X138536200Y-83460100D03*
D21*
X136586200Y-84710100D03*
%TD*%
D16*
%TO.C,C46*%
X141337500Y-73675000D03*
X143062500Y-73675000D03*
%TD*%
D12*
%TO.C,C58*%
X133951200Y-117720000D03*
X133951200Y-119445000D03*
%TD*%
D14*
%TO.C,R93*%
X131233500Y-102126700D03*
X131233500Y-103951700D03*
%TD*%
D15*
%TO.C,R62*%
X157640000Y-91302500D03*
X157640000Y-89477500D03*
%TD*%
D11*
%TO.C,R55*%
X162615000Y-82463500D03*
X164440000Y-82463500D03*
%TD*%
%TO.C,R139*%
X204553700Y-114120600D03*
X206378700Y-114120600D03*
%TD*%
D15*
%TO.C,R70*%
X141351000Y-77001900D03*
X141351000Y-75176900D03*
%TD*%
%TO.C,R52*%
X157910000Y-79872500D03*
X157910000Y-78047500D03*
%TD*%
D11*
%TO.C,R87*%
X140735000Y-110860500D03*
X142560000Y-110860500D03*
%TD*%
D22*
%TO.C,U14*%
X154863000Y-102235100D03*
X154863000Y-102870100D03*
X154863000Y-103530500D03*
X154863000Y-104165500D03*
X159231800Y-104165500D03*
X159231800Y-103530500D03*
X159231800Y-102870100D03*
X159231800Y-102235100D03*
%TD*%
D12*
%TO.C,C77*%
X191305400Y-104558100D03*
X191305400Y-106283100D03*
%TD*%
D11*
%TO.C,R103*%
X161773700Y-111125100D03*
X163598700Y-111125100D03*
%TD*%
%TO.C,R49*%
X172879300Y-78790300D03*
X174704300Y-78790300D03*
%TD*%
%TO.C,R39*%
X184155000Y-82803500D03*
X185980000Y-82803500D03*
%TD*%
D13*
%TO.C,C62*%
X155448700Y-109334600D03*
X153723700Y-109334600D03*
%TD*%
D14*
%TO.C,R27*%
X199775000Y-89487500D03*
X199775000Y-91312500D03*
%TD*%
D25*
%TO.C,R15*%
X125383650Y-99182500D03*
X123558650Y-99182500D03*
%TD*%
D11*
%TO.C,R119*%
X183596200Y-111072600D03*
X185421200Y-111072600D03*
%TD*%
D15*
%TO.C,R132*%
X199840000Y-108752500D03*
X199840000Y-106927500D03*
%TD*%
D22*
%TO.C,U16*%
X176685500Y-102182600D03*
X176685500Y-102817600D03*
X176685500Y-103478000D03*
X176685500Y-104113000D03*
X181054300Y-104113000D03*
X181054300Y-103478000D03*
X181054300Y-102817600D03*
X181054300Y-102182600D03*
%TD*%
%TO.C,U8*%
X155704300Y-73573500D03*
X155704300Y-74208500D03*
X155704300Y-74868900D03*
X155704300Y-75503900D03*
X160073100Y-75503900D03*
X160073100Y-74868900D03*
X160073100Y-74208500D03*
X160073100Y-73573500D03*
%TD*%
D11*
%TO.C,R98*%
X161826400Y-107162700D03*
X163651400Y-107162700D03*
%TD*%
D14*
%TO.C,R141*%
X195052200Y-102338800D03*
X195052200Y-104163800D03*
%TD*%
D11*
%TO.C,R82*%
X140787700Y-106898100D03*
X142612700Y-106898100D03*
%TD*%
%TO.C,R19*%
X204715000Y-87380000D03*
X206540000Y-87380000D03*
%TD*%
%TO.C,R71*%
X141212500Y-82476000D03*
X143037500Y-82476000D03*
%TD*%
D15*
%TO.C,R37*%
X181100000Y-80452500D03*
X181100000Y-78627500D03*
%TD*%
D11*
%TO.C,R130*%
X204606400Y-107110200D03*
X206431400Y-107110200D03*
%TD*%
D15*
%TO.C,R23*%
X195214800Y-75897100D03*
X195214800Y-74072100D03*
%TD*%
%TO.C,R51*%
X164200000Y-76887500D03*
X164200000Y-75062500D03*
%TD*%
D13*
%TO.C,C76*%
X197248700Y-109284600D03*
X195523700Y-109284600D03*
%TD*%
D12*
%TO.C,C79*%
X197831200Y-117922100D03*
X197831200Y-119647100D03*
%TD*%
D15*
%TO.C,R46*%
X179300000Y-91412500D03*
X179300000Y-89587500D03*
%TD*%
%TO.C,R35*%
X185854000Y-76933100D03*
X185854000Y-75108100D03*
%TD*%
D14*
%TO.C,R128*%
X172570700Y-102338800D03*
X172570700Y-104163800D03*
%TD*%
D15*
%TO.C,R36*%
X179590000Y-80252500D03*
X179590000Y-78427500D03*
%TD*%
%TO.C,R95*%
X137261200Y-119537100D03*
X137261200Y-117712100D03*
%TD*%
D11*
%TO.C,R107*%
X161773700Y-114173100D03*
X163598700Y-114173100D03*
%TD*%
%TO.C,R106*%
X161773700Y-112649100D03*
X163598700Y-112649100D03*
%TD*%
D13*
%TO.C,C69*%
X176842500Y-109630000D03*
X175117500Y-109630000D03*
%TD*%
D12*
%TO.C,C75*%
X197591200Y-106022100D03*
X197591200Y-107747100D03*
%TD*%
D16*
%TO.C,C39*%
X162612500Y-73525000D03*
X164337500Y-73525000D03*
%TD*%
D11*
%TO.C,R81*%
X129936800Y-78462800D03*
X131761800Y-78462800D03*
%TD*%
D15*
%TO.C,R101*%
X158588700Y-108909600D03*
X158588700Y-107084600D03*
%TD*%
D11*
%TO.C,R113*%
X150498000Y-107111900D03*
X152323000Y-107111900D03*
%TD*%
D14*
%TO.C,R64*%
X151589500Y-73729700D03*
X151589500Y-75554700D03*
%TD*%
D12*
%TO.C,C47*%
X134137500Y-77251500D03*
X134137500Y-78976500D03*
%TD*%
D15*
%TO.C,R69*%
X138060000Y-80182500D03*
X138060000Y-78357500D03*
%TD*%
D11*
%TO.C,R138*%
X204553700Y-112596600D03*
X206378700Y-112596600D03*
%TD*%
D12*
%TO.C,C80*%
X157346030Y-95177500D03*
X157346030Y-96902500D03*
%TD*%
D15*
%TO.C,R54*%
X162676000Y-76889400D03*
X162676000Y-75064400D03*
%TD*%
D26*
%TO.C,U1*%
X178005870Y-95400000D03*
X178005870Y-95900000D03*
X178005870Y-96400000D03*
X178005870Y-96900000D03*
X178005870Y-97400000D03*
X178005870Y-97900000D03*
X180901470Y-97900000D03*
X180901470Y-97400000D03*
X180901470Y-96900000D03*
X180901470Y-96400000D03*
X180901470Y-95900000D03*
X180901470Y-95400000D03*
%TD*%
D12*
%TO.C,C71*%
X181861200Y-117962100D03*
X181861200Y-119687100D03*
%TD*%
D11*
%TO.C,R123*%
X183596200Y-114120600D03*
X185421200Y-114120600D03*
%TD*%
D22*
%TO.C,U3*%
X197805600Y-73915900D03*
X197805600Y-74550900D03*
X197805600Y-75211300D03*
X197805600Y-75846300D03*
X202174400Y-75846300D03*
X202174400Y-75211300D03*
X202174400Y-74550900D03*
X202174400Y-73915900D03*
%TD*%
D12*
%TO.C,C43*%
X149450000Y-76407500D03*
X149450000Y-78132500D03*
%TD*%
D16*
%TO.C,C21*%
X123041350Y-87965000D03*
X124766350Y-87965000D03*
%TD*%
D12*
%TO.C,C31*%
X188100000Y-76240500D03*
X188100000Y-77965500D03*
%TD*%
D14*
%TO.C,R31*%
X193690800Y-74072100D03*
X193690800Y-75897100D03*
%TD*%
D12*
%TO.C,C61*%
X154698700Y-106037500D03*
X154698700Y-107762500D03*
%TD*%
%TO.C,C57*%
X127769900Y-104682900D03*
X127769900Y-106407900D03*
%TD*%
D11*
%TO.C,R124*%
X183596200Y-115644600D03*
X185421200Y-115644600D03*
%TD*%
%TO.C,R50*%
X162667700Y-78501100D03*
X164492700Y-78501100D03*
%TD*%
%TO.C,R97*%
X129459300Y-106847300D03*
X131284300Y-106847300D03*
%TD*%
D12*
%TO.C,C72*%
X176821200Y-117902100D03*
X176821200Y-119627100D03*
%TD*%
D15*
%TO.C,R127*%
X180130000Y-120082500D03*
X180130000Y-118257500D03*
%TD*%
D14*
%TO.C,R109*%
X152272200Y-102391300D03*
X152272200Y-104216300D03*
%TD*%
D12*
%TO.C,C33*%
X177080000Y-77579000D03*
X177080000Y-79304000D03*
%TD*%
D11*
%TO.C,R42*%
X184155000Y-84327500D03*
X185980000Y-84327500D03*
%TD*%
D15*
%TO.C,R85*%
X137590000Y-108542500D03*
X137590000Y-106717500D03*
%TD*%
D12*
%TO.C,C68*%
X176521200Y-105848100D03*
X176521200Y-107573100D03*
%TD*%
D13*
%TO.C,C20*%
X121767850Y-92260000D03*
X120042850Y-92260000D03*
%TD*%
%TO.C,C34*%
X177137500Y-80940500D03*
X175412500Y-80940500D03*
%TD*%
D12*
%TO.C,C73*%
X207960000Y-104517500D03*
X207960000Y-106242500D03*
%TD*%
D11*
%TO.C,R20*%
X204715000Y-85860000D03*
X206540000Y-85860000D03*
%TD*%
D15*
%TO.C,R100*%
X157050000Y-108662500D03*
X157050000Y-106837500D03*
%TD*%
D12*
%TO.C,C37*%
X177550000Y-89662500D03*
X177550000Y-91387500D03*
%TD*%
D11*
%TO.C,R90*%
X140735000Y-112384500D03*
X142560000Y-112384500D03*
%TD*%
D15*
%TO.C,R94*%
X135754700Y-119492700D03*
X135754700Y-117667700D03*
%TD*%
%TO.C,R110*%
X156800000Y-119742500D03*
X156800000Y-117917500D03*
%TD*%
D12*
%TO.C,C36*%
X170906700Y-76289000D03*
X170906700Y-78014000D03*
%TD*%
D14*
%TO.C,R38*%
X184330000Y-75110000D03*
X184330000Y-76935000D03*
%TD*%
D22*
%TO.C,U18*%
X197643000Y-102182600D03*
X197643000Y-102817600D03*
X197643000Y-103478000D03*
X197643000Y-104113000D03*
X202011800Y-104113000D03*
X202011800Y-103478000D03*
X202011800Y-102817600D03*
X202011800Y-102182600D03*
%TD*%
D12*
%TO.C,C35*%
X182500000Y-89662500D03*
X182500000Y-91387500D03*
%TD*%
%TO.C,C65*%
X155071200Y-117952100D03*
X155071200Y-119677100D03*
%TD*%
D19*
%TO.C,U13*%
X158397400Y-111409200D03*
X157897400Y-111409200D03*
X157397400Y-111409200D03*
X156897400Y-111409200D03*
X156397400Y-111409200D03*
X155897400Y-111409200D03*
D20*
X155197400Y-112109200D03*
X155197400Y-112609200D03*
X155197400Y-113109200D03*
X155197400Y-113609200D03*
X155197400Y-114109200D03*
X155197400Y-114609200D03*
D19*
X155897400Y-115309200D03*
X156397400Y-115309200D03*
X156897400Y-115309200D03*
X157397400Y-115309200D03*
X157897400Y-115309200D03*
X158397400Y-115309200D03*
D20*
X159097400Y-114609200D03*
X159097400Y-114109200D03*
X159097400Y-113609200D03*
X159097400Y-113109200D03*
X159097400Y-112609200D03*
X159097400Y-112109200D03*
D21*
X157147400Y-113359200D03*
%TD*%
D12*
%TO.C,C50*%
X139510000Y-89345500D03*
X139510000Y-91070500D03*
%TD*%
D15*
%TO.C,R78*%
X136220000Y-91392500D03*
X136220000Y-89567500D03*
%TD*%
D14*
%TO.C,R80*%
X130187000Y-73742200D03*
X130187000Y-75567200D03*
%TD*%
D11*
%TO.C,R24*%
X204715000Y-82800000D03*
X206540000Y-82800000D03*
%TD*%
D15*
%TO.C,R102*%
X161873400Y-104214400D03*
X161873400Y-102389400D03*
%TD*%
%TO.C,R86*%
X140834700Y-103949800D03*
X140834700Y-102124800D03*
%TD*%
D12*
%TO.C,C30*%
X208480000Y-76177500D03*
X208480000Y-77902500D03*
%TD*%
D15*
%TO.C,R142*%
X199611200Y-119647100D03*
X199611200Y-117822100D03*
%TD*%
D12*
%TO.C,C19*%
X158886030Y-95182500D03*
X158886030Y-96907500D03*
%TD*%
D11*
%TO.C,R60*%
X162615000Y-87035500D03*
X164440000Y-87035500D03*
%TD*%
D12*
%TO.C,C64*%
X148525400Y-104610600D03*
X148525400Y-106335600D03*
%TD*%
D15*
%TO.C,R118*%
X183695900Y-104161900D03*
X183695900Y-102336900D03*
%TD*%
%TO.C,R79*%
X137720000Y-91402500D03*
X137720000Y-89577500D03*
%TD*%
%TO.C,R134*%
X204653400Y-104161900D03*
X204653400Y-102336900D03*
%TD*%
D12*
%TO.C,C66*%
X187541200Y-104509600D03*
X187541200Y-106234600D03*
%TD*%
D14*
%TO.C,R112*%
X150748200Y-102391300D03*
X150748200Y-104216300D03*
%TD*%
D11*
%TO.C,R74*%
X141212500Y-84000000D03*
X143037500Y-84000000D03*
%TD*%
D12*
%TO.C,C49*%
X128050000Y-76307500D03*
X128050000Y-78032500D03*
%TD*%
D14*
%TO.C,R26*%
X201375000Y-79012500D03*
X201375000Y-80837500D03*
%TD*%
D13*
%TO.C,C41*%
X155812500Y-80740500D03*
X154087500Y-80740500D03*
%TD*%
D14*
%TO.C,R25*%
X201250000Y-89562500D03*
X201250000Y-91387500D03*
%TD*%
%TO.C,R45*%
X174684000Y-73690000D03*
X174684000Y-75515000D03*
%TD*%
D22*
%TO.C,U10*%
X134301800Y-73586000D03*
X134301800Y-74221000D03*
X134301800Y-74881400D03*
X134301800Y-75516400D03*
X138670600Y-75516400D03*
X138670600Y-74881400D03*
X138670600Y-74221000D03*
X138670600Y-73586000D03*
%TD*%
D12*
%TO.C,C40*%
X155590000Y-77407500D03*
X155590000Y-79132500D03*
%TD*%
D13*
%TO.C,C26*%
X197800000Y-81125000D03*
X196075000Y-81125000D03*
%TD*%
D14*
%TO.C,R28*%
X199890000Y-78827500D03*
X199890000Y-80652500D03*
%TD*%
D19*
%TO.C,U15*%
X180219900Y-111356700D03*
X179719900Y-111356700D03*
X179219900Y-111356700D03*
X178719900Y-111356700D03*
X178219900Y-111356700D03*
X177719900Y-111356700D03*
D20*
X177019900Y-112056700D03*
X177019900Y-112556700D03*
X177019900Y-113056700D03*
X177019900Y-113556700D03*
X177019900Y-114056700D03*
X177019900Y-114556700D03*
D19*
X177719900Y-115256700D03*
X178219900Y-115256700D03*
X178719900Y-115256700D03*
X179219900Y-115256700D03*
X179719900Y-115256700D03*
X180219900Y-115256700D03*
D20*
X180919900Y-114556700D03*
X180919900Y-114056700D03*
X180919900Y-113556700D03*
X180919900Y-113056700D03*
X180919900Y-112556700D03*
X180919900Y-112056700D03*
D21*
X178969900Y-113306700D03*
%TD*%
D11*
%TO.C,R91*%
X140735000Y-113908500D03*
X142560000Y-113908500D03*
%TD*%
D15*
%TO.C,R115*%
X185219900Y-104160000D03*
X185219900Y-102335000D03*
%TD*%
%TO.C,R143*%
X201091200Y-119647100D03*
X201091200Y-117822100D03*
%TD*%
D12*
%TO.C,C24*%
X197651300Y-77591400D03*
X197651300Y-79316400D03*
%TD*%
%TO.C,C27*%
X198150000Y-89612500D03*
X198150000Y-91337500D03*
%TD*%
D15*
%TO.C,R126*%
X178630000Y-120042500D03*
X178630000Y-118217500D03*
%TD*%
D11*
%TO.C,R145*%
X193278000Y-107059400D03*
X195103000Y-107059400D03*
%TD*%
D12*
%TO.C,C25*%
X202875000Y-89637500D03*
X202875000Y-91362500D03*
%TD*%
D11*
%TO.C,R44*%
X184155000Y-87375500D03*
X185980000Y-87375500D03*
%TD*%
D12*
%TO.C,C44*%
X155850000Y-89312500D03*
X155850000Y-91037500D03*
%TD*%
%TO.C,C63*%
X159931200Y-117992100D03*
X159931200Y-119717100D03*
%TD*%
D11*
%TO.C,R43*%
X184155000Y-85851500D03*
X185980000Y-85851500D03*
%TD*%
D15*
%TO.C,R53*%
X159430000Y-80142500D03*
X159430000Y-78317500D03*
%TD*%
D19*
%TO.C,U4*%
X201350000Y-83100000D03*
X200850000Y-83100000D03*
X200350000Y-83100000D03*
X199850000Y-83100000D03*
X199350000Y-83100000D03*
X198850000Y-83100000D03*
D20*
X198150000Y-83800000D03*
X198150000Y-84300000D03*
X198150000Y-84800000D03*
X198150000Y-85300000D03*
X198150000Y-85800000D03*
X198150000Y-86300000D03*
D19*
X198850000Y-87000000D03*
X199350000Y-87000000D03*
X199850000Y-87000000D03*
X200350000Y-87000000D03*
X200850000Y-87000000D03*
X201350000Y-87000000D03*
D20*
X202050000Y-86300000D03*
X202050000Y-85800000D03*
X202050000Y-85300000D03*
X202050000Y-84800000D03*
X202050000Y-84300000D03*
X202050000Y-83800000D03*
D21*
X200100000Y-85050000D03*
%TD*%
D13*
%TO.C,C55*%
X134023700Y-109034600D03*
X132298700Y-109034600D03*
%TD*%
D12*
%TO.C,C78*%
X202871200Y-117962100D03*
X202871200Y-119687100D03*
%TD*%
D16*
%TO.C,C22*%
X183421470Y-97400000D03*
X185146470Y-97400000D03*
%TD*%
D14*
%TO.C,R125*%
X174094700Y-102338800D03*
X174094700Y-104163800D03*
%TD*%
D13*
%TO.C,C53*%
X138323700Y-100034600D03*
X136598700Y-100034600D03*
%TD*%
D15*
%TO.C,R63*%
X159140000Y-91402500D03*
X159140000Y-89577500D03*
%TD*%
%TO.C,R68*%
X136490000Y-80002500D03*
X136490000Y-78177500D03*
%TD*%
D12*
%TO.C,C56*%
X138941200Y-117652100D03*
X138941200Y-119377100D03*
%TD*%
D14*
%TO.C,R61*%
X153113500Y-73729700D03*
X153113500Y-75554700D03*
%TD*%
D15*
%TO.C,R111*%
X158281200Y-119737100D03*
X158281200Y-117912100D03*
%TD*%
D22*
%TO.C,U12*%
X133824300Y-101970500D03*
X133824300Y-102605500D03*
X133824300Y-103265900D03*
X133824300Y-103900900D03*
X138193100Y-103900900D03*
X138193100Y-103265900D03*
X138193100Y-102605500D03*
X138193100Y-101970500D03*
%TD*%
D11*
%TO.C,R16*%
X123056350Y-89510000D03*
X124881350Y-89510000D03*
%TD*%
D13*
%TO.C,C67*%
X181322500Y-99870000D03*
X179597500Y-99870000D03*
%TD*%
D15*
%TO.C,R116*%
X178880000Y-108482500D03*
X178880000Y-106657500D03*
%TD*%
D11*
%TO.C,R140*%
X204553700Y-115644600D03*
X206378700Y-115644600D03*
%TD*%
D27*
%TO.C,J4*%
X213160000Y-76500000D03*
X213160000Y-79040000D03*
X213160000Y-81580000D03*
X213160000Y-84120000D03*
X213160000Y-86660000D03*
X213160000Y-89200000D03*
X213160000Y-91740000D03*
X213160000Y-94280000D03*
X213160000Y-96820000D03*
X213160000Y-99360000D03*
X213160000Y-101900000D03*
X213160000Y-104440000D03*
X213160000Y-106980000D03*
X213160000Y-109520000D03*
X213160000Y-112060000D03*
X213160000Y-114600000D03*
X213160000Y-117140000D03*
%TD*%
D28*
%TO.C,J3*%
X134270000Y-98250000D03*
X139350000Y-98250000D03*
X139350000Y-93170000D03*
X134270000Y-93170000D03*
X136810000Y-95710000D03*
%TD*%
M02*
