%TF.GenerationSoftware,KiCad,Pcbnew,8.0.7*%
%TF.CreationDate,2025-01-03T10:46:17+01:00*%
%TF.ProjectId,A5256,41353235-362e-46b6-9963-61645f706362,rev?*%
%TF.SameCoordinates,Original*%
%TF.FileFunction,Soldermask,Bot*%
%TF.FilePolarity,Negative*%
%FSLAX46Y46*%
G04 Gerber Fmt 4.6, Leading zero omitted, Abs format (unit mm)*
G04 Created by KiCad (PCBNEW 8.0.7) date 2025-01-03 10:46:17*
%MOMM*%
%LPD*%
G01*
G04 APERTURE LIST*
G04 Aperture macros list*
%AMRoundRect*
0 Rectangle with rounded corners*
0 $1 Rounding radius*
0 $2 $3 $4 $5 $6 $7 $8 $9 X,Y pos of 4 corners*
0 Add a 4 corners polygon primitive as box body*
4,1,4,$2,$3,$4,$5,$6,$7,$8,$9,$2,$3,0*
0 Add four circle primitives for the rounded corners*
1,1,$1+$1,$2,$3*
1,1,$1+$1,$4,$5*
1,1,$1+$1,$6,$7*
1,1,$1+$1,$8,$9*
0 Add four rect primitives between the rounded corners*
20,1,$1+$1,$2,$3,$4,$5,0*
20,1,$1+$1,$4,$5,$6,$7,0*
20,1,$1+$1,$6,$7,$8,$9,0*
20,1,$1+$1,$8,$9,$2,$3,0*%
%AMFreePoly0*
4,1,19,0.550000,-0.750000,0.000000,-0.750000,0.000000,-0.744911,-0.071157,-0.744911,-0.207708,-0.704816,-0.327430,-0.627875,-0.420627,-0.520320,-0.479746,-0.390866,-0.500000,-0.250000,-0.500000,0.250000,-0.479746,0.390866,-0.420627,0.520320,-0.327430,0.627875,-0.207708,0.704816,-0.071157,0.744911,0.000000,0.744911,0.000000,0.750000,0.550000,0.750000,0.550000,-0.750000,0.550000,-0.750000,
$1*%
%AMFreePoly1*
4,1,19,0.000000,0.744911,0.071157,0.744911,0.207708,0.704816,0.327430,0.627875,0.420627,0.520320,0.479746,0.390866,0.500000,0.250000,0.500000,-0.250000,0.479746,-0.390866,0.420627,-0.520320,0.327430,-0.627875,0.207708,-0.704816,0.071157,-0.744911,0.000000,-0.744911,0.000000,-0.750000,-0.550000,-0.750000,-0.550000,0.750000,0.000000,0.750000,0.000000,0.744911,0.000000,0.744911,
$1*%
G04 Aperture macros list end*
%ADD10C,1.400000*%
%ADD11R,3.100000X1.500000*%
%ADD12C,3.400000*%
%ADD13C,6.000000*%
%ADD14R,1.500000X1.500000*%
%ADD15C,1.500000*%
%ADD16RoundRect,0.250000X0.337500X0.475000X-0.337500X0.475000X-0.337500X-0.475000X0.337500X-0.475000X0*%
%ADD17R,0.850000X3.550000*%
%ADD18R,0.850000X2.650000*%
%ADD19RoundRect,0.237500X0.250000X0.237500X-0.250000X0.237500X-0.250000X-0.237500X0.250000X-0.237500X0*%
%ADD20RoundRect,0.250000X0.650000X-0.412500X0.650000X0.412500X-0.650000X0.412500X-0.650000X-0.412500X0*%
%ADD21FreePoly0,180.000000*%
%ADD22R,1.000000X1.500000*%
%ADD23FreePoly1,180.000000*%
%ADD24C,1.000000*%
%ADD25R,2.200000X2.150000*%
%ADD26FreePoly0,270.000000*%
%ADD27R,1.500000X1.000000*%
%ADD28FreePoly1,270.000000*%
%ADD29FreePoly0,0.000000*%
%ADD30FreePoly1,0.000000*%
%ADD31RoundRect,0.237500X0.237500X-0.250000X0.237500X0.250000X-0.237500X0.250000X-0.237500X-0.250000X0*%
%ADD32RoundRect,0.237500X0.300000X0.237500X-0.300000X0.237500X-0.300000X-0.237500X0.300000X-0.237500X0*%
%ADD33RoundRect,0.250000X0.475000X-0.337500X0.475000X0.337500X-0.475000X0.337500X-0.475000X-0.337500X0*%
%ADD34RoundRect,0.237500X-0.237500X0.300000X-0.237500X-0.300000X0.237500X-0.300000X0.237500X0.300000X0*%
%ADD35R,4.500000X1.400000*%
%ADD36RoundRect,0.237500X0.237500X-0.300000X0.237500X0.300000X-0.237500X0.300000X-0.237500X-0.300000X0*%
%ADD37RoundRect,0.237500X-0.250000X-0.237500X0.250000X-0.237500X0.250000X0.237500X-0.250000X0.237500X0*%
%ADD38R,0.800000X0.300000*%
%ADD39R,1.800000X3.400000*%
%ADD40C,0.370000*%
%ADD41RoundRect,0.250000X-0.337500X-0.475000X0.337500X-0.475000X0.337500X0.475000X-0.337500X0.475000X0*%
%ADD42R,0.450000X1.425000*%
%ADD43R,2.947000X1.753000*%
%ADD44RoundRect,0.237500X-0.237500X0.250000X-0.237500X-0.250000X0.237500X-0.250000X0.237500X0.250000X0*%
%ADD45R,0.650000X1.526000*%
%ADD46R,1.100000X2.100000*%
%ADD47RoundRect,0.250000X-0.412500X-1.100000X0.412500X-1.100000X0.412500X1.100000X-0.412500X1.100000X0*%
%ADD48C,1.297940*%
%ADD49RoundRect,0.237500X-0.300000X-0.237500X0.300000X-0.237500X0.300000X0.237500X-0.300000X0.237500X0*%
G04 APERTURE END LIST*
D10*
%TO.C,J5*%
X150820000Y-83540000D03*
X150820000Y-80040000D03*
D11*
X142570000Y-83540000D03*
X142570000Y-80040000D03*
%TD*%
D12*
%TO.C,H2*%
X114150000Y-75600000D03*
D13*
X114150000Y-75600000D03*
%TD*%
D14*
%TO.C,J2*%
X101090000Y-117140000D03*
D15*
X98550000Y-117140000D03*
X101090000Y-114600000D03*
X98550000Y-114600000D03*
X101090000Y-112060000D03*
X98550000Y-112060000D03*
X101090000Y-109520000D03*
X98550000Y-109520000D03*
X101090000Y-106980000D03*
X98550000Y-106980000D03*
X101090000Y-104440000D03*
X98550000Y-104440000D03*
X101090000Y-101900000D03*
X98550000Y-101900000D03*
X101090000Y-99360000D03*
X98550000Y-99360000D03*
X101090000Y-96820000D03*
X98550000Y-96820000D03*
X101090000Y-94280000D03*
X98550000Y-94280000D03*
X101090000Y-91740000D03*
X98550000Y-91740000D03*
X101090000Y-89200000D03*
X98550000Y-89200000D03*
X101090000Y-86660000D03*
X98550000Y-86660000D03*
X101090000Y-84120000D03*
X98550000Y-84120000D03*
X101090000Y-81580000D03*
X98550000Y-81580000D03*
X101090000Y-79040000D03*
X98550000Y-79040000D03*
X101090000Y-76500000D03*
X98550000Y-76500000D03*
%TD*%
D12*
%TO.C,H1*%
X114190000Y-118060000D03*
D13*
X114190000Y-118060000D03*
%TD*%
D16*
%TO.C,C16*%
X169287500Y-86210000D03*
X167212500Y-86210000D03*
%TD*%
D17*
%TO.C,J6*%
X146410000Y-99100000D03*
D18*
X146410000Y-95200000D03*
D17*
X144910000Y-99100000D03*
D18*
X144910000Y-95200000D03*
D17*
X143410000Y-99100000D03*
D18*
X143410000Y-95200000D03*
%TD*%
D19*
%TO.C,R136*%
X105265700Y-113426900D03*
X103440700Y-113426900D03*
%TD*%
D20*
%TO.C,C5*%
X195940000Y-96612500D03*
X195940000Y-93487500D03*
%TD*%
D19*
%TO.C,R88*%
X105265700Y-98135468D03*
X103440700Y-98135468D03*
%TD*%
D21*
%TO.C,JP11*%
X110518200Y-87755359D03*
D22*
X109218200Y-87755359D03*
D23*
X107918200Y-87755359D03*
%TD*%
D24*
%TO.C,TP7*%
X121590000Y-90300000D03*
%TD*%
D21*
%TO.C,JP9*%
X118933200Y-79956900D03*
D22*
X117633200Y-79956900D03*
D23*
X116333200Y-79956900D03*
%TD*%
D21*
%TO.C,JP29*%
X118933200Y-100816900D03*
D22*
X117633200Y-100816900D03*
D23*
X116333200Y-100816900D03*
%TD*%
D25*
%TO.C,D1*%
X203040000Y-98650000D03*
X198640000Y-98650000D03*
%TD*%
D26*
%TO.C,JP32*%
X113403200Y-105898565D03*
D27*
X113403200Y-107198565D03*
D28*
X113403200Y-108498565D03*
%TD*%
D24*
%TO.C,TP6*%
X121545000Y-87689231D03*
%TD*%
D21*
%TO.C,JP26*%
X110513200Y-103392277D03*
D22*
X109213200Y-103392277D03*
D23*
X107913200Y-103392277D03*
%TD*%
D19*
%TO.C,R33*%
X105265700Y-77746900D03*
X103440700Y-77746900D03*
%TD*%
%TO.C,R7*%
X189512500Y-87690000D03*
X187687500Y-87690000D03*
%TD*%
%TO.C,R137*%
X105265700Y-110878323D03*
X103440700Y-110878323D03*
%TD*%
D29*
%TO.C,JP10*%
X107928200Y-85149206D03*
D22*
X109228200Y-85149206D03*
D30*
X110528200Y-85149206D03*
%TD*%
D31*
%TO.C,R8*%
X198060000Y-87362500D03*
X198060000Y-85537500D03*
%TD*%
D29*
%TO.C,JP1*%
X145290000Y-90560000D03*
D22*
X146590000Y-90560000D03*
D30*
X147890000Y-90560000D03*
%TD*%
D32*
%TO.C,C10*%
X170640000Y-108708000D03*
X168915000Y-108708000D03*
%TD*%
D29*
%TO.C,JP35*%
X107933200Y-111210736D03*
D22*
X109233200Y-111210736D03*
D30*
X110533200Y-111210736D03*
%TD*%
D21*
%TO.C,JP6*%
X110603200Y-82543053D03*
D22*
X109303200Y-82543053D03*
D23*
X108003200Y-82543053D03*
%TD*%
D32*
%TO.C,C9*%
X201132500Y-83080000D03*
X199407500Y-83080000D03*
%TD*%
D24*
%TO.C,TP10*%
X121570000Y-98132307D03*
%TD*%
D33*
%TO.C,C6*%
X184890000Y-116277500D03*
X184890000Y-114202500D03*
%TD*%
D24*
%TO.C,TP4*%
X121646800Y-82470024D03*
%TD*%
D21*
%TO.C,JP24*%
X118933200Y-95616900D03*
D22*
X117633200Y-95616900D03*
D23*
X116333200Y-95616900D03*
%TD*%
D29*
%TO.C,JP30*%
X107903200Y-105998430D03*
D22*
X109203200Y-105998430D03*
D30*
X110503200Y-105998430D03*
%TD*%
D34*
%TO.C,C7*%
X196150000Y-85607500D03*
X196150000Y-87332500D03*
%TD*%
D24*
%TO.C,TP1*%
X121313200Y-77546900D03*
%TD*%
D19*
%TO.C,R3*%
X189637100Y-111510000D03*
X187812100Y-111510000D03*
%TD*%
D35*
%TO.C,J4*%
X213160000Y-76500000D03*
X213160000Y-79040000D03*
X213160000Y-81580000D03*
X213160000Y-84120000D03*
X213160000Y-86660000D03*
X213160000Y-89200000D03*
X213160000Y-91740000D03*
X213160000Y-94280000D03*
X213160000Y-96820000D03*
X213160000Y-99360000D03*
X213160000Y-101900000D03*
X213160000Y-104440000D03*
X213160000Y-106980000D03*
X213160000Y-109520000D03*
X213160000Y-112060000D03*
X213160000Y-114600000D03*
X213160000Y-117140000D03*
%TD*%
D26*
%TO.C,JP12*%
X113428200Y-85065233D03*
D27*
X113428200Y-86365233D03*
D28*
X113428200Y-87665233D03*
%TD*%
D24*
%TO.C,TP13*%
X121510000Y-105964614D03*
%TD*%
D26*
%TO.C,JP37*%
X113433200Y-111106900D03*
D27*
X113433200Y-112406900D03*
D28*
X113433200Y-113706900D03*
%TD*%
D19*
%TO.C,R121*%
X105265700Y-105781181D03*
X103440700Y-105781181D03*
%TD*%
D31*
%TO.C,R2*%
X142730000Y-90382500D03*
X142730000Y-88557500D03*
%TD*%
D36*
%TO.C,C3*%
X192764600Y-114815000D03*
X192764600Y-113090000D03*
%TD*%
D16*
%TO.C,C14*%
X170653100Y-119926200D03*
X168578100Y-119926200D03*
%TD*%
D21*
%TO.C,JP3*%
X147850000Y-87980000D03*
D22*
X146550000Y-87980000D03*
D23*
X145250000Y-87980000D03*
%TD*%
D26*
%TO.C,JP17*%
X113483200Y-90273566D03*
D27*
X113483200Y-91573566D03*
D28*
X113483200Y-92873566D03*
%TD*%
D37*
%TO.C,R11*%
X166175000Y-118018000D03*
X168000000Y-118018000D03*
%TD*%
D24*
%TO.C,TP8*%
X121600000Y-92910769D03*
%TD*%
D38*
%TO.C,IC2*%
X194460000Y-86287500D03*
X194460000Y-86787500D03*
X194460000Y-87287500D03*
X194460000Y-87787500D03*
X194460000Y-88287500D03*
X194460000Y-88787500D03*
X194460000Y-89287500D03*
X191460000Y-89287500D03*
X191460000Y-88787500D03*
X191460000Y-88287500D03*
X191460000Y-87787500D03*
X191460000Y-87287500D03*
X191460000Y-86787500D03*
X191460000Y-86287500D03*
D39*
X192960000Y-87787500D03*
%TD*%
D19*
%TO.C,R56*%
X105265700Y-87941184D03*
X103440700Y-87941184D03*
%TD*%
D34*
%TO.C,C12*%
X172120000Y-84840000D03*
X172120000Y-86565000D03*
%TD*%
D29*
%TO.C,JP18*%
X116333200Y-93026900D03*
D22*
X117633200Y-93026900D03*
D30*
X118933200Y-93026900D03*
%TD*%
D21*
%TO.C,JP19*%
X118933200Y-90436900D03*
D22*
X117633200Y-90436900D03*
D23*
X116333200Y-90436900D03*
%TD*%
D32*
%TO.C,C4*%
X186377100Y-119030000D03*
X184652100Y-119030000D03*
%TD*%
D29*
%TO.C,JP13*%
X116333200Y-87816900D03*
D22*
X117633200Y-87816900D03*
D30*
X118933200Y-87816900D03*
%TD*%
D29*
%TO.C,JP28*%
X116333200Y-103406900D03*
D22*
X117633200Y-103406900D03*
D30*
X118933200Y-103406900D03*
%TD*%
D40*
%TO.C,IC3*%
X169690000Y-80885000D03*
X169040000Y-80885000D03*
X168390000Y-80885000D03*
X167740000Y-80885000D03*
X167090000Y-80885000D03*
X169690000Y-81535000D03*
X169040000Y-81535000D03*
X168390000Y-81535000D03*
X167740000Y-81535000D03*
X167090000Y-81535000D03*
X169690000Y-82185000D03*
X169040000Y-82185000D03*
X168390000Y-82185000D03*
X167740000Y-82185000D03*
X167090000Y-82185000D03*
X169690000Y-82835000D03*
X169040000Y-82835000D03*
X168390000Y-82835000D03*
X167740000Y-82835000D03*
X167090000Y-82835000D03*
X169690000Y-83485000D03*
X169040000Y-83485000D03*
X168390000Y-83485000D03*
X167740000Y-83485000D03*
X167090000Y-83485000D03*
%TD*%
D26*
%TO.C,JP22*%
X113453200Y-95481899D03*
D27*
X113453200Y-96781899D03*
D28*
X113453200Y-98081899D03*
%TD*%
D29*
%TO.C,JP25*%
X107923200Y-100786124D03*
D22*
X109223200Y-100786124D03*
D30*
X110523200Y-100786124D03*
%TD*%
D41*
%TO.C,C15*%
X168385000Y-101950000D03*
X170460000Y-101950000D03*
%TD*%
D21*
%TO.C,JP2*%
X152725000Y-90580000D03*
D22*
X151425000Y-90580000D03*
D23*
X150125000Y-90580000D03*
%TD*%
D21*
%TO.C,JP14*%
X118933200Y-85226900D03*
D22*
X117633200Y-85226900D03*
D23*
X116333200Y-85226900D03*
%TD*%
D24*
%TO.C,TP11*%
X121530000Y-100743076D03*
%TD*%
D29*
%TO.C,JP23*%
X116333200Y-98206900D03*
D22*
X117633200Y-98206900D03*
D30*
X118933200Y-98206900D03*
%TD*%
D42*
%TO.C,IC4*%
X169015000Y-94018000D03*
X169665000Y-94018000D03*
X170315000Y-94018000D03*
X170965000Y-94018000D03*
X171615000Y-94018000D03*
X172265000Y-94018000D03*
X172265000Y-98442000D03*
X171615000Y-98442000D03*
X170965000Y-98442000D03*
X170315000Y-98442000D03*
X169665000Y-98442000D03*
X169015000Y-98442000D03*
D43*
X170640000Y-96230000D03*
%TD*%
D24*
%TO.C,TP9*%
X121560000Y-95521538D03*
%TD*%
D44*
%TO.C,R9*%
X164650000Y-81410000D03*
X164650000Y-83235000D03*
%TD*%
D29*
%TO.C,JP15*%
X107983200Y-90361512D03*
D22*
X109283200Y-90361512D03*
D30*
X110583200Y-90361512D03*
%TD*%
D21*
%TO.C,JP34*%
X118933200Y-105996900D03*
D22*
X117633200Y-105996900D03*
D23*
X116333200Y-105996900D03*
%TD*%
D19*
%TO.C,R40*%
X105265700Y-82844042D03*
X103440700Y-82844042D03*
%TD*%
D21*
%TO.C,JP31*%
X110493200Y-108604583D03*
D22*
X109193200Y-108604583D03*
D23*
X107893200Y-108604583D03*
%TD*%
D37*
%TO.C,R6*%
X187949600Y-119030000D03*
X189774600Y-119030000D03*
%TD*%
D32*
%TO.C,C8*%
X189392500Y-86220000D03*
X187667500Y-86220000D03*
%TD*%
D21*
%TO.C,JP21*%
X110583200Y-98179971D03*
D22*
X109283200Y-98179971D03*
D23*
X107983200Y-98179971D03*
%TD*%
D45*
%TO.C,IC5*%
X170575000Y-115932000D03*
X169305000Y-115932000D03*
X168035000Y-115932000D03*
X166765000Y-115932000D03*
X166765000Y-110508000D03*
X168035000Y-110508000D03*
X169305000Y-110508000D03*
X170575000Y-110508000D03*
%TD*%
D19*
%TO.C,R57*%
X105265700Y-85392613D03*
X103440700Y-85392613D03*
%TD*%
D24*
%TO.C,TP14*%
X121520000Y-108575383D03*
%TD*%
D29*
%TO.C,JP33*%
X116333200Y-108586900D03*
D22*
X117633200Y-108586900D03*
D30*
X118933200Y-108586900D03*
%TD*%
D19*
%TO.C,R73*%
X105265700Y-90489755D03*
X103440700Y-90489755D03*
%TD*%
D32*
%TO.C,C11*%
X167905000Y-78450000D03*
X166180000Y-78450000D03*
%TD*%
D21*
%TO.C,JP39*%
X118933200Y-111226900D03*
D22*
X117633200Y-111226900D03*
D23*
X116333200Y-111226900D03*
%TD*%
D44*
%TO.C,R4*%
X194850000Y-82127500D03*
X194850000Y-83952500D03*
%TD*%
D31*
%TO.C,R1*%
X141210000Y-90372500D03*
X141210000Y-88547500D03*
%TD*%
D24*
%TO.C,TP2*%
X123790000Y-77500000D03*
%TD*%
D46*
%TO.C,L1*%
X190530000Y-101495000D03*
X188830000Y-101495000D03*
X188830000Y-96095000D03*
X190530000Y-96095000D03*
%TD*%
D19*
%TO.C,R104*%
X105265700Y-103232610D03*
X103440700Y-103232610D03*
%TD*%
D47*
%TO.C,C2*%
X198097500Y-94140000D03*
X201222500Y-94140000D03*
%TD*%
D19*
%TO.C,R72*%
X105265700Y-93038326D03*
X103440700Y-93038326D03*
%TD*%
D24*
%TO.C,TP3*%
X121621800Y-79870024D03*
%TD*%
D17*
%TO.C,J1*%
X154590000Y-99130000D03*
D18*
X154590000Y-95230000D03*
D17*
X153090000Y-99130000D03*
D18*
X153090000Y-95230000D03*
D17*
X151590000Y-99130000D03*
D18*
X151590000Y-95230000D03*
%TD*%
D31*
%TO.C,R14*%
X172120000Y-83265000D03*
X172120000Y-81440000D03*
%TD*%
D21*
%TO.C,JP36*%
X110523200Y-113816900D03*
D22*
X109223200Y-113816900D03*
D23*
X107923200Y-113816900D03*
%TD*%
D19*
%TO.C,R13*%
X173460000Y-100210000D03*
X171635000Y-100210000D03*
%TD*%
D40*
%TO.C,IC1*%
X190254600Y-116580000D03*
X190254600Y-115930000D03*
X190254600Y-115280000D03*
X190254600Y-114630000D03*
X190254600Y-113980000D03*
X189604600Y-116580000D03*
X189604600Y-115930000D03*
X189604600Y-115280000D03*
X189604600Y-114630000D03*
X189604600Y-113980000D03*
X188954600Y-116580000D03*
X188954600Y-115930000D03*
X188954600Y-115280000D03*
X188954600Y-114630000D03*
X188954600Y-113980000D03*
X188304600Y-116580000D03*
X188304600Y-115930000D03*
X188304600Y-115280000D03*
X188304600Y-114630000D03*
X188304600Y-113980000D03*
X187654600Y-116580000D03*
X187654600Y-115930000D03*
X187654600Y-115280000D03*
X187654600Y-114630000D03*
X187654600Y-113980000D03*
%TD*%
D19*
%TO.C,R89*%
X105265700Y-95586897D03*
X103440700Y-95586897D03*
%TD*%
%TO.C,R105*%
X105265700Y-100684039D03*
X103440700Y-100684039D03*
%TD*%
D31*
%TO.C,R5*%
X201050000Y-90292500D03*
X201050000Y-88467500D03*
%TD*%
D29*
%TO.C,JP38*%
X116333200Y-113816900D03*
D22*
X117633200Y-113816900D03*
D30*
X118933200Y-113816900D03*
%TD*%
D26*
%TO.C,JP7*%
X113503200Y-79856900D03*
D27*
X113503200Y-81156900D03*
D28*
X113503200Y-82456900D03*
%TD*%
D19*
%TO.C,R12*%
X170110000Y-100200000D03*
X168285000Y-100200000D03*
%TD*%
D47*
%TO.C,C1*%
X180147500Y-88870000D03*
X183272500Y-88870000D03*
%TD*%
D19*
%TO.C,R41*%
X105265700Y-80295471D03*
X103440700Y-80295471D03*
%TD*%
%TO.C,R120*%
X105265700Y-108329752D03*
X103440700Y-108329752D03*
%TD*%
D24*
%TO.C,TP16*%
X121550000Y-113796924D03*
%TD*%
D29*
%TO.C,JP5*%
X108003200Y-79936900D03*
D22*
X109303200Y-79936900D03*
D30*
X110603200Y-79936900D03*
%TD*%
D48*
%TO.C,J3*%
X134270000Y-98250000D03*
X139350000Y-98250000D03*
X139350000Y-93170000D03*
X134270000Y-93170000D03*
X136810000Y-95710000D03*
%TD*%
D29*
%TO.C,JP4*%
X150075000Y-88030000D03*
D22*
X151375000Y-88030000D03*
D30*
X152675000Y-88030000D03*
%TD*%
D24*
%TO.C,TP15*%
X121540000Y-111186152D03*
%TD*%
D26*
%TO.C,JP27*%
X113423200Y-100690232D03*
D27*
X113423200Y-101990232D03*
D28*
X113423200Y-103290232D03*
%TD*%
D29*
%TO.C,JP20*%
X107953200Y-95573818D03*
D22*
X109253200Y-95573818D03*
D30*
X110553200Y-95573818D03*
%TD*%
D24*
%TO.C,TP5*%
X121535000Y-85078462D03*
%TD*%
%TO.C,TP12*%
X121540000Y-103353845D03*
%TD*%
D21*
%TO.C,JP16*%
X110573200Y-92967665D03*
D22*
X109273200Y-92967665D03*
D23*
X107973200Y-92967665D03*
%TD*%
D37*
%TO.C,R10*%
X169535000Y-118018000D03*
X171360000Y-118018000D03*
%TD*%
D29*
%TO.C,JP8*%
X116333200Y-82546900D03*
D22*
X117633200Y-82546900D03*
D30*
X118933200Y-82546900D03*
%TD*%
D49*
%TO.C,C13*%
X169110000Y-92280000D03*
X170835000Y-92280000D03*
%TD*%
M02*
